<svg viewBox="0 0 250 95" fill="none" xmlns="http://www.w3.org/2000/svg"><path fill-rule="evenodd" clip-rule="evenodd" d="M41.455 93.26V73.374H9.073L0 56.107 45.763.75h18.292v52.4h14.507v20.225H64.055v19.884h-22.6Zm20.367-22.118h14.507V55.384H61.822v-52.4H46.815l-44.147 53.4 7.754 14.758h33.266v19.884h18.134V71.142ZM43.688 55.384v-23.93l-19.557 23.93h19.557ZM28.84 53.15h12.615V37.715L28.84 53.151Zm73.874 35.602-.013-.01c-5.653-3.858-9.95-9.346-12.928-16.353l-.006-.015-.007-.016c-2.886-7.086-4.291-15.474-4.291-25.104 0-9.628 1.404-17.98 4.295-24.988l.005-.013c2.976-7.089 7.272-12.625 12.932-16.488l.013-.009C108.477 1.885 115.348 0 123.219 0c7.871 0 14.742 1.885 20.505 5.757 5.748 3.862 10.051 9.403 12.947 16.503 2.977 7.012 4.423 15.367 4.423 24.995 0 9.633-1.447 18.026-4.422 25.118-2.898 7.023-7.204 12.52-12.948 16.38-5.763 3.872-12.634 5.757-20.505 5.757-7.871 0-14.742-1.885-20.505-5.757Zm51.895-17.236c2.835-6.754 4.252-14.84 4.252-24.262 0-9.421-1.417-17.467-4.252-24.137-2.751-6.753-6.795-11.922-12.131-15.507-5.336-3.585-11.755-5.378-19.259-5.378s-13.924 1.793-19.259 5.378c-5.253 3.585-9.297 8.754-12.131 15.507-2.752 6.67-4.127 14.716-4.127 24.137 0 9.421 1.375 17.508 4.127 24.262 2.834 6.67 6.878 11.797 12.131 15.382 5.335 3.585 11.755 5.378 19.259 5.378s13.923-1.793 19.259-5.378 9.38-8.712 12.131-15.382Zm-20.285-4.049c2.777-4.502 4.295-11.155 4.295-20.213 0-9.23-1.52-16.014-4.303-20.602l-.014-.023c-2.621-4.44-6.243-6.531-11.083-6.531-4.839 0-8.512 2.092-11.215 6.543-2.707 4.594-4.185 11.384-4.185 20.613 0 9.057 1.476 15.716 4.176 20.224 2.696 4.365 6.367 6.432 11.224 6.432s8.479-2.066 11.091-6.42l.014-.023Zm-24.236-41.974c3.084-5.085 7.461-7.628 13.131-7.628 5.669 0 10.005 2.543 13.006 7.628 3.085 5.086 4.627 12.34 4.627 21.761 0 9.255-1.542 16.383-4.627 21.385-3.001 5.003-7.337 7.504-13.006 7.504-5.67 0-10.047-2.501-13.131-7.504-3.002-5.002-4.503-12.13-4.503-21.385 0-9.421 1.501-16.675 4.503-21.76ZM207.13 93.26V73.375h-32.382l-9.073-17.268L211.438.75h18.292v52.4h14.507v20.225H229.73v19.884h-22.6Zm20.367-22.117h14.507V55.384h-14.507v-52.4H212.49l-44.147 53.4 7.754 14.758h33.266v19.884h18.134V71.142Zm-18.134-15.758v-23.93l-19.557 23.93h19.557Zm-14.848-2.233h12.615V37.715l-12.615 15.436Z" fill="#000"/></svg>