<svg viewBox="0 0 80 34" fill="none" xmlns="http://www.w3.org/2000/svg"><g clip-path="url(#a)" fill="#000"><path d="M13.055 5.558c.662.116 1.232.187 1.79.315A11.233 11.233 0 0 1 21.07 9.69a11.511 11.511 0 0 1 2.702 6.566c.038.446.064.892.07 1.338.01.483-.065.568-.52.635a11.558 11.558 0 0 1-5.08-.402 11.368 11.368 0 0 1-2.977-1.413 10.315 10.315 0 0 1-2.876-2.926 10.186 10.186 0 0 1-1.593-4.218c-.082-.547-.096-1.103-.147-1.719A9.877 9.877 0 0 0 5.69 9.91c-2.039 1.784-3.225 4.05-3.652 6.775.412.083.791.173 1.179.233.343.054.545.188.557.585a12.48 12.48 0 0 0 .682 3.743 24.36 24.36 0 0 0 1.525 3.398 12.341 12.341 0 0 0 3.545 4.141c.772.564 1.6 1.043 2.472 1.431.295.131.78-.08 1.14-.231a10.47 10.47 0 0 0 4.304-3.254c.642-.828 1.152-1.775 1.631-2.715.58-1.14.818-2.396.968-3.662.03-.248.115-.35.37-.326.304.03.61.04.916.027.364-.02.519.17.472.49-.148 1.011-.236 2.046-.516 3.021a12.995 12.995 0 0 1-3.341 5.59 11.82 11.82 0 0 1-5.078 3.08c-.387.115-.711-.022-1.055-.136-2.138-.71-3.897-2-5.38-3.672a22.112 22.112 0 0 1-1.93-2.515 15.398 15.398 0 0 1-1.661-3.411 14.279 14.279 0 0 1-.827-3.855.377.377 0 0 0-.232-.25c-.456-.148-.921-.25-1.381-.379a.472.472 0 0 1-.397-.372.483.483 0 0 1-.002-.192 12.966 12.966 0 0 1 1.651-5.598 12.5 12.5 0 0 1 3.21-3.724 12.063 12.063 0 0 1 4.863-2.283.915.915 0 0 1 .25-.055c.86.079 1.08-.485 1.294-1.178a9.23 9.23 0 0 1 2.833-4.29c.385-.337.434-.337.777 0 .2.198.393.406.58.617.279.316.279.457-.036.744a8.614 8.614 0 0 0-1.782 2.399c-.22.48-.415.972-.585 1.473Zm8.888 10.976c-.025-.134-.05-.24-.065-.346a10.424 10.424 0 0 0-1.546-4.204 9.918 9.918 0 0 0-3.855-3.554 9.489 9.489 0 0 0-3.41-.97c-.21-.023-.323.036-.318.277.043 1.867.54 3.596 1.63 5.108a8.972 8.972 0 0 0 4.053 3.14c1.127.446 2.29.58 3.51.549ZM33.151.268c2.567 0 4.42 1.86 4.42 4.44s-1.856 4.484-4.42 4.481c-2.564-.003-4.42-1.889-4.42-4.449 0-2.59 1.86-4.471 4.42-4.472Zm2.304 4.637c0-1.415-.723-2.391-1.768-2.613-1.11-.238-2.157.27-2.599 1.262-.504 1.12-.212 2.542.68 3.2a2.199 2.199 0 0 0 2.426.213c.91-.458 1.247-1.278 1.261-2.062ZM52.703 2.61 49.8 5.362l2.916 3.694c-.787 0-1.491.008-2.194-.01-.093 0-.202-.12-.273-.209-.574-.743-1.14-1.486-1.715-2.23-.397.241-.606.537-.56 1.023.043.462.008.932.008 1.415h-1.93V0h1.923v4.803c.147-.122.222-.182.294-.253.59-.602 1.161-1.208 1.752-1.802a.68.68 0 0 1 .398-.21c.745-.018 1.492-.008 2.24-.008l.044.08ZM43.121 2.55h1.901v6.483h-1.93c-.01-.215-.02-.43-.028-.565-.49.219-.962.524-1.474.643-1.022.236-1.885-.14-2.544-.952-.989-1.22-1.039-3.258-.147-4.553 1.07-1.553 3.191-1.504 4.063-.455a.773.773 0 0 0 .12.082c.01-.238.025-.45.04-.682Zm-1.455 1.516c-.612 0-1.132.297-1.291.891a3.574 3.574 0 0 0-.074 1.447c.114.704.652 1.09 1.326 1.1.708.012 1.257-.351 1.396-1.062.086-.469.074-.95-.034-1.415-.148-.624-.69-.96-1.323-.962ZM35.63 18.54v-7.008h.883v8.535c-.512.1-.893.032-1.25-.454-1.536-2.1-3.129-4.154-4.7-6.235a3.81 3.81 0 0 0-.21-.25v6.94h-.86v-8.506c.63-.16.79-.106 1.168.397l4.737 6.292c.065.086.134.166.231.288ZM68.855 31.143h-.894c-.009-.14-.025-.269-.025-.4 0-1.1.007-2.201 0-3.301a4.118 4.118 0 0 0-.115-.989c-.163-.633-.617-.965-1.263-.988a1.789 1.789 0 0 0-1.341.498 1.82 1.82 0 0 0-.56 1.327v3.846h-.914v-6.379h.884l.043.981c.567-.743 1.26-1.112 2.136-1.125.934-.013 1.566.403 1.89 1.348l.195-.248c.664-.846 1.528-1.216 2.588-1.067.874.123 1.474.807 1.564 1.847.072.873.057 1.753.069 2.63.01.654 0 1.31 0 2h-.944v-3.927c-.026-1.144-.512-1.734-1.427-1.731-1.056 0-1.87.783-1.878 1.825-.01 1.137 0 2.274 0 3.419l-.008.434ZM55.168 22.067h.898v9.067h-.884v-.959c-.073.026-.113.027-.13.048-.871 1.014-1.966 1.292-3.192.86-1.269-.447-1.867-1.465-2-2.772-.109-.87.107-1.748.606-2.466.246-.357.569-.654.943-.87a2.888 2.888 0 0 1 3.548.524.67.67 0 0 1 .094.196l.114-.073.003-3.555Zm-4.353 5.837c0 .123-.007.247 0 .37.074.956.688 1.784 1.515 2.049a2.123 2.123 0 0 0 2.332-.677c.728-.892.762-2.387.077-3.327a2.129 2.129 0 0 0-1.606-.89 2.108 2.108 0 0 0-1.694.703 2.454 2.454 0 0 0-.624 1.772ZM36.57 31.12a.85.85 0 0 1-.114.032c-.884.046-.884.046-1.179-.776-.168-.446-.345-.892-.502-1.353a.31.31 0 0 0-.342-.245c-1.104.009-2.208.009-3.31 0a.305.305 0 0 0-.346.242c-.203.582-.442 1.15-.64 1.735-.1.297-.233.46-.568.404a3.66 3.66 0 0 0-.548 0c.05-.148.086-.267.127-.379.989-2.604 1.985-5.202 2.958-7.819.12-.318.257-.436.599-.42.655.031.655.009.884.629l2.843 7.545c.046.123.086.251.139.404Zm-2.274-3.3-1.515-4.228-1.545 4.227h3.06ZM43.718 20.078h-.909v-.996l-.113-.072c-.014.05-.012.112-.042.15-1.519 1.73-4.087 1.279-4.9-.893-.49-1.3-.354-2.558.54-3.662a2.82 2.82 0 0 1 3.538-.685c.382.208.712.503.964.861v-1.054h.922v6.35Zm-5.263-3.207a2.681 2.681 0 0 0 .512 1.636 2.156 2.156 0 0 0 1.691.837 2.138 2.138 0 0 0 1.697-.827c.716-.923.693-2.408-.053-3.309a2.138 2.138 0 0 0-2.384-.64c-.873.306-1.463 1.232-1.463 2.303ZM48.087 25.819v-1.065h.884v6.376h-.874v-.973c-.163.131-.318.246-.461.375a2.83 2.83 0 0 1-2.13.732 2.817 2.817 0 0 1-1.988-1.065c-1.206-1.516-.939-3.942.555-5.054a2.781 2.781 0 0 1 3.831.46c.034.052.072.092.183.213Zm-4.369 2.149c0 .088.012.262.032.433.139 1.104.95 1.9 2.013 1.977a2.08 2.08 0 0 0 1.442-.401c.415-.308.703-.76.808-1.269.095-.421.116-.856.063-1.284a2.203 2.203 0 0 0-.901-1.553 2.16 2.16 0 0 0-1.75-.345c-.997.208-1.686 1.165-1.707 2.442ZM69.283 14.756v-1.024h.9v6.344h-.884v-1.05a.908.908 0 0 0-.134.097c-.749.918-1.723 1.267-2.856 1.019-1.16-.253-1.87-1.053-2.179-2.181-.331-1.21-.185-2.363.641-3.352 1.179-1.405 3.181-1.394 4.361 0 .025.036.06.062.15.147Zm-2.165-.308c-1.096 0-1.972.793-2.158 1.933-.21 1.298.404 2.48 1.473 2.832 1.544.51 2.98-.698 2.903-2.443-.064-1.366-.971-2.325-2.218-2.322ZM62.904 28.117h-5.027c.065.87.369 1.574 1.12 1.965 1.121.582 2.18.377 3.172-.433l.467.647a3.415 3.415 0 0 1-1.785.91c-1.777.377-3.45-.67-3.831-2.385-.428-1.932.57-3.73 2.316-4.153 1.887-.456 3.529.815 3.57 2.77.007.21-.002.417-.002.679Zm-4.96-.821h4.032c-.101-1.12-.853-1.828-1.915-1.831-1.17-.003-2.03.734-2.117 1.831ZM57.314 16.904c-.019 1.955-1.398 3.34-3.295 3.309-1.898-.031-3.224-1.421-3.211-3.394.012-1.9 1.403-3.27 3.314-3.247 1.852.013 3.207 1.428 3.192 3.332Zm-5.556-.06c0 .72.177 1.258.572 1.713a2.312 2.312 0 0 0 2.546.65c.915-.336 1.484-1.228 1.488-2.336.007-1.41-.934-2.412-2.272-2.422-1.374-.01-2.332.973-2.337 2.396h.003ZM73.501 24.745c.992-.067.993-.068 1.37.782l2.035 4.59c.371-.972.722-1.884 1.071-2.799.295-.743.59-1.486.853-2.247.093-.265.214-.385.498-.351.224.013.448.013.672 0-.063.174-.105.297-.147.418-1.11 2.797-2.228 5.59-3.321 8.394-.133.339-.276.517-.649.446a3.202 3.202 0 0 0-.499 0c.049-.149.08-.255.122-.36.274-.675.564-1.338.815-2.025a.848.848 0 0 0-.018-.578c-.86-1.952-1.74-3.894-2.615-5.84-.065-.128-.118-.263-.187-.43ZM57.948 13.723h.872v1.021c.52-.615 1.055-.991 1.74-1.13 1.363-.276 2.393.418 2.545 1.807.088.82.062 1.653.074 2.48.01.715 0 1.43 0 2.17h-.935v-3.555c0-.16 0-.322-.007-.483-.049-1.087-.519-1.6-1.466-1.6-1.068 0-1.915.742-1.933 1.72-.016 1.163 0 2.325 0 3.488v.426h-.884l-.006-6.344ZM41.779 29.432l.48.595c-.527.94-2.07 1.47-3.334 1.15-1.342-.34-2.287-1.611-2.316-3.121-.031-1.61.828-2.917 2.186-3.326 1.32-.396 2.86.087 3.495 1.118l-.498.619c-.64-.678-1.376-1.118-2.334-.986a2.105 2.105 0 0 0-1.395.816c-.79.996-.71 2.585.171 3.467.94.94 2.098.838 3.545-.332ZM46.833 20.078h-.923v-5.48h-1.414v-.876h1.386V12.04h.939v1.664h1.59v.88h-1.578v5.494ZM71.927 20.082h-.856v-9.03h.856v9.03ZM49.96 20.075c-.085.009-.155.02-.226.022h-.647V13.73h.872v6.346ZM49.495 12.31c-.423 0-.667-.246-.669-.656-.001-.41.266-.68.693-.68.427 0 .703.27.697.678-.006.41-.29.665-.72.659Z"/></g><defs><clipPath id="a"><path fill="#fff" d="M0 0h80v34H0z"/></clipPath></defs></svg>