<svg width="24" height="33" fill="none" xmlns="http://www.w3.org/2000/svg"><path d="M13.055 5.558c.662.116 1.232.187 1.79.315A11.233 11.233 0 0 1 21.07 9.69a11.511 11.511 0 0 1 2.702 6.566c.038.446.064.892.07 1.338.01.483-.065.568-.52.635a11.558 11.558 0 0 1-5.08-.402 11.368 11.368 0 0 1-2.977-1.413 10.315 10.315 0 0 1-2.876-2.926 10.186 10.186 0 0 1-1.593-4.218c-.082-.547-.096-1.103-.147-1.719A9.877 9.877 0 0 0 5.69 9.91c-2.039 1.784-3.225 4.05-3.652 6.775.412.083.791.173 1.179.233.343.054.545.188.557.585a12.48 12.48 0 0 0 .682 3.743 24.36 24.36 0 0 0 1.525 3.398 12.341 12.341 0 0 0 3.545 4.141c.772.564 1.6 1.043 2.472 1.431.295.131.78-.08 1.14-.231a10.47 10.47 0 0 0 4.304-3.254c.642-.828 1.152-1.775 1.631-2.715.58-1.14.818-2.396.968-3.662.03-.248.115-.35.37-.326.304.03.61.04.916.027.364-.02.519.17.472.49-.148 1.011-.236 2.046-.516 3.021a12.995 12.995 0 0 1-3.341 5.59 11.82 11.82 0 0 1-5.078 3.08c-.387.115-.711-.022-1.055-.136-2.138-.71-3.897-2-5.38-3.672a22.112 22.112 0 0 1-1.93-2.515 15.398 15.398 0 0 1-1.661-3.411 14.279 14.279 0 0 1-.827-3.855.377.377 0 0 0-.232-.25c-.456-.148-.921-.25-1.381-.379a.472.472 0 0 1-.397-.372.483.483 0 0 1-.002-.192 12.966 12.966 0 0 1 1.651-5.598 12.5 12.5 0 0 1 3.21-3.724 12.063 12.063 0 0 1 4.863-2.283.915.915 0 0 1 .25-.055c.86.079 1.08-.485 1.294-1.178a9.23 9.23 0 0 1 2.833-4.29c.385-.337.434-.337.777 0 .2.198.393.406.58.617.279.316.279.457-.036.744a8.614 8.614 0 0 0-1.782 2.399c-.22.48-.415.972-.585 1.473Zm8.888 10.976c-.025-.134-.05-.24-.065-.346a10.424 10.424 0 0 0-1.546-4.204 9.918 9.918 0 0 0-3.855-3.554 9.489 9.489 0 0 0-3.41-.97c-.21-.023-.323.036-.318.277.043 1.867.54 3.596 1.63 5.108a8.972 8.972 0 0 0 4.053 3.14c1.127.446 2.29.58 3.51.549Z" fill="#000"/></svg>