<svg viewBox="0 0 148 6" fill="none" preserveAspectRatio="none" xmlns="http://www.w3.org/2000/svg">
<path transform="translate(0 -0.3)" d="M148.062 0.255859V2.36586C146.468 2.59586 144.858 2.77586 143.256 2.86586C138.159 3.16586 133.056 3.38253 127.948 3.51586C127.333 3.51586 126.718 3.51586 126.104 3.51586C123.575 3.51586 121.03 3.37586 118.493 3.37586H77.3038V3.04586C63.1557 3.36586 48.9989 3.64586 34.8767 4.04586C33.3528 4.04586 31.8549 4.80586 30.3223 5.11586C29.2343 5.34358 28.1357 5.49718 27.0321 5.57586C25.3783 5.70586 23.6812 5.83586 22.0014 5.81586H21.8542C20.6074 5.81586 19.3606 5.28586 18.1137 5.28586C15.9404 5.28586 13.7845 5.53586 11.5938 5.66586H9.72358C7.32515 5.66586 4.91807 5.80586 2.54562 5.56586C1.69179 5.49211 0.842013 5.36525 0 5.18586L0 0.255859H148.062Z" fill="currentColor"/>
</svg>
