<svg viewBox="0 0 7 58" fill="none" preserveAspectRatio="none" xmlns="http://www.w3.org/2000/svg">
<path d="M7.00002 0.0012207V57.1464C5.90703 56.9218 4.8494 56.4872 3.86569 55.8585C2.59106 54.944 2.06867 52.497 1.2433 50.7068C1.08659 50.359 1.17017 49.8696 1.03435 49.4961C-0.125355 46.0445 0.36569 42.6959 0.731361 39.1927C0.875342 36.4923 0.826397 33.7815 0.585093 31.0917C0.491063 27.9363 0.470167 24.7809 0.261212 21.6383C0.0731523 18.8564 0.449272 16.0874 0.0522568 13.2411C-0.177594 11.6569 0.428376 9.89247 0.68957 8.21817C0.856735 7.12344 1.09703 6.05446 1.2433 4.97261C1.60897 2.29372 2.61196 0.773975 4.82688 0.426235C5.55823 0.310322 6.26868 0.168651 7.00002 0.0012207Z" fill="currentColor"/>
</svg>
