<svg viewBox="0 0 148 6" fill="none" preserveAspectRatio="none" xmlns="http://www.w3.org/2000/svg">
<path transform="translate(0 0.8)" d="M148.01 5.25572H0V2.96572C2.29184 2.3403 4.64137 2.04141 6.99613 2.07572C10.676 2.34572 14.3992 1.85572 18.1051 1.72572L21.9582 1.62572C23.9929 1.54572 26.019 1.47572 28.0192 1.48572C55.7872 1.58572 83.5553 1.80572 111.323 1.80572C116.224 1.80572 121.134 1.59572 126.043 1.37572C129.368 1.22572 132.693 1.07572 136.018 0.97572C137.974 0.91572 139.931 1.16572 141.88 1.27572C142.685 1.27572 143.49 1.41572 144.287 1.39572C145.548 1.32631 146.81 1.54027 148.001 2.02572" fill="currentColor"/>
</svg>
