<svg viewBox="0 0 7 57" fill="none" preserveAspectRatio="none" xmlns="http://www.w3.org/2000/svg">
<path transform="translate(-0.6 0)" d="M6.33564 51.5325C6.25485 52.6438 5.90218 53.6841 5.33576 54.4819C4.76934 55.2796 4.023 55.7871 3.21978 55.9208C2.32063 56.1033 1.42149 56.2726 0.512897 56.4159L0.541992 0.848877C1.4009 1.29481 2.18589 1.97507 2.85009 2.84909C3.76737 4.04621 4.50046 5.4863 5.0056 7.0834C5.50449 8.68007 5.76125 10.401 5.76006 12.1401C5.75899 14.1783 6.03238 16.2036 6.08809 18.2418C6.15273 21.3122 6.16059 24.3826 6.14008 27.3876C6.13741 32.4961 5.69936 37.6959 6.13204 42.7525C6.31028 45.7576 6.76307 48.5538 6.33564 51.5325Z" fill="currentColor"/>
</svg>
