<svg width="20" height="20" viewBox="0 0 20 20" fill="none" xmlns="http://www.w3.org/2000/svg">
<path d="M2.8187 12.6695L2.5683 12.0524L4.11545 10.3622C4.20488 10.2638 4.29431 10.1565 4.39269 10.0402C4.49106 9.91504 4.58944 9.78984 4.68781 9.66464C4.78618 9.53943 4.85773 9.41423 4.92033 9.28903C4.97399 9.16382 5.00976 9.0565 5.00976 8.95813C5.00976 8.85976 4.98293 8.77033 4.93822 8.68984C4.8935 8.61829 4.8309 8.55569 4.74147 8.51098C4.65204 8.46626 4.54472 8.44837 4.41952 8.44837C4.30326 8.44837 4.19594 8.4752 4.08862 8.53781C3.98131 8.60041 3.88293 8.68984 3.7935 8.8061C3.70407 8.9313 3.61464 9.07439 3.53415 9.25325L2.57724 8.73455C2.68456 8.43943 2.83659 8.18008 3.0244 7.9565C3.22114 7.73293 3.44472 7.55407 3.71301 7.43781C3.97236 7.3126 4.25854 7.25 4.55366 7.25C4.86667 7.25 5.15285 7.32154 5.40326 7.44675C5.65366 7.57195 5.85936 7.75081 6.00244 7.98333C6.14553 8.21585 6.22602 8.48415 6.22602 8.78821C6.22602 8.89553 6.21708 9.00285 6.19025 9.11911C6.16342 9.23537 6.12765 9.35163 6.07399 9.47683C6.02033 9.60203 5.95773 9.73618 5.87724 9.87033C5.79675 10.0045 5.69838 10.1565 5.58212 10.3085C5.46586 10.4606 5.33171 10.6215 5.17074 10.7915L3.96342 12.0972L3.81139 11.5248H6.45854V12.6606H2.8187V12.6695Z" fill="black"/>
<path d="M7.49593 12.75C7.29023 12.75 7.12926 12.6963 7.013 12.5801C6.89674 12.4638 6.84308 12.2939 6.84308 12.0792C6.84308 11.8736 6.90568 11.7126 7.02194 11.5874C7.14714 11.4622 7.29918 11.3996 7.48698 11.3996C7.69267 11.3996 7.85365 11.4622 7.96991 11.5784C8.08617 11.6947 8.13983 11.8646 8.13983 12.0792C8.13983 12.276 8.07723 12.437 7.96096 12.5622C7.83576 12.6874 7.68373 12.75 7.48698 12.75H7.49593Z" fill="black"/>
<path d="M10.6082 12.7232C10.2057 12.7232 9.84799 12.6427 9.5171 12.4817C9.19515 12.3208 8.92685 12.0882 8.71222 11.7842L9.40084 11.024C9.60653 11.2476 9.80328 11.4086 9.97319 11.489C10.1521 11.5695 10.3488 11.6142 10.5634 11.6142C10.7244 11.6142 10.8675 11.5785 10.9927 11.5159C11.1179 11.4533 11.2163 11.3549 11.2878 11.2386C11.3594 11.1224 11.3951 10.9882 11.3951 10.8451C11.3951 10.7021 11.3594 10.559 11.2878 10.4427C11.2163 10.3264 11.1179 10.2281 10.9927 10.1565C10.8675 10.085 10.7244 10.0492 10.5634 10.0492C10.4472 10.0492 10.3399 10.0582 10.2415 10.076C10.1431 10.0939 10.0358 10.1297 9.91954 10.1744C9.80328 10.2191 9.66913 10.2907 9.5171 10.3801L8.97157 9.65571L9.29352 7.31262H12.3342V8.39474H9.90165L10.2325 7.97441L9.98214 9.65571L9.52604 9.50368C9.62441 9.41425 9.74068 9.3427 9.87482 9.2801C10.0179 9.2175 10.161 9.16384 10.322 9.11913C10.483 9.07441 10.6439 9.05653 10.8049 9.05653C11.1358 9.05653 11.4399 9.13701 11.6992 9.28905C11.9675 9.44108 12.1732 9.65571 12.3342 9.93295C12.4862 10.2012 12.5667 10.5142 12.5667 10.872C12.5667 11.2297 12.4773 11.5338 12.2984 11.811C12.1195 12.0882 11.887 12.3118 11.5919 12.4817C11.2968 12.6427 10.9569 12.7232 10.5724 12.7232H10.6082Z" fill="black"/>
<path d="M13.1212 12.6695L14.7399 10.4158L15.3927 11.1939L14.552 12.6695H13.1212ZM16.0008 12.6695L15.1423 11.3728L14.7488 10.8183L13.1569 8.64511H14.6146L15.4374 9.87926L15.8667 10.4695L17.4317 12.6695H15.9919H16.0008ZM15.7773 10.9167L15.1334 10.1476L15.9293 8.64511H17.3602L15.7773 10.9167Z" fill="black"/>
</svg>
