<svg width="20" height="20" viewBox="0 0 20 20" fill="none" xmlns="http://www.w3.org/2000/svg">
<path d="M5.98844 12.75L5.73431 12.1238L7.30445 10.4084C7.39521 10.3086 7.48596 10.1997 7.5858 10.0817C7.68563 9.95462 7.78547 9.82756 7.8853 9.7005C7.98514 9.57343 8.05775 9.44637 8.12128 9.31931C8.17573 9.19224 8.21204 9.08333 8.21204 8.9835C8.21204 8.88366 8.18481 8.7929 8.13943 8.71122C8.09405 8.63861 8.03052 8.57508 7.93976 8.5297C7.849 8.48432 7.74009 8.46617 7.61303 8.46617C7.49504 8.46617 7.38613 8.4934 7.27722 8.55693C7.16831 8.62046 7.06847 8.71122 6.97771 8.82921C6.88695 8.95627 6.79619 9.10148 6.71451 9.283L5.74339 8.7566C5.8523 8.4571 6.00659 8.1939 6.19719 7.967C6.39686 7.7401 6.62375 7.55858 6.89603 7.44059C7.15923 7.31353 7.44966 7.25 7.74917 7.25C8.06682 7.25 8.35725 7.32261 8.61138 7.44967C8.8655 7.57673 9.07425 7.75825 9.21946 7.99422C9.36468 8.2302 9.44636 8.50248 9.44636 8.81106C9.44636 8.91997 9.43728 9.02888 9.41006 9.14686C9.38283 9.26485 9.34652 9.38284 9.29207 9.5099C9.23761 9.63696 9.17408 9.7731 9.0924 9.90924C9.01072 10.0454 8.91088 10.1997 8.79289 10.354C8.67491 10.5083 8.53877 10.6716 8.3754 10.8441L7.15016 12.1691L6.99587 11.5883H9.68233V12.7409H5.98844V12.75Z" fill="black"/>
<path d="M9.89111 12.75L11.5339 10.4629L12.1964 11.2525L11.3433 12.75H9.89111ZM12.8136 12.75L11.9423 11.434L11.5429 10.8713L9.92742 8.66583H11.4068L12.2418 9.91831L12.6774 10.5173L14.2657 12.75H12.8045H12.8136ZM12.5867 10.9711L11.9332 10.1906L12.7409 8.66583H14.1931L12.5867 10.9711Z" fill="black"/>
</svg>
