<svg width="20" height="21" viewBox="0 0 20 21" fill="none" xmlns="http://www.w3.org/2000/svg">
<g clip-path="url(#clip0_638_85661)">
<path d="M2.24961 13.1027C1.77253 13.1027 1.36745 12.9947 1.02539 12.7786C0.683329 12.5626 0.431282 12.2475 0.25125 11.8335C0.0712168 11.4284 -0.0187988 10.9333 -0.0187988 10.3572C-0.0187988 9.78109 0.0712168 9.295 0.25125 8.88092C0.431282 8.46685 0.683329 8.16079 1.02539 7.93575C1.36745 7.71971 1.77253 7.61169 2.24961 7.61169C2.7267 7.61169 3.13177 7.71971 3.47384 7.93575C3.8159 8.15179 4.07695 8.46685 4.24798 8.88092C4.42801 9.286 4.51803 9.78109 4.51803 10.3572C4.51803 10.9333 4.42801 11.4194 4.24798 11.8335C4.06795 12.2385 3.8069 12.5536 3.47384 12.7786C3.14078 13.0037 2.7267 13.1027 2.24961 13.1027ZM2.24961 12.0045C2.58267 12.0045 2.83472 11.8605 3.01475 11.5814C3.19478 11.2934 3.2848 10.8883 3.2848 10.3662C3.2848 9.8441 3.19478 9.40302 3.01475 9.11497C2.83472 8.82692 2.58267 8.67389 2.24961 8.67389C1.91655 8.67389 1.66451 8.81791 1.48447 9.11497C1.30444 9.40302 1.21442 9.8261 1.21442 10.3662C1.21442 10.9063 1.30444 11.3024 1.48447 11.5814C1.66451 11.8695 1.91655 12.0045 2.24961 12.0045Z" fill="black"/>
<path d="M5.80525 13.1117C5.59821 13.1117 5.43618 13.0577 5.31916 12.9407C5.20214 12.8236 5.14813 12.6526 5.14813 12.4366C5.14813 12.2295 5.21114 12.0675 5.32816 11.9415C5.45419 11.8155 5.60721 11.7524 5.79625 11.7524C6.00329 11.7524 6.16532 11.8155 6.28234 11.9325C6.39936 12.0495 6.45337 12.2205 6.45337 12.4366C6.45337 12.6346 6.39036 12.7966 6.27334 12.9227C6.15632 13.0487 5.99428 13.1117 5.79625 13.1117H5.80525Z" fill="black"/>
<path d="M7.42556 13.0307L9.55895 8.1698L9.92802 8.78191H7.13751V7.65671H10.6121L10.7382 8.27782L8.7218 13.0397H7.42556V13.0307Z" fill="black"/>
<path d="M13.1506 13.0847C12.7455 13.0847 12.3855 13.0037 12.0524 12.8416C11.7283 12.6796 11.4493 12.4456 11.2422 12.1395L11.9354 11.3744C12.1424 11.5994 12.3404 11.7615 12.5115 11.8425C12.6915 11.9235 12.8895 11.9685 13.1056 11.9685C13.2676 11.9685 13.4116 11.9325 13.5377 11.8695C13.6637 11.8065 13.7627 11.7074 13.8347 11.5904C13.9067 11.4734 13.9427 11.3384 13.9427 11.1943C13.9427 11.0503 13.9067 10.9063 13.8347 10.7893C13.7627 10.6723 13.6637 10.5732 13.5377 10.5012C13.4116 10.4292 13.2676 10.3932 13.1056 10.3932C12.9886 10.3932 12.8805 10.4022 12.7815 10.4202C12.6825 10.4382 12.5745 10.4742 12.4575 10.5192C12.3405 10.5642 12.2054 10.6362 12.0524 10.7263L11.5033 9.99713L11.8274 7.6387H14.8969V8.7279H12.4485L12.7815 8.30482L12.5295 9.99713L12.0704 9.8441C12.1694 9.75409 12.2864 9.68207 12.4215 9.61906C12.5655 9.55605 12.7095 9.50204 12.8715 9.45703C13.0336 9.41202 13.1956 9.39402 13.3576 9.39402C13.6907 9.39402 13.9968 9.47504 14.2578 9.62806C14.5278 9.78109 14.7349 9.99713 14.8969 10.2762C15.0499 10.5462 15.131 10.8613 15.131 11.2214C15.131 11.5814 15.0409 11.8875 14.8609 12.1665C14.6809 12.4456 14.4468 12.6706 14.1408 12.8416C13.8347 13.0127 13.5017 13.0847 13.1236 13.0847H13.1506Z" fill="black"/>
<path d="M15.6801 13.0307L17.3094 10.7622L17.9665 11.5454L17.1203 13.0307H15.6801ZM18.5786 13.0307L17.7144 11.7254L17.3184 11.1673L15.7161 8.97992H17.1833L18.0115 10.2221L18.4436 10.8163L20.0188 13.0307H18.5696H18.5786ZM18.3535 11.2663L17.7054 10.4922L18.5066 8.97992H19.9468L18.3535 11.2663Z" fill="black"/>
</g>
<defs>
<clipPath id="clip0_638_85661">
<rect width="20" height="20" fill="white" transform="translate(0 0.666687)"/>
</clipPath>
</defs>
</svg>
