<svg width="20" height="21" viewBox="0 0 20 21" fill="none" xmlns="http://www.w3.org/2000/svg">
<path d="M4.34672 13.4167C3.86885 13.4167 3.46311 13.3085 3.12049 13.0921C2.77786 12.8757 2.5254 12.5601 2.34508 12.1454C2.16475 11.7396 2.07458 11.2437 2.07458 10.6667C2.07458 10.0896 2.16475 9.60275 2.34508 9.188C2.5254 8.77324 2.77786 8.46669 3.12049 8.24128C3.46311 8.02488 3.86885 7.91669 4.34672 7.91669C4.82458 7.91669 5.23032 8.02488 5.57295 8.24128C5.91557 8.45767 6.17704 8.77324 6.34836 9.188C6.52868 9.59374 6.61885 10.0896 6.61885 10.6667C6.61885 11.2437 6.52868 11.7306 6.34836 12.1454C6.16803 12.5511 5.90655 12.8667 5.57295 13.0921C5.23934 13.3175 4.82458 13.4167 4.34672 13.4167ZM4.34672 12.3167C4.68032 12.3167 4.93278 12.1724 5.11311 11.8929C5.29344 11.6044 5.3836 11.1987 5.3836 10.6757C5.3836 10.1528 5.29344 9.71095 5.11311 9.42242C4.93278 9.1339 4.68032 8.98062 4.34672 8.98062C4.01311 8.98062 3.76065 9.12488 3.58032 9.42242C3.39999 9.71095 3.30983 10.1347 3.30983 10.6757C3.30983 11.2167 3.39999 11.6134 3.58032 11.8929C3.76065 12.1814 4.01311 12.3167 4.34672 12.3167Z" fill="black"/>
<path d="M7.9082 13.4167C7.70082 13.4167 7.53852 13.3626 7.42131 13.2454C7.3041 13.1282 7.25 12.9568 7.25 12.7405C7.25 12.5331 7.31311 12.3708 7.43033 12.2445C7.55656 12.1183 7.70984 12.0552 7.89918 12.0552C8.10656 12.0552 8.26885 12.1183 8.38607 12.2355C8.50328 12.3527 8.55738 12.5241 8.55738 12.7405C8.55738 12.9388 8.49426 13.1011 8.37705 13.2273C8.25082 13.3536 8.09754 13.4167 7.89918 13.4167H7.9082Z" fill="black"/>
<path d="M11.0459 13.3896C10.6402 13.3896 10.2795 13.3085 9.94594 13.1462C9.62135 12.9839 9.35085 12.7495 9.13446 12.4429L9.82872 11.6765C10.0361 11.9019 10.2345 12.0642 10.4058 12.1454C10.5861 12.2265 10.7845 12.2716 11.0009 12.2716C11.1631 12.2716 11.3074 12.2355 11.4336 12.1724C11.5599 12.1093 11.6591 12.0101 11.7312 11.8929C11.8033 11.7757 11.8394 11.6405 11.8394 11.4962C11.8394 11.3519 11.8033 11.2077 11.7312 11.0905C11.6591 10.9732 11.5599 10.8741 11.4336 10.8019C11.3074 10.7298 11.1631 10.6937 11.0009 10.6937C10.8836 10.6937 10.7754 10.7028 10.6763 10.7208C10.5771 10.7388 10.4689 10.7749 10.3517 10.82C10.2345 10.8651 10.0992 10.9372 9.94594 11.0273L9.39594 10.297L9.72053 7.93472H12.7951V9.02571H10.3427L10.6763 8.60194L10.4238 10.297L9.96397 10.1437C10.0631 10.0536 10.1804 9.98144 10.3156 9.91833C10.4599 9.85521 10.6041 9.80112 10.7664 9.75603C10.9287 9.71095 11.091 9.69292 11.2533 9.69292C11.5869 9.69292 11.8935 9.77407 12.155 9.92735C12.4254 10.0806 12.6328 10.297 12.7951 10.5765C12.9484 10.847 13.0295 11.1626 13.0295 11.5232C13.0295 11.8839 12.9394 12.1905 12.7591 12.47C12.5787 12.7495 12.3443 12.9749 12.0377 13.1462C11.7312 13.3175 11.3976 13.3896 11.0189 13.3896H11.0459Z" fill="black"/>
<path d="M13.5795 13.3355L15.2115 11.0634L15.8697 11.8478L15.0222 13.3355H13.5795ZM16.4828 13.3355L15.6172 12.0282L15.2205 11.4692L13.6156 9.27817H15.0853L15.9148 10.5224L16.3476 11.1175L17.9254 13.3355H16.4738H16.4828ZM16.2574 11.5683L15.6082 10.7929L16.4107 9.27817H17.8533L16.2574 11.5683Z" fill="black"/>
</svg>
