<svg width="20" height="21" viewBox="0 0 20 21" fill="none" xmlns="http://www.w3.org/2000/svg">
<path d="M3.7214 12.9576V8.62782L4.00045 9.27593L2.85724 9.81603L2.6322 8.65482L4.15348 7.91669H4.99063V12.9576H3.7214ZM2.74922 13.3357V12.1925H5.99881V13.3357H2.74922Z" fill="black"/>
<path d="M7.35811 13.4167C7.15107 13.4167 6.98904 13.3627 6.87202 13.2456C6.755 13.1286 6.70099 12.9576 6.70099 12.7416C6.70099 12.5345 6.764 12.3725 6.88102 12.2465C7.00705 12.1204 7.16007 12.0574 7.34911 12.0574C7.55615 12.0574 7.71817 12.1204 7.8352 12.2375C7.95222 12.3545 8.00623 12.5255 8.00623 12.7416C8.00623 12.9396 7.94321 13.1016 7.82619 13.2276C7.70017 13.3537 7.54714 13.4167 7.34911 13.4167H7.35811Z" fill="black"/>
<path d="M10.4997 13.3897C10.0946 13.3897 9.73452 13.3087 9.40146 13.1466C9.0774 12.9846 8.80735 12.7506 8.59131 12.4445L9.28444 11.6794C9.49147 11.9044 9.68951 12.0664 9.86054 12.1475C10.0406 12.2285 10.2386 12.2735 10.4546 12.2735C10.6167 12.2735 10.7607 12.2375 10.8867 12.1745C11.0127 12.1115 11.1118 12.0124 11.1928 11.8954C11.2648 11.7784 11.3008 11.6434 11.3008 11.4993C11.3008 11.3553 11.2648 11.2113 11.1928 11.0943C11.1208 10.9772 11.0218 10.8782 10.8957 10.8062C10.7697 10.7342 10.6257 10.6982 10.4637 10.6982C10.3466 10.6982 10.2386 10.7072 10.1396 10.7252C10.0406 10.7432 9.93255 10.7792 9.81553 10.8242C9.69851 10.8692 9.56349 10.9412 9.41046 11.0313L8.86136 10.3021L9.18542 7.9437H12.255V9.03289H9.80653L10.1396 8.60982L9.88754 10.3021L9.42846 10.1491C9.52748 10.0591 9.6445 9.98707 9.77952 9.92406C9.92355 9.86104 10.0676 9.80703 10.2296 9.76203C10.3916 9.71702 10.5537 9.69901 10.7157 9.69901C11.0488 9.69901 11.3548 9.78003 11.6159 9.93306C11.8859 10.0861 12.0929 10.3021 12.255 10.5812C12.408 10.8512 12.489 11.1663 12.489 11.5263C12.489 11.8864 12.399 12.1925 12.219 12.4715C12.0389 12.7506 11.8049 12.9756 11.4988 13.1466C11.2018 13.3087 10.8597 13.3897 10.4817 13.3897H10.4997Z" fill="black"/>
<path d="M13.0291 13.3356L14.6584 11.0672L15.3155 11.8504L14.4693 13.3356H13.0291ZM15.9276 13.3356L15.0634 12.0304L14.6674 11.4723L13.0651 9.28491H14.5323L15.3605 10.5271L15.7926 11.1212L17.3678 13.3356H15.9186H15.9276ZM15.7025 11.5713L15.0544 10.7972L15.8556 9.28491H17.2958L15.7025 11.5713Z" fill="black"/>
</svg>
