<svg width="20" height="20" viewBox="0 0 20 20" fill="none" xmlns="http://www.w3.org/2000/svg">
<path d="M7.59037 12.75C7.15473 12.75 6.77354 12.6592 6.44681 12.4777C6.12008 12.2962 5.82965 11.9785 5.55737 11.5338L6.49219 10.9257C6.6011 11.1073 6.71909 11.2525 6.84615 11.3523C6.96414 11.4612 7.0912 11.5338 7.22734 11.5883C7.36348 11.6427 7.49054 11.6609 7.63576 11.6609C7.78097 11.6609 7.90803 11.6246 8.0351 11.5611C8.15308 11.4975 8.25292 11.4068 8.32552 11.2888C8.39813 11.1708 8.43443 11.0347 8.43443 10.8894C8.43443 10.7351 8.39813 10.599 8.3346 10.4901C8.27107 10.3812 8.18031 10.2995 8.06232 10.245C7.94434 10.1906 7.79912 10.1634 7.62668 10.1634C7.55407 10.1634 7.46331 10.1634 7.38163 10.1906C7.29087 10.2087 7.20011 10.236 7.10028 10.2632C7.00044 10.2904 6.90061 10.3358 6.80077 10.3903L6.51942 9.62789L7.82635 8.20297L8.18031 8.39356L5.93856 8.34818V7.25H9.24219L9.47817 7.72195L7.69929 9.62789L7.39071 9.26485C7.39071 9.26485 7.49962 9.22855 7.59037 9.2104C7.68113 9.19224 7.7719 9.18317 7.86265 9.18317C8.1077 9.18317 8.32553 9.22855 8.54335 9.31023C8.76117 9.39191 8.94269 9.51898 9.10605 9.67327C9.26942 9.82756 9.39648 10.0091 9.48724 10.2178C9.578 10.4266 9.62338 10.6444 9.62338 10.8804C9.62338 11.2434 9.53262 11.5611 9.3511 11.8333C9.16958 12.1147 8.92453 12.3325 8.61595 12.4959C8.30737 12.6592 7.96249 12.7409 7.5813 12.7409L7.59037 12.75Z" fill="black"/>
<path d="M10.0681 12.6683L11.7108 10.3812L12.3733 11.1708L11.5202 12.6683H10.0681ZM12.9905 12.6683L12.1192 11.3523L11.7199 10.7896L10.1044 8.58417H11.5837L12.4187 9.83664L12.8544 10.4357L14.4426 12.6683H12.9814H12.9905ZM12.7636 10.8894L12.1101 10.1089L12.9179 8.58417H14.37L12.7636 10.8894Z" fill="black"/>
</svg>
