<svg xmlns="http://www.w3.org/2000/svg" viewBox="0 0 365.37 3.01" preserveAspectRatio="xMinYMin slice"><path d="M362.25.13C288.33.29 206.61.08 143.39.42c-29.82.05-58.44.02-86.4.03C42.64.45 23.32.46 9.52.43 2.69-.51 5.62.57 0 0v2.49c.27-.29 3.23.01 7.25.17 11.24.01 19.95.26 29.3.33 18.42-.06 33 .02 46.08 0 23.01.12 42.61-.12 60.68.02 50.64-.29 118.61-.13 169.11-.16 10.96-.11 33.24.1 50.92.01.12-.1 1.85.3 1.75-.4.24-.46.2-1.39.28-1.98-1.01-.77-2.19-.3-3.12-.34Z"/><path d="M8.35 1.07c-2.13 0-1.88-.11.4-.15 2.67-.08.97.17-.4.15ZM13.89 2.25c-1.65.18-5.25-.08-2.9-.33 1.54 0 3.78.27 2.9.33ZM14.73 2.38h3.16c-.3.12-3.52.4-3.16 0ZM17 2.69c.09-.06.64-.09 1.18-.09 2.28 0-.72.2-1.18.09ZM26.65 2.37c0-.13.57-.26 1.28-.26 2.32-.13-1.76.76-1.28.26ZM30.88 1.72c-.39 0-.47-.12-.08-.16.48-.07 1.58.18.08.16ZM37.24 2.72c-.64-.04-.61-.21.03-.22.56-.01.73.25-.03.22ZM39.04 2.74c-.3-.04-.1-.06.52-.05.83.02-.47.12-.52.05ZM43.04.84c-.47-.05.3-.3 1.09-.26 1.14.07-.93.28-1.09.26ZM47.93.77c.21 0 1.61.04 1.61.09-.21.27-2.71-.11-1.61-.09ZM51.73 1.77c-.29.03-1.25-.03-.51-.04.43 0 .71.02.51.04ZM52.35.75c.11-.01.53-.14.69-.14 1.01.03-.92.2-.69.14Z"/><path d="M52.89.84s.49-.24.9-.23c1.53-.01-1.24.28-.9.23ZM55.89 1.34c-.42.03-.43-.04 0-.05s.42.04 0 .05ZM60.36 1.07c.26-.02.56-.03.66-.02-.26.06-1.99.13-.66.02ZM64.63 2.72c-.57-.01-.5-.04.12-.05.55-.01.52.08-.12.05ZM68.87.93c-.06-.18 1.84.38 1.96.39-.15 0-2.9-.31-1.96-.39ZM81.39.54c.06.04.3-.03.52-.03 1.06-.01.4.57-.52.03ZM86.32 2.75c-.75.04-1.19-.25-.72-.3.85 0 1.38.28.72.3ZM85.99 1.56c.05-.02 1.55-.03 1.6 0-.16 0-1.15.55-1.6 0ZM93.93 1.81c.9-.5 1.03-.04 1.19 0-.12 0-1.08.03-1.19 0ZM99.37 1.06S97.43.99 97.55.93c-.02 0 2.69-.48 1.82.13ZM100.99 2.11c-.42-.01-.62-.29-.19-.3 1.69.07.61.33.19.3ZM113.37.65s.07-.02.47 0c1.29.07.56.63-.47 0ZM120.37 2.73c-.13.06-1.77.06-.69-.01.6-.03.89-.03.69.01ZM119.56 1.46c1.09-.33 2.94.01 3.1 0 .7.02-2.86.05-3.1 0ZM124.62 1.3c.63-.01-.2.31-.88.29-.63-.03.25-.29.88-.29ZM125.4 2.1s-1.13.05-1 0c.01 0 1.64-.34 1 0ZM126.85 2.64c.29 0 .69.05.69.08-.04.02-1.68.02-.69-.08ZM130.05.77c.17-.01.7.28 1.01.4-.51-.11-1.68-.35-1.01-.4ZM131.25 1.23s-.1-.02-.18-.06c.1.03.17.04.2.06h-.02ZM140.73 2.72c.39-.01.71-.01.83 0-.12.03-2.47.12-.83 0ZM140.99 1.36c.06 0 .37-.42.44-.42 1.39 0 2.07.34-.44.42ZM181.68.47c.61-.04 1.09.01 1.09.06.13.09-2.22-.01-1.09-.06ZM153.02 2.71c-.38-.03-.08-.52.41-.49 3.74.11-.27.51-.41.49ZM161.89.65s.15-.04.32-.05c.87-.03-.3.14-.32.05ZM165.34 2.59c-.68-.01-3.06-.4-1.3-.43.25-.01 2.35.43 1.3.43ZM167.29 2.42l1.6.24c-1.03.17-2.89-.21-1.6-.24ZM184.97 2.66c-.16.01-4.68-.26-4.06-.3 1.21-.53 4.68.25 4.06.3ZM209.92.79c.08 0 1.44-.05 1.46.02 0 .05-1.5 0-1.46-.02ZM221.89 2.54l-.1-.06c-.51-.14-1.95-.47-.83-.48l.83.48c.16.04.23.07.1.06ZM221.49.7c.48-.02 1.27.4 1.42.42.06.07-3.19-.34-1.42-.42ZM228.14 2.56h.57c-.01.08-.52.01-.57 0ZM230.39 2.5s1.13-.22.99 0c0 .03-1.13.11-.99 0ZM234.96 2.41h.79c.84.25-2.33-.02-.79 0ZM237.6 1.92c.25-.07.54-.14.66-.07.47.31-2.04.64-.66.07ZM245.28 2.26c.4.54-1.22-.32 0-.29.88.16.32.11 0 .29ZM258.34 2.57c.24-.01.62 0 .86.01 1.26.04-1.54.03-.86-.01ZM262.58 2.24c.15.04.61.01.79.22.23.24-2.15.12-.79-.22ZM263.71 1.25s.24-.34.54-.34c.99-.03-.52.42-.54.34ZM264.83 2.2c.31-.06.48-.06.79 0 .88.07-1.66.07-.79 0ZM265.81 1.88c.22-.24.9-.3 1.02-.5.68.41-.8.45-1.02.5ZM268.03 2.23c-.63.21-.63 0 0-.15.65-.2.64 0 0 .15ZM275.56.76c.39.12.8-.31 1.22.14-.11.53-3.05-.22-1.22-.14ZM281.25 2.56s1.17-.3 1.49-.3c.92.03-.11.48-1.49.3ZM288.65 2.03c-.19.49-2.93.36-2.57.29 1.35-.26 2.92-1.15 2.57-.29ZM293.23.71c.05-.08.28-.21.49-.21 1.24-.15-.84.61-.49.21ZM298.68 1.56c-.55.17-1.18-.34-.09-.39.23-.11.66.33.09.39ZM300.59 2.29c.17-.03 1.17-.07.68.06-.11.06-1.45.01-.68-.06ZM301.31 2.64c-.15.02-.24.02-.47 0-.94-.07.99-.05.47 0ZM304.79 1.43c-.78-.02-.17-.39.65-.37.81.03.11.38-.65.37ZM307.47.94c-1.09.37-1.42.45-.85.07.27-.35 1.95-.54.85-.07ZM313.43 1c-.42.01-.43-.15 0-.16.43.01.42.17 0 .16ZM314.04.57c.09-.01.03-.18.29-.18 1.35.06-.23.2-.29.18ZM332.24 2.07c.11-.08 1.05-.18 1.15 0 .13.05-1.37.2-1.15 0ZM341.5 2.59c-.42.01-.43-.32 0-.29.43-.03.42.3 0 .29ZM363.59.67s.09.05.09.15c.11.4-.51-.17-.09-.15ZM359.64.58c.35-.08 1.12-.12 1.2-.09.58.1-2.65.26-1.2.09ZM362.39 1.94c-.46.26-1.06 1.02-.57 0 .18-.18 1.19-.38.57 0ZM362.81.89c-.24-.12-.3-.19-.06-.19.4 0 .54.55.06.19ZM363.36 2.26c0-.12 0-.15.14-.04.94.22-.49.29-.14.04ZM364.39 2.44c-.09-.04-.13-.17-.04-.34.14-.13.26.56.04.34ZM364.49 1.51c0-.11.05-.14.09-.07.19.25-.08.3-.09.07Z"/></svg>