<svg xmlns="http://www.w3.org/2000/svg" viewBox="0 0 124 70" fill="none"><path fillRule="evenodd" d="M123.471 12.923v-2.341h-.293v-.585h-.292l-.293-1.756-.585-.293v-.585l-1.17-.878v-.585l-.585-.585h-.586l-.292-.585h-.585l-.293-.585h-.585v-.293l-1.17-.293v-.293l-1.756-.293v-.293h-1.463c-.427-.134-1.755-.549-2.633-.293v.293h-1.756v.293l-1.755.293v.293h-.586v.293h-.877v.293h-.585v.293h-.586l-.877 1.17h-.586v.293l-.877.585v.585l-.586.293-.292 1.17-.878.585-.293 1.17h-.292c-.756 1.865-.683 6.51.585 7.607v.585l-2.926 1.17v.293h-.585l-.293.585-1.17.293-.293.585h-.878v.293h-.585v.293h-.585l-.293.585-1.17.293-.293.585h-.585l-.293.585-.878.293-.293.293-.293-.585-.878-.293v-.293l-1.17-.293v-.293h-.585v-.293h-.585v-.293c-.622-.329-1.268.012-2.048-.293v-.293h-.585l-.293-.585h-2.926c-2.402.012-6.449.89-7.315 2.341-3.023-.402-4.389-2.731-6.73-3.804.085-1.731 1.182-3.438.585-5.559h-.293v-2.341h-.293v-.585h-.293v-.878l-.878-.585v-.585h-.293v-.585h-.293l-.293-.878c-.756-.219-.939-.463-1.463-.878v-.293h-.585l-.293-.585h-.585v-.293l-1.17-.293v-.293h-.878V4.73h-1.17v-.293h-.585v-.293c-1.122-.402-5.632.012-6.437.293v.293l-1.756.293-.293.585h-.585l-.293.585h-.585l-1.463 1.756-.878.293v.585l-.585.293-.292 1.17h-.293l-.585 1.755h-.293v1.17c-.536 1.67-.037 3.609.585 4.974l-1.463.878-.585.878-1.756.585-.585.878-1.756.585-.293.585h-.585l-.585.878h-.585l-.293.585-1.17.293-.293.585h-.585l-.292.585h-.585l-.293.585h-.585l-.293.585h-.585v.293h-.585v.293l-.878.293v.585c-1.426.171-1.39.792-2.926.878v-.585c-.658-.183-.719-.244-1.17-.585v-.293l-1.17-.293v-.293l-1.756-.585v-.293l-1.755-.293v-.293h-.293v-.585h.293v-1.756h.293c.073-.366-.293-.585-.293-.585v-.293h.293v-4.096h.293v-3.511c.183-.329 1.695-.634 2.048-.878l.585-.878 1.755-1.463v-.585c.451-.853 1.353-2.463.878-4.096h-.293V5.315h-.293c-.012-.731 0-1.061-.293-1.463h-.292c-.5-.756.305-.585-.878-.878-.183-.731-.146-.488-.585-.878v-.293h-.585l-.293-.585h-.878l-.293-.585-1.463-.293V.049l-3.511.293v.293h-1.17v.293h-.585l-.293.585h-.585c-.927.61-2.341 1.963-2.633 3.218h-.293v1.17h-.293c-.744 2.243.695 4.852 1.463 6.437l.878.293v.585c.927.244 1.061.67 2.048.878l-.293 7.315c0 1.085.244 2.901-.293 3.511v.293l-1.463-.293v.293l-1.755.293v.293h-.878v.293h-.585v.293h-.878l-.293.585h-.878l-.293.585h-.585l-.293.585c-.451.378-1.426 1.012-2.048 1.17-.183.646-.244.719-.585 1.17h-.293l-.293 1.17-1.17.878v.878h-.293l-.293 1.17h-.293c-.28.658-.89 4.767-.585 5.852h.293v2.048h.293v.585h.293v.585h.293l.585 1.756.585.293v.585l1.463 1.17v.585l.585.585h.585l.878 1.17h.585l.293.585h.878l.293.585 1.17.293v.293h1.463v.293h1.463v.293l6.144-.293v-.293h2.048l.293-.585h.878c1.475-.67 4.206-2.743 4.974-4.096l3.511 1.17.293.585h.878v.293h.585v.292l2.633.878v.293l1.756.293c.707.305.927.78 2.048.878-.073 1.402-.805 3.548-.293 5.267h.293v1.17l.585.293v1.756h.293l.585 1.755h.293v.585l.585.293v.585l.878.585v.585l.585.293v.585l1.463.878.585.878 2.633.878v.293h.585v.293h.878v.293h.585v.293l4.389.293V69.1h2.926v-.293h.585v-.293h.878v-.293l1.756-.585v-.293l1.17-.293.293-.585h.585l.585-.878 2.048-1.755v-.585l.585-.293v-.585l.585-.293V61.2h.292v-.585h.293v-.878h.293l.293-2.633h.293V52.13h-.293c-.476-1.317-.817-2.17-.878-3.804.987-.207 1.414-.646 2.048-1.17v-.293c.865-.622 1.463-.549 1.755-1.755h.585c.183-.707.317-.646.585-1.17.768.207.939.463 1.463.878v.293l1.17.293v.293h1.17l.293.585 2.926.293v.292h.878v.293l7.022-.878c.183.817.451 1.207.878 1.755h.293v.585l.585.293v.585l.585.293c.341.524 0 .658.585 1.17-.097.646-.012.768-.293 1.17h-.293v.585l-.585.293c-.524.829-1.378 3.853-.878 5.559h.293l.293 2.048h.293l.585 1.755 2.048 1.756.293.585 1.17.293v.293l2.048.293c.646.207 2.719.634 3.804.293l4.682-2.341.293-.585 1.17-.878v-.585l.585-.292.293-1.17h.292v-.878h.293v-1.17c.146-.439.549-1.756.293-2.633h-.293v-1.463h-.293V53.3h-.292l-.585-1.755-1.756-1.463-.293-.585h-.585l-.292-.585h-.878v-.293c-.768-.378-3.755-1.439-4.682-.585h-2.048v-.293l-.585-.293v-.585l-.585-.292c-.731-1.085-.939-2.231-2.048-2.926.134-.89.183-.939.585-1.463h.293v-.585l.585-.293v-.585l.585-.293.585-1.756h.293v-.878h.293v-1.17h.293v-2.341h.293c.293-1.036-.475-3.426-.878-3.804.012-.707-.085-1.439.293-1.756l1.756-.585.585-.878 1.755-.585.293-.585 1.463-.293.293-.585h.585l.292-.585 1.171-.293.292-.585c.634-.415 1.244-.732 2.049-.878v-.293c.682.341 1.316.488 2.048.878v.293h.585v.293h.878c.78.293 4.62 1.256 5.851.878 3.963-1.219 7.864-3.389 9.656-6.73v-.878h.292v-.585h.293l.293-3.804h-.293zm-25.163 39.5c.926-.183 1.658-.427 2.341.293l.585.293v2.048h-.292l-.293.878c-1.646.012-1.951-.073-2.926-.585 0-1.804.305-1.768.585-2.926zM64.661 21.408c.341.183.427.488.585.585h.585v.293h.585l.293.585h.585l.293.585h.585l.293.585c.634.415 1.243.707 2.048.878v.293c-.293.219-.28.354-.585.585-.329.329 0 .122-.585.293-.305-.378-.512-.305-.878-.585v-.293h-.585l-.585-.878h-.585l-.293-.585h-.293l-.293-.585h-.585l-.585-.878h-.585l.585-.878zM59.101 9.412c1.646 0 1.719.341 2.633.878v1.463l-1.755.293v-.293c-1-.28-.549-.378-1.17-.878l.292-1.463zM29.257 30.186v-.293h.585l.293-.585h.585l.293-.585 1.17-.293.293-.585.878-.293v-.293l1.17-.293.585-.878h.585l.293-.585 1.17-.293.585-.878 1.17-.293.585-.878 1.17-.293.293-.585h.585l.293-.585c.634-.427 1.243-.719 2.048-.878.329-.329 0-.122.585-.293a2.03 2.03 0 0 0 .878.878v.585c-.768.207-1.524.695-2.048 1.17l-.293.585-1.17.293-.293.585-1.17.293-.293.585-.878.293v.293l-1.17.293-.293.585h-.585l-.585.878h-.585l-.293.585-.878.293v.293h-.585l-.293.585-1.17.293-.293.585h-.585l-.293.585h-.585c-.817.463-1.109 1.036-2.341 1.17-.195-.805-.39-.671-.585-1.463.658-.183.732-.244 1.17-.585zM12.58 8.827c.012-1.987.329-3.499 1.17-4.681.439-.622 1.329-.805 1.755-1.463h.878V2.39c1.463 0 3.011-.146 4.096.293v.293h.878l.585.878h.585c.183.122.232.39.585.585.232.902 1.475 2.853.585 3.804-.061 2.414-1.451 2.609-2.341 4.096-1.024.22-2.792 1.134-4.389.585v-.293h-.585v-.293c-.658-.317-.317.293-.878-.293-1.792-.475-1.768-2.182-2.926-3.218zm4.096 9.655l.293-.585h-.293c-.024-.622.293-.585.293-.585.232-.963-.171-1.682-.293-2.341h2.048l-.293 6.437c-.305 1.085-.573 2.341-.585 3.804h-1.17c.012-1.999.024-4.316.293-5.852l-.293-.878zm11.411 21.944h-.293v.878h-.293v.878h-.293l-.293 1.463-.878.585v.585l-1.17.878v.585l-.585.293v.292l-1.17.293-.585.585h-.585v.293h-.585v.293h-.585v.293h-.585v.293l-1.756.292v.293h-1.463v.293c-1.329.402-5.011-.219-5.852-.585v-.292l-1.17-.293v-.293h-.878l-.293-.585-.878-.293v-.293l-1.17-.293-.585-.878-1.463-1.17v-.585l-.585-.293v-.585h-.293l-.293-2.048h-.293v-1.756h-.293V37.5h.293v-1.17h.293v-.878h.293v-.878c.731-1.646 2.024-2.633 3.219-3.804l.585-.878 1.756-.585.293-.585h.585v-.293c1.317-.61 3.718-.256 4.681-1.17 5.035-.049 8.058 1.865 10.533 4.389l.878.585.293 1.17h.293v.585l.585.293v1.17h.293v1.756h.293v.293h-.293c0 .536.622 1.938.293 2.926zm11.704 8.778l-5.267-1.755v-.293h-.585v-.293h-.878v-.292l-1.17-.293v-.293h-1.463v-.293h-.585l-.292-.585h-.585v-.293h-.293l.293-.878c1.207.134 2.292.39 3.218.878v.293h.585v.293h.878l.293.585h.878v.293h1.17l.293.585h.878v.293h.585l.293.585 2.048.585-.293.878zm-2.633-4.389v-.293h-.585v-.293h-.878v-.293l-1.17-.293v-.292h-.585v-.293h-.878v-.293h-.585c-.756-.39-1.305-.975-2.341-1.17l.293-2.633h.293c.305-1.012-.707-3.767-.878-4.681.89-.134.939-.183 1.463-.585v-.293l1.17-.293.293-.585 1.17-.293v-.293l.878-.293.293-.585h.878v-.293h.585l.293-.585 1.17-.293.293-.585h.585l.293-.585h.585l.585-.878h.585l.585-.878h.878v-.293c.463-.329.5-.427 1.17-.585v-.585c.914-.232 2.487-1.353 2.926-2.048l1.463.293.293.585 1.756.585v.293l2.633.293v.293h.585v.293c1.28.439 6.023-.549 6.73-.878l.292-.585h.878l.293-.585.878-.293c.609.756 1.512.902 2.341 1.463l.293.585h.585l.292.585h.585l.293.585h.585v.293l.878.293-1.17 3.219v1.463c-.244.756-1 2.146-.585 3.511h.293v.878h.293v1.17h.293c.207.597.11 1 .293 1.463-1.097.5-4.389 3.523-4.681 4.681l-1.17.293-.585-1.17h-.585l-.293-.585h-.585v-.293l-1.17-.293v-.293h-.878v-.293h-1.17v-.293h-.878v-.293h-4.389v.293l-1.463-.293v.293h-.878v.293l-1.755.293c-1.646.719-4.694 3.182-5.559 4.682l-4.389-1.463zm26.918 14.337h-.293l-.293 1.17h-.293v.585l-.585.293v.585l-.878.585v.585l-.585.293-.878 1.17h-.585l-.585.878-1.755.585v.293l-2.341.293v.293c-1.219.366-3.609-.049-4.389-.293l-2.048-.293v-.293l-1.755-.585-.585-.878h-.585l-1.755-2.048-.878-.585V61.2l-.585-.293v-.585h-.293v-.585h-.292v-.878h-.293v-.585h-.293l.293-7.022.585-.293v-1.17h.293l.293-1.17.585-.293v-.585l1.463-1.17.293-.585h.585l.585-.878h.585l.293-.585h.585v-.293l1.463-.293v-.293c.671-.256 1.536.098 2.048-.292v-.293c2.182-.024 3.84.293 5.267.878h.878l.293.585h.585l.585.585h.585v.293h.585l2.048 1.755v.585l.585.293.293.878h.293l.293 1.17.585.293.293 2.926h.293c.427 1.475-.183 4.938-.585 5.852zm4.096-15.215l-1.755 2.048h-.585l-.585.878h-.878c-.183-.695-.085-.549-.585-.878.536-1.987 3.426-3.072 4.389-4.681.829.219.841.524 1.463.878-.207 1.573-.512 1.061-1.463 1.755zm22.822 4.682h.293l-.293.878c-.585.171-.244-.049-.585.293-.744-.609-.951-1.475-1.463-2.341h-.293v-.585l-.585-.292v-.585h-.293l-.585-.878c.378-.183.622-.293.878-.585 1 .561 2.645 2.865 2.926 4.096zm.293-13.459c-.232 1.256-.366 2.548-.878 3.511h-.293v.585l-.585.293v.585l-.878.585v.293l-1.463.293c-.39.293-.012.719-.293 1.17l-.585.293v.293h-.585l-.293.585-2.633.585v.293h-.585v.293H80.46v-.293h-3.219v-.293h-.585v-.293h-.878v-.293h-.878l-.293-.585h-.585l-.293-.585h-.585v-.293c-.512-.427-.707-.671-1.463-.878-.183-.658-.244-.732-.585-1.17h-.293l-.293-1.17-.585-.293c-.67-1.097-1.439-6.254-.585-7.9l.585-.293.293-1.17.585-.293v-.585l.585-.585v-.585l.878-.293.878-1.17h.585l.293-.585 1.17-.293.293-.585h.585v-.293h1.17c.817-.293 2.353-1 3.804-.585v.293h2.926v.293h.585v.293h.585v.293h.585l.585.585h.585l.293.585 2.048 1.756v.585l1.17.878v.878h.293v.585h.293v.878h.293v3.511h.293c0 .415-.219-.122-.293.293zm8.193-12.289h-.585l-.293.585-1.17.293-.585.878-1.755.585-.293.585-1.17.293c-.585.329-1.061.853-1.756 1.17-.268-.451-.427-.622-.878-.878v-.585c1.89-.244 2.475-1.414 3.804-2.048h.878l.293-.585h.585v-.293h.585v-.293l1.463-.293.293-.585h.585l.292-.585h.585v-.293l.878-.293v-.293h.293v.293c.792.22.67.061.878.878-1.207.268-2.012.939-2.926 1.463zm22.237-8.778h-.293v1.463h-.293v.878h-.292l-.293 1.17h-.292v.585l-.586.293v.585l-1.755 1.463-.585.878h-.585v.293h-.586v.293h-.877v.293h-1.171c-.829.268-3.304 1.012-4.681.585v-.293l-1.756-.293v-.293l-1.17-.293v-.293h-.585l-1.171-1.463h-.585l-.292-.585h-.293v-.585h-.293v-.585l-.585-.293-.292-1.17h-.293c-.244-.561-.573-3.475-.293-4.389h.293v-.878h.293v-.585h.292v-.878h.293v-.585h.292v-.585h.293l.878-1.17h.585l.878-1.17h.585v-.293l1.755-.585v-.293c.793-.354 2.024-.073 2.634-.585.914.317 2.609-.085 3.803.293v.293l2.634.585.292.585h.585l1.171 1.463.585.293v.585l.585.293.293 1.17h.292v.585h.293v1.17h.293v2.048z" fill="#000"/></svg>