<svg xmlns="http://www.w3.org/2000/svg" viewBox="0 0 105 74" fill="none"><path fill-rule="evenodd" d="M104.18 33.846l-.24-3.36h-.24l.24-1.92v-4.08h-.24l.24-2.88h-.24l.24-9.12h-.24l-.24-2.16h-.24v-.96h-.24l-.24-.96-.48-.24v-.48h-.24l-.48-.72-2.16-.72v-.24l-4.32-.24c-.12-1.06-.53-1.48-.72-2.4-.63-.18-.77-.38-1.2-.72v-.24l-.96-.24v-.24l-2.64-.48v.24l-1.2.24-.24.72h-.48c-.31 1.29-1.29 1.74-1.44 3.12l-1.92-.24-.24-.24v-1.44h-.24l-.48-1.44h-.24l-.72-.96c-.56-.25-1.97-.89-2.64-.24-1.21.06-.97.31-1.68.72l-.72.24-.48.72h-.48l-.24.48h-.24l-.72 2.16-2.16-.24-.24-1.2-.48-.24-.24-1.2-.48-.24v-.48c-.1-.15-.32-.18-.48-.48-1.6-.06-2.22-.5-4.08-.48-1.22 1.46-2.69 1.91-3.12 4.32h-1.92l-.96-2.88h-.24l-.48-.72c-.67-.16-1.15-.54-1.68-.72h-1.44c-2.78 0-4.88 1.75-5.28 4.08h-.96c-.43-2.14-3.69-4.9-6.72-3.6v.24l-.96.24c-.48.32-1.65 2.47-1.92 3.12h-.96v-.24h-.24c-.3.15.09.31-.24.24v-.24l-.48.24v-.24c-1.15-.35-.27-.2-.72-.96l-.48-.24c-.47-.71-.44-.98-1.2-1.44v-.48c-.55-.16-.57-.22-.96-.48v-.24h-1.2v-.24h-.48v.24c-.61.03-.85.01-1.2.24v.24l-.96.24c-.57.39-1.39 2.35-1.68 3.12h-1.44c-.26-.14-.32-.91-.48-1.2l-.48-.48v-.48l-.48-.24v-.48h-.24l-.72-.96c-.57-.11-1.78-.54-2.64-.24v.24l-1.44.48c-.22.99-.87 1.54-1.2 2.4-.2.51.12.9-.24 1.2l-1.44.48-.24.48h-.48l-.72.96h-.48l-.48.72h-.48v.24h-.48c-.33.26-.27.79-.48 1.2h-.24v.72h-.24v.48h-.24v.72h-.24v1.44h-.24v.72h-.24l-.24 2.16h-.24v.96h-.24v.72h-.24l-.24 1.92h-.24v1.2h-.24l-.48 2.64h-.24v.72h-.24v1.2h-.24v.72h-.24v.96h-.24v.48h-.24v.96h-.24v.48h-.24v1.44h-.24v.48h-.24l-.24 1.92h-.24v.72h-.24v.72H8.9v.96h-.24v1.2h-.24l.24.48h-.24l-.24 1.92h-.24v.48H7.7v.72h-.24v1.44l-.48.24-.24 1.92H6.5v.48h-.24v.96h-.24v.72h-.24v.72h-.24v1.2H5.3v.96h-.24v.48h-.24l-.24 1.44h-.24v1.2H4.1l-.24 1.2h-.24v.48h-.24v.72h-.24v.48H2.9v.72h-.24l-.24.96h-.24v.72h-.24v.96H1.7v.72h-.24v.48h-.24v1.2H.98v.72H.74v.48H.5l-.24 2.88c-.02.07-.35.07-.24.48h.24l.48 1.44h.48c.15.58.25.53.48.96.33.13.54.09.96.24v.24c.61.2 2.63-.24 2.64-.24v.24h.48l.72.96h.72v.24c.91.31 3.53-.37 3.84-.24l.72.96h.48l.24.48 1.2.24v.24l2.88.48v-.24l.72-.24v.24l.72.24.24.48 1.2.24.24.48h.72v.24h.96l.24.48h1.2v.24c.34 0-.1-.19.24-.24 2.09-.28 5.27-.14 6.96.24.57.13.62-.19.96-.24h2.16v.24c.56.14.66-.28.96-.24v.24l2.16-.24c2.21.61 5.76.24 8.4.24l4.08.24v-.24l3.12.24h7.92c.35.05.74.38 1.44.24.33-.07-.1-.29.24-.24 0 0 .23.36.72.24v-.24l9.84.48v-.24l9.36.24h.96v.24h.24v-.24h.96v.24h1.92v-.24c.83-.23 1.92.16 2.4.24h1.92v-.24c.55-.12.67.29.96.24.33-.06-.09-.32.24-.24 1.28.29 3.38.24 5.04.24h1.92l.48-.72 1.44-.24v-.24c.64-.32.94-.55 1.68-.72v-.48c1.11-.31.76-.7 1.2-1.68h.24v-.48h.24v-.72h.24v-1.2h.24v-.48h.24v-.72h.24v-16.08h-.24v-1.2h.24v-1.68h-.24l.24-4.56h-.24c-.34-1.26.03-5.52.24-6.48l-.24-1.92v-.24h.24zm-90.96-4.32h.24v1.44h-.24v-.24h-.24c.18-.38.22-.57.24-1.2zm-.48 3.12h.24v.96h-.24v-.96zm-6.48 24.48v1.2h-.24v.96h-.24v.96h-.24v1.44H5.3v.96h-.24v.96h-.24v.48h-.24v1.2l-.48.24c-.27.27 0 .1-.48.24-.34-.42-.3-.1-.48-.24l-.48-.72h-.24c-.33-.44.11-.35-.48-.72l.72-2.4h.24l.24-1.68h.24v-.72h.24v-.72h.24v-.72h.24l.24-.96h.24l.24-1.68h.24l.24-.96h.24v-.96h.24v-.48h.24v-.96h.24v-.48h.24v-.72h.24v-.72h.24v-.72h.24v-.96h.24l.72-3.12h.24l-.24 2.88h-.24v1.44H7.7c-.08.35.24.48.24.48v.24H7.7v1.44h-.24v.48h-.24v.24h.24v.24h-.24v1.2h-.24v.96h-.24v.96H6.5v1.44h-.24zm5.28-9.36v1.92h-.24v1.2h-.24c-.01.3.41.61.24 1.2h-.24v4.08c-.75 2.41-.66 7.01-1.2 10.32-1.04 0-1.9-.11-2.64-.24-.16-.62-.25-.69-.72-.96.24-1.03.89-1.74 1.2-2.64l.48-3.6h.24v-.96h.24v-1.44h.24v-.72h.24l.24-3.12h.24v-1.68h.24v-.96h.24v-.96h.24v-2.16c.04-.5.24-.48.24-.48v-1.2h.24v-1.68h.24v-.96h.24v-1.44h.24v-1.68h.24v-1.92h.24l.48-3.36c.44.49.22 4.56 0 5.28h-.24v2.64h-.24l.24.48h-.24l-.24 5.04h-.24zm2.16 19.92h-.72v-.24c-.47-.38-.46-.64-.96-.96.05-1.64.33-3.68.72-5.04l.24-6.48h.24v-1.2h.24v-2.16h.24v-2.88h.24c.05-.26-.24-.48-.24-.48l.24-.24v-.24h-.24c-.04-.51.24-.48.24-.48v-2.16h.24v-2.16h.24l.48-6.96c.29.34.47 5.6.24 6.48h-.24v.96c.43 1.76-.19 4.34 0 6.72.21 2.7 0 7.1 0 10.56l-.24 5.52h.24l.24 1.2.48.24v.48h.24l.24.72c-1.21-.14-1.55-.8-2.4-1.2zm80.4-57.36l.48.24c-.06.57-.1.59-.24.96h-.96l.72-1.2zm-5.76-5.28h.24c.26-.99.96-.97 1.44-1.68 1.21.14 1.69.77 2.64 1.2.11.52.15.68.48.96v.24h-4.8v-.72zm-5.28 5.04h.48v1.44l-1.2.24c.2-.76.55-.87.72-1.68zm-4.32-6.24l.24-.48h.48v-.24c1.15 0 1.52.14 2.16.48.26.61.46 1.02.48 1.92-.93-.02-2.07.09-2.64-.24h-.24v.24H77.3c.38-.82.85-1.11 1.44-1.68zm-6.24 6.72h.48v.72c-.27.21-.04-.03-.24.24h-.72c.23-.43.34-.37.48-.96zm-5.04-7.68c.75-.02 1.78-.12 2.16.24.89.24.8.77 1.44 1.2v.96h-5.28c.17-1.31 1.13-1.48 1.68-2.4zm-6.72 8.88c.14-.56.34-.9.72-1.2.21-.27-.03-.04.24-.24.21.27-.03.04.24.24v.72h-.24l-.24.72h-1.2v-.24h.48zm-6.96-7.44c.63-.16.78-.38 1.2-.72v-.24c.41-.28.55 0 .96-.48 1.18-.05 2.87-.2 3.36.48v.48h.24l.48 1.44-4.08-.24v.24c-.64.18-1.87.02-2.16-.24h-.24l.24-.72zm-3.6 5.76c.32.28.38.44.48.96-.24.21-.34.41-.48.72h-.96l.96-1.68zm-5.76-6.48v-.24l1.68-.24v.24c2.25-.03 1.55.26 2.64 1.2v.48h-5.28c.24-.52.54-1.09.96-1.44zm-6 6.96v-.24h.48c.14.48-.03.21.24.48-.09.77-.22.7-.48 1.2h-1.2v-.48h.24c.24-.33.41-.69.72-.96zm-4.56-7.92c1.12.03 1.33.31 2.16.48.16.62.25.69.72.96v.72h-.24v.24c-1.16-.52-2.54 0-3.84 0 .08-1.36.7-1.54 1.2-2.4zm-9.84.24l1.44-.24v.24c.89.24.65.5 1.2.96v.72c-1.04-.38-2-.03-3.36 0 .19-.8.54-.92.72-1.68zm78.24 60.72h-.24l.24 2.64h-.24v1.2l-.48.24v.72h-.24v.72l-.72.48v.48l-.48.48h-.48l-.24.48-1.2.24v.24l-4.8.24v-.24c-.33-.07.04.05-.24.24h-.24v-.24c-.58-.11-.61.2-.96.24v-.24h-.24v.24h-1.2v-.24l-.48.24v-.24H86.9c-.33.06.1.27-.24.24v-.24h-6.24c-1.89-.36-5.97-.24-8.4-.24H67.7v-.24l-.48.24v-.24l-.48.24v-.24h-1.92v.24h-2.88c-1.75-.5-4.4.14-6.48-.24v-.24c-.13-.01-.49.23-.96.24-1.16.03-2.13-.05-2.4-.24h-.24v.24h-2.64v-.24h-8.64v-.24h-.72l-4.56.24v-.24l-.48.24v-.24h-9.84v-.24c-.33-.07.04.04-.24.24l-.48-.24v.24h-.24c-.29-.18.1-.28-.24-.24v.24h-1.92l-3.84-1.92c-.07-.18-.17-.83-.24-.96l-.48-.24v-.48h-.24v-.48h-.24v-.72h-.24c-.32-1.03.4-1.01 0-1.92.21-1.72.24-4.14.24-6.24v-2.88h.24v-3.36h-.24l.24-2.88v-8.16c0-2.42-.07-6.15.24-7.44v-1.44h-.24l.24-1.68-.24-1.44h.24v-3.12h.24v-.24s-.32-.09-.24-.48h.24c.1-.52-.24-.72-.24-.72v-1.92h.24l-.24-3.12h.24v-1.44c-.02-.08-.32-.06-.24-.48h.24v-.24h-.24v-1.68h.24v-2.64h.24v-.48h.24v-.96h.24l.24-1.44.72-.48 1.2-1.44.96-.24v-.24l1.44-.24v-.24l4.56.48c-.1 1.76-.5.92-1.68 1.44v.24h-.48v.24h-.96v.24l-.72.48v.48h-.24v1.92l.48.24v.48l.48.48h.48l.48.72c2.03-.02 1.94-.51 3.12-1.2l.72-2.16-.24-.72v-1.44h.24v-.24h-.24l.24-1.2h5.76c.8 0 1.97-.15 2.4.24.15.3.29-.09.24.24h-.24v.96h-.24v.24l-1.2.24-.24.72h-.24v.48h-.24c-.57 1.51.6 2.62.96 3.36l1.2.24v.24c1.04.31 2.46-.67 3.12-.96.34-.82.51-1.58.48-2.88h-.24v-.48l-.48-.24v-.24h-.72v-.24h-.24v-1.68h2.4c.07-.02.07-.31.48-.24v.24c.66.15 2-.27 2.16-.24.33.06-.09.31.24.24v-.24c.62-.11.72.24.72.24h3.36v.24h.24l.24-.24c.21.27-.03.04.24.24-.28 2.01-1.9.73-2.4 2.88-.53.75.62 2.18.96 2.88a14.22 14.22 0 0 0 2.88.24c.24-.3.86-.77 1.2-.96l.48-2.16c-.6-.52-.71-1.25-1.44-1.68v-.96h.24c.46-.48.14 0 .72-.24v-.24h3.12v.24c1.67-.01 4.01-.23 5.28.24-.24.95-.84 1.12-1.68 1.44-.11.52-.15.68-.48.96-.02 1.29-.06 2.41.48 3.12.24.32.6.17.96.72 1.08 0 2.38-.21 2.88-.72.77-.48 1.6-2.71.72-3.6-.19-.73-.45-.83-1.2-.96l.24-1.2 9.36.24v.96c-.19.35-.61.02-.96.24v.24l-.96.72v1.2c-.01.06-.34.08-.24.48h.24l.48 1.44h.48l.24.48c.91.38 2.56-.4 3.36-.48l.72-2.64c-.72-.64-.49-1.37-1.68-1.68v-.96h3.36c.06-.01.08-.3.48-.24v.24h2.16v.24l2.88-.24c-.18 1.5-.6.81-1.44 1.44-.22.16-.18.5-.48.72-.02 1.09-.06 2.12.48 2.64.28.97.66.6 1.2 1.2.95.01 1.71-.01 2.16-.48l.96-.72v-.72h.24c-.02-2.36-.65-2.25-1.44-3.6.55-.24 1.57-.8 2.16-.24h7.2l-.48.96h-.48l-.48.48c-.33.43.11.35-.48.72 0 1.02.22 2.22.72 2.64.37.31.25-.23.72.48.91 0 2.06.13 2.64-.24v-.24l.96-.72c.19-1.01.19-1.39 0-2.4h-.48c-.23-.82-.31-.45-.72-.96h-.24l.24-.72c1.5 0 3.4-.24 4.56.24v.24h.48v.24l.72.48c.19.95.7 1.63.96 2.4v1.44h.24c.15.55-.1 1.34-.24 1.68h-.24v3.12h.24v6c0 1.71-.14 3.96.24 5.28v2.64h-.24v4.32h.24c.39 1.39-.06 5.83-.24 6.96l.24.48h-.24v.24h.24v19.68h.24v.24zm-74.88-40.8v.72l.72.48v.48h.24l.48.72c.69.15 1.51.56 1.92.24h.96l.24-.48h.48l.48-.48.24-.72h.24c.1-1.93.36-4.31 0-6.24H31.7c.02 1.08.19 4.09 0 4.32 0 1.08-.16 1.31-.48 1.92-1.88-.03-1.67-.85-2.64-1.68-.27-.27 0-.1-.48-.24-.25.31-.49.36-.72.72-.15.3-.29-.1-.24.24h.24zm26.88 2.88c.25-.31.49-.36.72-.72h.24c-.17-.35-.21-.39-.24-.96l-2.4-.24v-.24h1.68v-.24c.47-.32.54-.56 1.2-.72l.24-1.68h-.24c-.28-.97-.66-.6-1.2-1.2-1.14-.03-2.33-.09-2.88.48-.82.53-.39.55-.72 1.44-.58 1.56.34 2.77.96 3.84.74.14 1.6.25 2.64.24zm-1.92-4.08c.38-.15.57-.22 1.2-.24v.48h-1.2v-.24zm-7.92 3.84v-.24h.24v-1.2c.24-.71.68-1.5.96-2.16h1.44l.24 3.6c.69-.01 1.03-.08 1.44-.24.22-1.1.56-3.31-.24-4.08l-.48-.72-2.16-.48v.24l-1.2.24v.24c-.4.09-.42-.23-.48-.24h-1.44c-.01 1.6-.21 3.83.24 5.04h1.44zm-5.04 0c.94-.27.32-.07.72-.72h.24v-.48h.24v-.48h.24v-.96h.24c0-.86-.03-1.36-.24-1.92-.57 0-1.19-.07-1.44.24v.48h-.24v1.92s-.38.26-.48.48c-1.82-.19-.79-.78-1.2-2.16h-.24v-.72c-.27-.21-.04.03-.24-.24h-1.2l-.24.72h.24v.24h-.24v1.2h.24c-.02 1.77 2.08 4.05 3.6 2.4zm19.44-1.68h-1.44v1.44h1.44v-1.44zm37.92 5.52c-.65-.18-.55-.06-.72-.72-1.46-.05-3.03-.24-5.28-.24h-3.6v-.24h-.24v.24c-.27 0-.74-.38-1.44-.24-.33.07.1.28-.24.24v-.24l-2.4.24v-.24h-8.16v-.24h-.24v.24c-.34.05.1-.21-.24-.24s.09.16-.24.24h-5.28v-.24h-.24v.24h-.24v-.24h-.24v.24c-.34 0 .09-.17-.24-.24-.58-.12-.62.21-.96.24v-.24l-.48.24v-.24l-.48.24v-.24h-6.96v-.24h-1.2v.24h-1.68v-.24H54.5v.24h-1.68v-.24h-.24v.24h-.24v-.24H44.9v-.24l-.48.24v-.24h-.24v.24H42.5v-.24c-.81-.23-1.36.22-1.92.24l-1.92-.24v.24l-3.84-.24h-9.84v.24l-.96.24c-.45 2.48-.48 5.24-.48 8.16 0 1.71.13 3.95-.24 5.28l.24 4.8h-.24v3.84c-.6 2.14-.24 5.6-.24 8.16v3.12s-.32 0-.24.48h.24v3.36h-.24l.24 2.4.96.24c1-.15 3.18-.55 4.56-.24v.24c.56.09 1.3-.48 2.16-.24 1.05.29 3.62.56 5.04.24v-.24l.72.24c1.56.22 3.86.01 5.04-.24l2.64.24c3.12 0 7.22.37 9.6 0 .49-.08.48.24.48.24h10.08v.24h3.84v-.24h1.2v.24h5.76v-.24c.52-.11.72.24.72.24h4.8c1.95 0 4.78.29 6 0h.96v.24h3.6v-.24h1.44v.24c1.02.28 2.41-.11 3.12-.24l.72-2.16-.24-1.2h.24l-.24-1.2h.24v-7.44h.24v-.24h-.24v-5.28h.24v-6.96h.24v-4.32c-.02-.07-.31-.07-.24-.48.51-2.93.47-7 0-9.6zm-63.36 33.6h-.24l.24.48h-.24l.24.48h-.24v.96h.24c0 .1-.21.54-.24.96-2.36.01-6.57.44-8.4-.24l.24-4.8c1.99-.03 7.46-.4 8.16.24 0 0 .46 1.02.24 1.92zm0-4.08h-1.44c-.07.02-.07.31-.48.24v-.24h-4.32v-.24h-.24v.24h-1.92c-.01-1.73-.25-4.19.24-5.52h8.4l-.24 5.52zm0-7.2l-8.16-.24v-6.96h1.68v.24c2.12-.01 5.27-.38 6.96.24 0 2.37.17 4.97-.48 6.72zm.48-8.64l-2.16-.24v.24h-2.4c-1.4-.4-2.84-.17-3.84 0l-.24-3.84h.24v-2.88l8.64.24-.24 6.48zm.24-8.4h-1.44v.24h-.24v-.24c-2.12.01-5.27.38-6.96-.24v-5.28l3.12.24v-.24h1.92v.24h2.4v-.24l.24.24h.24v-.24l1.2.24-.48 5.28zm12.96-4.8v-.24h8.64c0 2.3-.19 4.04-.24 5.52l-.72-.24v.24h-.24v-.24h-.24v.24h-3.12v-.24c-.95-.26-1.46.33-1.92 0-.85 0-1.62-.04-2.16-.24.1-.86.65-4.1 0-4.8zm-3.12 36c-2.66.25-5.5 0-8.64 0-.03-1.56-.33-4.24.48-5.04v-.24c.54.21 1.31.24 2.16.24l6 .24c-.01 1.92-.29 3.2 0 4.8zm.48-9.6h-.24c0 .97 0 2-.24 2.64l-4.08.24c-1.34-.22-2.96-.24-4.32 0v-.24c-.31-.39-.03-3.78 0-5.52l.96.24v-.24h3.84c.33.08-.1.24.24.24l.48-.24.72.24v-.24c.51-.05.48.24.48.24.72.17 1.53-.09 1.92-.24.21.27-.03.04.24.24-.04.6-.2.63-.24.96l.24 1.68zm.24-8.16l-.24.48c.01.05.34.08.24.48h-.24v2.64h-5.76c-.76 0-1.76.12-2.16-.24h-.96v-.24h.24l-.24-.72h.24l-.24-1.44.24-4.08c2.02-.25 5.83 0 9.12 0l-.24 2.88h-.24l.24.24zm.24-5.04h-8.88c-.01-2.68-.51-4.46.24-6.48h1.2v.24l.48-.24c.34 0 .48.24.48.24.48.07.48-.24.48-.24.75-.16 1.31.18 1.68.24h1.92v-.24h.96v.24h.24v-.24l1.44.24-.24 6.24zm.24-8.16l-8.88-.24v-.96h.24c.11-.52-.24-.72-.24-.72v-3.6l9.12.24-.24 5.28zm8.64 31.2c-1.88.03-7.38.23-7.92-.24-.35-.5.22-3.66.24-4.8.27-.21.04.03.24-.24l6 .24v-.24h1.68l-.24 5.28zm.24-6.72c-1.89-.08-5.04-.26-7.92-.24 0-2.02-.07-4.04.48-5.52 2.25-.01 6.18-.4 7.92.24l-.48 5.52zm.24-7.44c-1.08-.02-3.3.36-4.8 0v-.24l-.24.24-.48-.24v.24h-.24v-.24h-1.92v-.24h-.24v-.48h.24v-2.88h.24c.07-.33-.17.09-.24-.24-.21-.97 0-2.51.24-3.12l4.56.24c.88 0 1.58-.24 1.92 0 .74 0 1.23.07 1.68.24.02.79.14 1.99-.24 2.4.02 1.76.1 3.2-.48 4.32zm.72-8.88l-3.12.24v-.24c-.7-.2-3.55-.02-3.84.24-.63-.03-.82-.09-1.2-.24l.24-6.24 8.4.24c.21.27-.03.04.24.24-.07.43-.23 1.64-.48 1.92.01 1.28.1 2.93-.24 3.84zm9.84 21.12h-.24v.24h.24c-.01.56-.2.63-.24 1.68-.68.14-2.75.57-3.36 0-1.73.01-4.19.25-5.52-.24.19-1.91.46-2.98.48-4.8h2.16c.33-.08-.1-.28.24-.24v.24c1.34.23 5.44.17 6 0 .14.36.09.49.24.96h.24l-.24 2.16zm.24-5.04h-5.28l-1.68.24v-.24h-1.68c0-1.86-.03-4.02.24-5.52l2.88.24.72-.24v.24h3.84c.33-.07-.1-.28.24-.24v.24h.96l-.24 5.28zm.24-7.2h-5.28c-.88 0-1.58-.24-1.92 0-.69-.01-1.03-.08-1.44-.24-.02-.79-.14-1.99.24-2.4-.01-1.35-.12-3.11.24-4.08l1.92-.24v.24h2.16c.33-.05.59-.39 1.2-.24v.24h3.36c-.01 2.54-.29 4.56-.48 6.72zm.72-8.64c-3.32 0-6.08 0-8.64-.24-.21-.27.03-.04-.24-.24l.24-3.12h.24c.06-.4-.23-.42-.24-.48v-2.16h8.88l-.24 6.24zm-8.16-8.16v-5.28h9.12c-.56 1.51-.2 4.03-.72 5.52l-8.4-.24zm17.52 29.28h-.24v.24h.24v1.68h-.24v.24c-.54-.22-1.31-.24-2.16-.24h-6.24v-1.92h.24c.08-.48-.24-.48-.24-.48l.24-2.64c.27-.21.04.03.24-.24 2.89.01 5.76.44 8.16 0v3.36zm0-5.04v.24c-.54-.22-1.31-.24-2.16-.24h-6l.24-5.52h8.4c0 .72-.25 5.26-.48 5.52zm.48-7.2H73.7v-.24h-4.08v.24l-1.92-.24v-5.28h.24v-1.44h8.16l-.24 6.96zm.72-11.52h-.24v2.88h-1.92v-.24c-.56-.14-.66.29-.96.24v-.24h-1.92v.24l-1.44-.24v.24l-2.16-.24.48-6h7.92l.24 2.4h-.24v.24c.07.14.39.14.24.72zm0-5.04c-.93-.15-2.5-.24-4.32-.24h-2.64v-.24h-.96c.02-1.78.53-3.64 0-5.04.64-.23 2.37-.49 3.36-.24v.24l1.92-.24v.24h1.92v-.24l1.2.24c-.22 2.25-.52 3.04-.48 5.52zm8.64 27.6h-.24v.24h.24v.24h-.24l.24.48h-.24c-.19.75.08 1.74.24 2.16-2.1.77-5.45.03-7.68 0-.21-.27.03-.04-.24-.24l.24-4.8h3.12s.09-.4.48-.24v.24c1.35-.01 3.11-.12 4.08.24v1.68zm0-5.52c0 .86-.03 1.36-.24 1.92-.98-.09-2.58-.59-3.84-.24v.24H79.7v-.24h-1.92v-5.28l1.2-.24v.24c.38.05.48-.24.48-.24.5-.06.48.24.48.24h5.28v.24h.24l-.24.48h.24c.23.68.06 2.58-.24 2.88zm.48-7.92c-.25.89-.35 1.22 0 2.16-1.67.62-5.51.26-7.68.24v-2.64h.24c.16-.6-.24-.89-.24-1.2h.24l-.24-1.44h.24c0-.74.07-1.23.24-1.68l7.2.24v4.32zm.24-6.24h-5.28c-.76 0-1.76.12-2.16-.24h-.24l.24-.96c.01-.87-.62-1.99 0-2.64 0-.91.02-1.82.24-2.4h1.2v.24h2.16v-.24c.52-.11.72.24.72.24h2.16v-.24l1.2.24-.24 6zm.24-7.92c-.37.02-.95.24-.96.24v-.24c-1.69-.3-4.02.02-4.8-.24h-.24v.24c-.69-.01-1.03-.08-1.44-.24.15-1.49.25-3.45.24-5.28h5.28c.76 0 1.76-.12 2.16.24.33.44-.21 4.23-.24 5.28zm8.16 30.96h-1.68c-.07.02-.06.33-.48.24v-.24h-.24v.24h-.24v-.24c-1.3-.27-3.72.5-4.56-.24-.32-.43.21-4 .24-5.04h2.88v.24l.72-.24h.96v.24h.24v-.24h.96v.24h.24v-.24h.96v5.28zm.24-6.96h-6.96c-.07-.87-.63-3.16 0-3.84 0-.74.07-1.23.24-1.68h6.72v5.52zm.24-7.2l-7.2-.24v-1.2h.24v-5.52h6.96v6.96zm0-8.64l-3.36-.24c-.01 0-.19.34-.72.24v-.24h-.24l-.96.24v-.24h-1.68v-.72h.24c-.01-1.67-.23-4.01.24-5.28 1.51.03 3.43-.08 4.56.24h1.92v-.24h.24l-.24 6.24zm.24-7.92h-1.44v-.24h-.24v.24h-1.2l-3.6-.24v-5.28l4.08-.24v.24h2.64l-.24 5.52zm-66.24-6.24v.24l-.96.24.24 1.44c.27.21.04-.03.24.24 1.58-.04 1.84-.22 3.36-.48-.03-.63-.09-.82-.24-1.2l-2.64-.48zm9.84 8.64v1.44h1.68v.24h1.92v-.24c.35-.08.48.24.48.24l.72-.24v-1.2h-.24c-.93-.94-3.18-.31-4.56-.24zm10.56 7.44h-1.44l-.24 1.2c.51.41.13.5.96.72.27.27 0 .1.48.24l.72-.96c.27-.21.04.03.24-.24-.4-.26-.52-.51-.72-.96zm13.2 9.6c.01.69.08 1.03.24 1.44.74 0 1.23-.07 1.68-.24-.02-.8-.13-1.09-.24-1.68-1.25.02-.94.09-1.68.48z" fill="#000"/></svg>