<svg xmlns="http://www.w3.org/2000/svg" viewBox="0 0 447 412" fill="none"><path d="M83.344 40.506c15.984-10.676 32.324-20.754 48.793-30.62l6.182-3.686 3.09-1.84 1.546-.916c.598-.341 1.22-.667 1.871-.909 2.591-1.022 5.522-1.12 8.181-.303 1.326.371 2.629 1.136 3.591 1.689l3.129 1.786 25.021 14.25 25.022 14.25 3.128 1.779a12.66 12.66 0 0 1 3.22 2.627 12.584 12.584 0 0 1 3.098 7.586c.03.742.023 1.28.023 1.893v12.592l.015 28.779v21.586c0 .318.015.568 0 .931a8.15 8.15 0 0 1-.068 1.045 11.842 11.842 0 0 1-.387 2.052 12.59 12.59 0 0 1-1.757 3.77 12.327 12.327 0 0 1-2.901 2.983c-.273.212-.576.394-.864.583-.295.19-.53.318-.795.477l-1.546.917-6.196 3.664-12.386 7.329-24.779 14.666-6.197 3.665-3.098 1.832-1.546.916c-.575.333-1.196.659-1.833.901a12.293 12.293 0 0 1-8.052.341c-.659-.189-1.288-.454-1.909-.742-.288-.159-.629-.326-.879-.477l-.78-.447-3.121-1.794-24.946-14.378-23.984-13.856-3.227-1.855a11.864 11.864 0 0 1-3.144-2.718c-1.787-2.151-2.765-4.99-2.734-7.791l.022-15.272c.061-20.405.296-40.689 1.144-57.187 1.205 16.286 1.5 36.495 1.553 56.922v15.302c0 .333 0 .606.015.878.008.273.046.545.076.818.083.545.197 1.083.371 1.598a9.324 9.324 0 0 0 1.53 2.877 9.26 9.26 0 0 0 2.41 2.165 12.35 12.35 0 0 0 .757.447l.803.462 1.606.923 24.249 13.758 15.635 8.904 7.576 4.315 4.136 2.355 1.06.606c.356.204.728.424 1.023.568a9.689 9.689 0 0 0 2 .757 9.256 9.256 0 0 0 6.431-.742l.493-.273.56-.333 1.137-.681 9.211-5.52 33.961-20.344 11.189-6.709c1.227-.711 1.916-1.408 2.401-1.953.462-.538.659-.856.659-.856.583-.817.992-1.749 1.273-2.71.129-.485.235-.977.28-1.477.061-.499.053-.976.053-1.62l.015-7.193.023-14.393.045-28.779V46.374c-.091-2.037-.909-4.02-2.25-5.558a9.496 9.496 0 0 0-2.355-1.93l-3.122-1.787-24.991-14.303-24.998-14.31-3.137-1.786c-1.106-.643-1.924-1.113-2.946-1.4a9.312 9.312 0 0 0-6.099.242c-.492.182-.931.416-1.409.689l-1.56.916-3.121 1.825-6.242 3.642c-16.651 9.691-33.393 19.155-50.27 27.87l.022.023zm283.902 78.538c-15.984 10.676-32.324 20.754-48.792 30.619l-6.182 3.687-3.091 1.84-1.545.916c-.599.341-1.22.667-1.871.909a12.481 12.481 0 0 1-8.182.303c-1.325-.371-2.628-1.136-3.59-1.689l-3.129-1.786-25.021-14.25-25.022-14.249-3.129-1.78a12.67 12.67 0 0 1-3.219-2.627 12.583 12.583 0 0 1-3.098-7.586c-.031-.742-.023-1.28-.023-1.893V98.866l-.015-28.779V48.501c0-.318-.015-.568 0-.931a7.97 7.97 0 0 1 .068-1.045c.061-.697.204-1.378.386-2.052.379-1.34.962-2.627 1.758-3.77a12.325 12.325 0 0 1 2.901-2.984c.273-.212.576-.393.864-.583.295-.189.53-.318.795-.477l1.546-.916 6.196-3.664 12.386-7.33 24.779-14.665 6.197-3.665 3.098-1.832 1.545-.916c.576-.333 1.197-.659 1.834-.901a12.296 12.296 0 0 1 8.052-.34c.659.188 1.288.453 1.909.741.288.16.629.326.879.477l.78.447 3.121 1.794 24.946 14.378 23.984 13.856 3.227 1.855a11.842 11.842 0 0 1 3.143 2.718c1.788 2.15 2.773 4.99 2.735 7.791l-.023 15.272c-.06 20.405-.295 40.689-1.143 57.187-1.205-16.286-1.5-36.495-1.553-56.922V46.722c0-.333 0-.606-.016-.878-.007-.273-.045-.546-.075-.818a9.408 9.408 0 0 0-.372-1.598 9.295 9.295 0 0 0-1.53-2.877 9.25 9.25 0 0 0-2.409-2.165 11.914 11.914 0 0 0-.757-.447l-.803-.462-1.606-.923-24.249-13.758-15.636-8.904a2877.27 2877.27 0 0 1-7.575-4.316l-4.136-2.354-1.061-.606c-.356-.204-.727-.424-1.022-.568a9.64 9.64 0 0 0-2-.757 9.243 9.243 0 0 0-4.341-.023 9.125 9.125 0 0 0-2.091.765l-.492.273-.561.333-1.136.681-9.212 5.52-33.96 20.344a8766.368 8766.368 0 0 0-11.189 6.709c-1.227.711-1.916 1.408-2.401 1.953a7.776 7.776 0 0 0-.659.856c-.584.817-.993 1.748-1.273 2.71a8.836 8.836 0 0 0-.28 1.477c-.061.5-.053.976-.053 1.62l-.015 7.193-.023 14.393-.046 28.779v14.302c.091 2.037.909 4.021 2.25 5.558a9.5 9.5 0 0 0 2.356 1.931l3.121 1.786 24.991 14.303 24.999 14.31 3.136 1.787c1.106.643 1.924 1.113 2.947 1.4a9.306 9.306 0 0 0 6.098-.242c.493-.182.932-.416 1.409-.689l1.561-.916 3.121-1.825 6.242-3.642c16.651-9.691 33.392-19.155 50.27-27.87l-.023-.023zM83.344 293.467c15.984-10.675 32.324-20.753 48.793-30.619l6.182-3.687 3.09-1.84 1.546-.916c.598-.341 1.22-.666 1.871-.908 2.591-1.023 5.522-1.121 8.181-.303 1.326.371 2.629 1.135 3.591 1.688l3.129 1.787 25.021 14.249 25.022 14.25 3.128 1.779a12.678 12.678 0 0 1 3.22 2.627 12.586 12.586 0 0 1 3.098 7.587c.03.742.023 1.28.023 1.893v12.591l.015 28.779v21.586c0 .318.015.568 0 .932 0 .348-.023.696-.068 1.044a11.824 11.824 0 0 1-.387 2.052 12.596 12.596 0 0 1-1.757 3.771 12.345 12.345 0 0 1-2.901 2.983c-.273.212-.576.394-.864.583-.295.189-.53.318-.795.477l-1.546.916-6.196 3.665-12.386 7.329-24.779 14.666-6.197 3.664-3.098 1.833-1.546.916c-.575.333-1.196.658-1.833.901a12.3 12.3 0 0 1-8.052.34c-.659-.189-1.288-.454-1.909-.742-.288-.159-.629-.325-.879-.477l-.78-.446-3.121-1.795-24.946-14.378-23.984-13.856-3.227-1.855a11.828 11.828 0 0 1-3.144-2.718c-1.787-2.15-2.765-4.989-2.734-7.791l.022-15.271c.061-20.405.296-40.689 1.144-57.187 1.205 16.286 1.5 36.494 1.553 56.922v15.302c0 .333 0 .605.015.878.008.272.046.545.076.818.083.545.197 1.082.371 1.597a9.302 9.302 0 0 0 1.53 2.877 9.246 9.246 0 0 0 2.41 2.166 11.88 11.88 0 0 0 .757.446l.803.462 1.606.924 24.249 13.757 15.635 8.904a2992.57 2992.57 0 0 1 7.576 4.316l4.136 2.355 1.06.605c.356.205.728.424 1.023.568a9.576 9.576 0 0 0 2 .757 9.23 9.23 0 0 0 4.341.023 9.079 9.079 0 0 0 2.09-.765l.493-.272.56-.333 1.137-.682 9.211-5.519 33.961-20.345 11.189-6.708c1.227-.712 1.916-1.408 2.401-1.953.462-.538.659-.856.659-.856.583-.818.992-1.749 1.273-2.711.129-.484.235-.976.28-1.476.061-.5.053-.977.053-1.62l.015-7.193.023-14.393.045-28.779v-14.303c-.091-2.037-.909-4.02-2.25-5.557a9.494 9.494 0 0 0-2.355-1.931l-3.122-1.787-24.991-14.302-24.998-14.31-3.137-1.787c-1.106-.644-1.924-1.113-2.946-1.401a9.315 9.315 0 0 0-6.099.242c-.492.182-.931.417-1.409.689l-1.56.917-3.121 1.824-6.242 3.642c-16.651 9.692-33.393 19.156-50.27 27.871l.022.022zm283.902 78.539c-15.984 10.675-32.324 20.753-48.792 30.619l-6.182 3.687-3.091 1.84-1.545.916c-.599.341-1.22.666-1.871.908-2.591 1.023-5.523 1.121-8.182.303-1.325-.371-2.628-1.135-3.59-1.688l-3.129-1.787-25.021-14.249-25.022-14.25-3.129-1.779a12.691 12.691 0 0 1-3.219-2.627 12.586 12.586 0 0 1-3.098-7.587c-.031-.742-.023-1.28-.023-1.893v-12.591l-.015-28.779v-21.586c0-.318-.015-.568 0-.932 0-.348.022-.696.068-1.045.061-.696.204-1.377.386-2.051.379-1.34.962-2.628 1.758-3.771a12.326 12.326 0 0 1 2.901-2.983c.273-.212.576-.394.864-.583.295-.189.53-.318.795-.477l1.546-.916 6.196-3.665 12.386-7.329 24.779-14.666 6.197-3.664 3.098-1.833 1.545-.916c.576-.333 1.197-.659 1.834-.901a12.3 12.3 0 0 1 8.052-.341c.659.19 1.288.455 1.909.742.288.159.629.326.879.478l.78.446 3.121 1.795 24.946 14.378 23.984 13.856 3.227 1.854a11.839 11.839 0 0 1 3.143 2.719c1.788 2.15 2.773 4.989 2.735 7.791l-.023 15.271c-.06 20.405-.295 40.689-1.143 57.187-1.205-16.286-1.5-36.494-1.553-56.922v-15.302c0-.333 0-.605-.016-.878-.007-.272-.045-.545-.075-.818a9.41 9.41 0 0 0-.372-1.597 9.286 9.286 0 0 0-1.53-2.877 9.246 9.246 0 0 0-2.409-2.166 12.35 12.35 0 0 0-.757-.447l-.803-.461-1.606-.924-24.249-13.757-15.636-8.904a2999.972 2999.972 0 0 1-7.575-4.316l-4.136-2.355-1.061-.606c-.356-.204-.727-.424-1.022-.567a9.635 9.635 0 0 0-2-.758 9.243 9.243 0 0 0-4.341-.022 9.13 9.13 0 0 0-2.091.764l-.492.273-.561.333-1.136.682-9.212 5.519-33.96 20.345a8949.146 8949.146 0 0 0-11.189 6.708c-1.227.712-1.916 1.408-2.401 1.953a7.797 7.797 0 0 0-.659.856c-.584.818-.993 1.749-1.273 2.71a8.845 8.845 0 0 0-.28 1.477c-.061.5-.053.977-.053 1.62l-.015 7.193-.023 14.393-.046 28.779v14.303c.091 2.037.909 4.02 2.25 5.557a9.5 9.5 0 0 0 2.356 1.931l3.121 1.787 24.991 14.302 24.999 14.31 3.136 1.787c1.106.644 1.924 1.113 2.947 1.401a9.312 9.312 0 0 0 6.098-.242c.493-.182.932-.417 1.409-.689l1.561-.917 3.121-1.824 6.242-3.642c16.651-9.692 33.392-19.156 50.27-27.871l-.023-.022zm-57.55-207.215c15.984-10.676 32.324-20.754 48.793-30.619l6.182-3.687 3.091-1.84 1.545-.916c.598-.341 1.22-.667 1.871-.909a12.479 12.479 0 0 1 8.181-.303c1.326.371 2.629 1.136 3.591 1.689l3.121 1.786 25.022 14.25 25.021 14.249 3.129 1.78a12.653 12.653 0 0 1 3.219 2.627 12.584 12.584 0 0 1 3.099 7.586c.03.742.022 1.28.022 1.893v12.592l.016 28.779v21.586c0 .318.015.568 0 .931 0 .348-.023.697-.069 1.045-.06.696-.204 1.378-.386 2.052a12.615 12.615 0 0 1-1.757 3.77 12.353 12.353 0 0 1-2.902 2.984c-.273.211-.576.393-.863.582-.296.19-.531.318-.796.477l-1.545.917-6.197 3.664-12.386 7.329-24.779 14.666-6.196 3.665-3.099 1.832-1.545.916c-.576.333-1.197.659-1.833.901a12.296 12.296 0 0 1-8.053.341c-.659-.189-1.288-.454-1.909-.742-.288-.159-.629-.326-.879-.477l-.78-.447-3.121-1.794-24.946-14.378-23.983-13.856-3.227-1.855a11.857 11.857 0 0 1-3.144-2.718c-1.788-2.151-2.765-4.99-2.735-7.791l.023-15.272c.06-20.405.295-40.689 1.144-57.187 1.204 16.286 1.5 36.494 1.553 56.922v15.302c0 .333 0 .606.015.878.007.273.045.545.076.818.083.545.197 1.083.371 1.598a9.309 9.309 0 0 0 1.53 2.877 9.26 9.26 0 0 0 2.409 2.165 12.1 12.1 0 0 0 .758.447l.803.462 1.606.924 24.248 13.757 15.636 8.904 7.575 4.316 4.136 2.354 1.061.606c.356.204.727.424 1.023.568a9.68 9.68 0 0 0 1.999.757 9.256 9.256 0 0 0 4.341.023 9.133 9.133 0 0 0 2.091-.765l.492-.273.561-.333 1.136-.681 9.212-5.52 33.96-20.344 11.189-6.708c1.227-.712 1.917-1.409 2.402-1.954.462-.538.659-.855.659-.855.583-.818.992-1.75 1.272-2.711.129-.485.235-.977.281-1.476.06-.5.053-.977.053-1.621l.015-7.193.022-14.393.046-28.779v-14.302c-.091-2.037-.909-4.021-2.25-5.558a9.5 9.5 0 0 0-2.356-1.931l-3.121-1.786-24.991-14.303-24.999-14.31-3.136-1.787c-1.106-.643-1.924-1.113-2.947-1.4a9.306 9.306 0 0 0-6.098.242c-.492.182-.932.416-1.409.689l-1.561.916-3.121 1.825-6.242 3.642c-16.65 9.691-33.392 19.155-50.27 27.87l.03.023zm-172.392 78.538c-15.984 10.676-32.324 20.754-48.793 30.619l-6.182 3.687-3.09 1.84-1.546.916c-.598.341-1.22.667-1.871.909a12.48 12.48 0 0 1-8.181.303c-1.326-.371-2.63-1.136-3.591-1.689l-3.129-1.786-25.021-14.25-25.022-14.249-3.128-1.78a12.657 12.657 0 0 1-3.22-2.627 12.584 12.584 0 0 1-3.098-7.586c-.03-.742-.023-1.28-.023-1.893v-12.592l-.015-28.779v-21.586c0-.318-.015-.568 0-.931a8.15 8.15 0 0 1 .068-1.045c.06-.696.205-1.378.386-2.052a12.6 12.6 0 0 1 1.758-3.77 12.322 12.322 0 0 1 2.901-2.983c.273-.212.576-.394.864-.583.295-.19.53-.318.795-.477l1.546-.917 6.196-3.664 12.386-7.329 24.78-14.666 6.196-3.665 3.098-1.832 1.545-.916c.576-.333 1.197-.659 1.834-.901a12.295 12.295 0 0 1 8.052-.341c.66.189 1.288.454 1.91.742.287.159.628.326.878.477l.78.447 3.121 1.794 24.946 14.378 23.984 13.856 3.227 1.855a11.873 11.873 0 0 1 3.144 2.718c1.787 2.151 2.765 4.99 2.734 7.791l-.022 15.272c-.061 20.405-.296 40.689-1.144 57.187-1.205-16.286-1.5-36.494-1.553-56.922v-15.302c0-.333 0-.606-.015-.878-.008-.273-.046-.545-.076-.818a9.515 9.515 0 0 0-.371-1.598 9.333 9.333 0 0 0-1.531-2.877 9.244 9.244 0 0 0-2.409-2.165 12.35 12.35 0 0 0-.757-.447l-.803-.462-1.606-.923-24.249-13.758-15.635-8.904a2691.336 2691.336 0 0 1-7.576-4.315l-4.136-2.355-1.06-.606c-.356-.204-.728-.424-1.023-.568a9.681 9.681 0 0 0-2-.757 9.254 9.254 0 0 0-4.34-.023 9.133 9.133 0 0 0-2.092.765l-.492.273-.56.333-1.137.681-9.212 5.52-33.96 20.344a7861.435 7861.435 0 0 0-11.189 6.709c-1.227.711-1.916 1.408-2.401 1.953-.462.538-.66.856-.66.856-.582.817-.992 1.749-1.272 2.71a8.915 8.915 0 0 0-.28 1.477c-.06.499-.053.976-.053 1.62l-.015 7.193-.023 14.393-.045 28.779v14.302c.09 2.037.909 4.021 2.25 5.558a9.497 9.497 0 0 0 2.355 1.931l3.121 1.786 24.992 14.303 24.998 14.31 3.136 1.787c1.106.643 1.925 1.113 2.947 1.4a9.306 9.306 0 0 0 6.099-.242c.492-.182.931-.416 1.408-.689l1.561-.916 3.121-1.825 6.242-3.642c16.651-9.691 33.392-19.155 50.27-27.87l-.022-.023z" fill="#000"/><path d="M206.982 196.583c-1.371 0-2.629-.234-3.757-.696a8.84 8.84 0 0 1-4.917-4.914c-.462-1.136-.697-2.378-.697-3.733s.235-2.597.697-3.733a8.85 8.85 0 0 1 4.917-4.913c1.136-.462 2.378-.697 3.734-.697s2.599.235 3.735.697a8.853 8.853 0 0 1 2.962 1.953 8.725 8.725 0 0 1 1.947 2.96c.454 1.136.681 2.378.681 3.733s-.227 2.582-.681 3.718a8.71 8.71 0 0 1-1.947 2.975 8.855 8.855 0 0 1-2.962 1.954c-1.136.462-2.371.696-3.712.696zm-.023-4.119a4.82 4.82 0 0 0 1.947-.386 4.617 4.617 0 0 0 1.545-1.09 4.858 4.858 0 0 0 1.016-1.658 5.82 5.82 0 0 0 .363-2.082c0-.75-.121-1.454-.363-2.082a5.071 5.071 0 0 0-1.016-1.659 4.632 4.632 0 0 0-1.545-1.09 4.837 4.837 0 0 0-1.947-.386 4.84 4.84 0 0 0-1.947.386 4.774 4.774 0 0 0-1.56 1.09 4.648 4.648 0 0 0-1.015 1.659 6.137 6.137 0 0 0-.349 2.082c0 .749.114 1.453.349 2.097a4.617 4.617 0 0 0 1.015 1.658 4.86 4.86 0 0 0 1.56 1.083 4.84 4.84 0 0 0 1.947.386v-.008zm17.325 4.089c-1.151 0-2.174-.303-3.076-.916-.901-.606-1.621-1.454-2.151-2.521-.53-1.076-.795-2.287-.795-3.642s.265-2.62.795-3.68c.53-1.068 1.265-1.9 2.189-2.506s1.985-.916 3.167-.916c.651 0 1.25.091 1.788.28a4.699 4.699 0 0 1 1.431.787 5.112 5.112 0 0 1 1.697 2.559l-.848-.106v-3.24h4.098v13.666h-4.174v-3.293l.924-.023a4.458 4.458 0 0 1-.666 1.363c-.311.431-.69.81-1.137 1.136a5.703 5.703 0 0 1-1.492.772 5.37 5.37 0 0 1-1.75.28zm1.136-3.475c.637 0 1.182-.144 1.652-.439.462-.288.825-.705 1.083-1.25s.386-1.181.386-1.915-.128-1.378-.386-1.916a3.063 3.063 0 0 0-1.083-1.264c-.462-.303-1.015-.447-1.652-.447s-1.159.151-1.606.447a3.04 3.04 0 0 0-1.068 1.264c-.257.545-.386 1.181-.386 1.916s.129 1.378.386 1.915.614.954 1.068 1.25.993.439 1.606.439zm10.795 3.248v-19.05h4.121v19.05h-4.121zm3.97-4.013l-1.523-3.089 6.386-6.565h5.432l-10.303 9.654h.008zm5.303 4.013l-4.818-6.231 2.909-2.264 6.772 8.495h-4.871.008zm-84.352 31.149c-1.356 0-2.606-.227-3.75-.682a8.794 8.794 0 0 1-2.977-1.93 8.571 8.571 0 0 1-1.947-2.961c-.455-1.143-.682-2.4-.682-3.77s.243-2.575.72-3.71a8.926 8.926 0 0 1 1.992-2.946 9.034 9.034 0 0 1 3.015-1.946c1.159-.461 2.424-.696 3.795-.696.856 0 1.697.113 2.523.333a8.56 8.56 0 0 1 2.303.992 7.665 7.665 0 0 1 1.841 1.56l-2.682 3.066a7.683 7.683 0 0 0-1.144-.992 5.15 5.15 0 0 0-1.326-.659 4.857 4.857 0 0 0-1.545-.234 5.23 5.23 0 0 0-1.947.371 4.78 4.78 0 0 0-1.598 1.052 4.796 4.796 0 0 0-1.068 1.658c-.258.651-.387 1.386-.387 2.188s.129 1.507.387 2.151a4.88 4.88 0 0 0 1.083 1.658 4.434 4.434 0 0 0 1.689 1.052c.659.243 1.394.364 2.205.364a5.11 5.11 0 0 0 1.568-.235 6.183 6.183 0 0 0 1.379-.628 5.525 5.525 0 0 0 1.121-.917l2.113 3.347c-.432.477-1 .909-1.712 1.287s-1.5.674-2.371.886a10.97 10.97 0 0 1-2.613.318l.015.023zm13.908.022c-1.015 0-1.879-.219-2.591-.658s-1.265-1.068-1.651-1.893-.576-1.81-.576-2.961v-8.442h4.144v7.875c0 .552.083 1.022.257 1.415a2.04 2.04 0 0 0 .773.916c.341.212.758.319 1.235.319a2.63 2.63 0 0 0 .992-.182c.303-.121.561-.288.773-.5a2.36 2.36 0 0 0 .682-1.688v-8.162h4.144v13.666h-3.887l-.181-2.809.772-.31a4.407 4.407 0 0 1-1.03 1.734 5.345 5.345 0 0 1-1.727 1.211 5.098 5.098 0 0 1-2.136.447l.007.022zm11.871-.28v-13.666h3.916l.182 4.452-.773-.848a5.498 5.498 0 0 1 1.015-1.984 5.51 5.51 0 0 1 1.659-1.393 4.243 4.243 0 0 1 2.038-.515c.311 0 .599.023.864.076l.735.182-1.137 4.558c-.189-.122-.439-.22-.757-.296a4.331 4.331 0 0 0-.993-.113c-.378 0-.727.06-1.053.189a2.23 2.23 0 0 0-.825.553 2.62 2.62 0 0 0-.531.848 3.007 3.007 0 0 0-.189 1.105v6.845h-4.144l-.007.007zm11.719 0v-13.666h3.916l.182 4.452-.773-.848a5.484 5.484 0 0 1 1.016-1.984 5.485 5.485 0 0 1 1.659-1.393 4.236 4.236 0 0 1 2.037-.515c.311 0 .599.023.864.076l.735.182-1.137 4.558c-.189-.122-.439-.22-.757-.296a4.331 4.331 0 0 0-.993-.113c-.378 0-.727.06-1.052.189s-.599.31-.826.553a2.618 2.618 0 0 0-.53.848c-.129.325-.19.696-.19 1.105v6.845h-4.144l-.007.007zm14.007-16.377c-.773 0-1.379-.181-1.818-.552s-.659-.894-.659-1.583a1.94 1.94 0 0 1 .666-1.522c.447-.393 1.046-.59 1.803-.59s1.371.181 1.803.552.644.886.644 1.56-.22 1.151-.659 1.545-1.038.59-1.788.59h.008zm-2.061 16.37v-13.667h4.121v13.667h-4.121zm13.992.265c-1.326 0-2.508-.311-3.553-.924a6.775 6.775 0 0 1-2.485-2.536c-.606-1.076-.916-2.287-.916-3.642s.303-2.567.916-3.642a6.777 6.777 0 0 1 2.485-2.537c1.045-.62 2.235-.923 3.553-.923 1.22 0 2.341.212 3.363.643s1.834 1.03 2.432 1.802l-2.242 2.681a5.64 5.64 0 0 0-.849-.773 4.01 4.01 0 0 0-1.083-.568 3.781 3.781 0 0 0-1.235-.204c-.651 0-1.227.151-1.727.447-.5.303-.886.719-1.159 1.249s-.409 1.143-.409 1.825.144 1.241.424 1.779a3.25 3.25 0 0 0 1.174 1.264c.5.311 1.068.462 1.697.462.447 0 .856-.053 1.235-.166a3.69 3.69 0 0 0 1.045-.5c.319-.22.614-.5.887-.825l2.212 2.703c-.584.742-1.394 1.325-2.432 1.749a8.61 8.61 0 0 1-3.333.643v-.007zm12.696.022c-1.015 0-1.878-.219-2.591-.658s-1.265-1.068-1.651-1.893-.576-1.81-.576-2.961v-8.442h4.144v7.875c0 .552.083 1.022.258 1.415s.431.697.772.916c.341.212.758.319 1.235.319a2.63 2.63 0 0 0 .992-.182c.303-.121.561-.288.773-.5a2.36 2.36 0 0 0 .682-1.688v-8.162h4.144v13.666h-3.887l-.181-2.809.772-.31a4.407 4.407 0 0 1-1.03 1.734 5.345 5.345 0 0 1-1.727 1.211 5.098 5.098 0 0 1-2.136.447l.007.022zm11.901-.28v-19.049h4.121v19.049h-4.121zm12.333.28c-1.015 0-1.879-.219-2.591-.658s-1.265-1.068-1.651-1.893-.576-1.81-.576-2.961v-8.442h4.144v7.875c0 .552.083 1.022.257 1.415s.432.697.773.916c.341.212.757.319 1.235.319.363 0 .689-.061.992-.182s.561-.288.773-.5a2.36 2.36 0 0 0 .682-1.688v-8.162h4.143v13.666h-3.886l-.182-2.809.773-.31a4.418 4.418 0 0 1-1.03 1.734 5.356 5.356 0 0 1-1.727 1.211 5.1 5.1 0 0 1-2.137.447l.008.022zm11.848-.28v-13.666h3.916l.129 2.468-.538.023a4.41 4.41 0 0 1 .788-1.181 4.746 4.746 0 0 1 1.083-.863 5.272 5.272 0 0 1 1.265-.53c.44-.122.879-.182 1.326-.182a5.2 5.2 0 0 1 1.826.31c.553.205 1.03.538 1.439.992s.735 1.068.977 1.84l-.644-.053.205-.409a4.35 4.35 0 0 1 .863-1.12 5.358 5.358 0 0 1 1.175-.848 6.262 6.262 0 0 1 1.34-.53c.463-.122.91-.182 1.341-.182 1.084 0 1.985.212 2.705.628s1.265 1.053 1.636 1.893.553 1.863.553 3.067v8.343h-4.144v-8.003c0-.545-.075-1.007-.235-1.363s-.378-.628-.681-.81-.675-.272-1.121-.272c-.364 0-.69.06-.993.181a2.277 2.277 0 0 0-1.273 1.212 2.26 2.26 0 0 0-.181.924v8.131h-4.144v-8.033c0-.515-.076-.954-.235-1.31a1.701 1.701 0 0 0-.697-.825c-.31-.189-.666-.28-1.083-.28a2.63 2.63 0 0 0-.992.181 2.258 2.258 0 0 0-.773.493 2.201 2.201 0 0 0-.682 1.62v8.162h-4.144l-.007-.008z" fill="#25ab38"/><path d="M91.147 68.477V55.765h3.09v12.712h-3.09zm2.25-3.725l-.803-2.597 6.303-6.39h3.651l-9.151 8.987zm5.9 3.725L94.58 62.27l2.09-1.795 6.235 8.01h-3.599l-.007-.007zm4.826 0V58.84h2.765l.091 1.96-.583.22c.136-.439.371-.832.72-1.188a4.046 4.046 0 0 1 1.242-.864c.485-.219.992-.325 1.523-.325.727 0 1.341.151 1.833.447s.871.742 1.129 1.325c.25.59.378 1.302.378 2.15v5.92h-2.924V62.8c0-.386-.053-.705-.166-.962a1.173 1.173 0 0 0-.5-.575c-.228-.129-.5-.182-.826-.175a1.98 1.98 0 0 0-.712.122c-.22.083-.409.197-.561.348a1.75 1.75 0 0 0-.371.515 1.497 1.497 0 0 0-.136.636v5.77h-2.909.007zm16.075.182c-1.007 0-1.901-.22-2.681-.651a4.976 4.976 0 0 1-1.856-1.78c-.455-.749-.682-1.612-.682-2.581s.227-1.825.682-2.575a4.926 4.926 0 0 1 1.856-1.779c.78-.439 1.674-.651 2.681-.651s1.902.22 2.682.651c.78.44 1.394 1.03 1.841 1.78s.674 1.612.674 2.574-.227 1.824-.674 2.581a4.835 4.835 0 0 1-1.841 1.78c-.78.439-1.674.651-2.682.651zm0-2.506a2.1 2.1 0 0 0 1.167-.326c.341-.22.606-.515.795-.886s.288-.802.273-1.287a2.586 2.586 0 0 0-.273-1.295 2.362 2.362 0 0 0-.795-.9 2.1 2.1 0 0 0-1.167-.326c-.439 0-.825.106-1.174.325a2.23 2.23 0 0 0-.81.901 2.603 2.603 0 0 0-.273 1.295c-.015.485.076.916.273 1.287a2.13 2.13 0 0 0 .81.886 2.14 2.14 0 0 0 1.174.326zm8.841 2.324l-3.182-9.638h3.068l1.78 6.261-.378-.075 2-4.869h1.704l2.106 4.884-.417.038 1.781-6.247h3.068l-3.288 9.639h-2.144l-2.091-5.172.22.038-2.091 5.141h-2.144.008zm13.067 0V55.038h2.909v13.44h-2.909zm9.917.182c-1.069 0-1.993-.212-2.781-.644a4.62 4.62 0 0 1-1.833-1.764c-.432-.75-.651-1.597-.651-2.551 0-.735.121-1.416.363-2.037a4.91 4.91 0 0 1 1.015-1.605 4.52 4.52 0 0 1 1.553-1.053 5.073 5.073 0 0 1 1.97-.37c.674 0 1.295.12 1.863.363a4.418 4.418 0 0 1 1.463 1.014c.409.44.727.954.946 1.545s.319 1.242.288 1.946l-.015.78h-7.681l-.417-1.636h5.742l-.31.349v-.364a1.68 1.68 0 0 0-.281-.81 1.676 1.676 0 0 0-.644-.553 2.055 2.055 0 0 0-.909-.197c-.469 0-.878.091-1.204.28-.333.19-.583.462-.758.818-.166.356-.257.795-.257 1.318s.113 1 .333 1.385.553.697.977.916.94.326 1.538.326c.409 0 .78-.06 1.099-.182s.666-.325 1.045-.62l1.364 1.922c-.379.326-.773.591-1.197.803a6.035 6.035 0 0 1-1.296.462 5.59 5.59 0 0 1-1.318.151l-.007.008zm9.696.015c-.833 0-1.576-.212-2.227-.644s-1.159-1.022-1.538-1.779-.561-1.62-.561-2.59.19-1.831.561-2.589c.379-.757.886-1.355 1.545-1.787.652-.439 1.402-.65 2.25-.65a4.02 4.02 0 0 1 1.25.196c.402.136.765.318 1.091.545a3.14 3.14 0 0 1 .796.788c.204.295.325.605.363.916l-.689.166v-6.208h2.924v13.44h-2.705l-.166-2.197.583.091c-.038.303-.151.591-.356.871-.197.28-.454.523-.773.735a4.198 4.198 0 0 1-1.083.507c-.409.129-.833.19-1.28.19h.015zm.742-2.415c.447 0 .834-.106 1.159-.326a2.19 2.19 0 0 0 .758-.908c.182-.387.265-.84.265-1.363s-.091-.992-.265-1.378a2.075 2.075 0 0 0-.758-.909c-.333-.22-.712-.325-1.159-.325s-.833.106-1.151.325-.568.523-.758.909c-.181.386-.272.848-.272 1.378s.091.976.272 1.363.432.689.758.908c.318.22.704.326 1.151.326zm11.901 6.391a8.186 8.186 0 0 1-2.356-.35c-.787-.234-1.416-.53-1.901-.885l1.015-2.037a5.3 5.3 0 0 0 .848.447c.311.129.629.227.97.303a4.72 4.72 0 0 0 1.038.106c.614 0 1.121-.091 1.507-.273a1.84 1.84 0 0 0 .872-.825c.197-.371.288-.833.288-1.386v-1.612l.56.09c-.083.402-.295.765-.629 1.09a3.75 3.75 0 0 1-1.227.788 4.07 4.07 0 0 1-1.545.303c-.871 0-1.652-.204-2.333-.606a4.382 4.382 0 0 1-1.614-1.688c-.394-.72-.591-1.552-.591-2.499s.197-1.824.583-2.566a4.505 4.505 0 0 1 1.599-1.764c.682-.432 1.439-.644 2.288-.644a4.26 4.26 0 0 1 1.045.129 4.75 4.75 0 0 1 .924.333 3.57 3.57 0 0 1 .765.492c.228.19.409.394.546.606a1.93 1.93 0 0 1 .28.674l-.598.143.106-2.18h2.757v8.858c0 .788-.121 1.484-.356 2.098a4.115 4.115 0 0 1-1.038 1.56 4.4 4.4 0 0 1-1.644.968c-.644.22-1.371.326-2.181.326h.022zm.076-6.497c.47 0 .879-.106 1.227-.318s.614-.507.796-.878c.189-.379.28-.818.28-1.325s-.091-.954-.28-1.333a2.155 2.155 0 0 0-.796-.886c-.348-.212-.757-.318-1.227-.318s-.856.106-1.197.318a2.084 2.084 0 0 0-.788.886c-.189.379-.28.825-.28 1.333s.091.946.28 1.325a2.12 2.12 0 0 0 .788.878c.341.212.735.318 1.197.318zm12.257 2.506c-1.068 0-1.992-.212-2.78-.644s-1.402-1.014-1.833-1.764-.652-1.597-.652-2.551a5.55 5.55 0 0 1 .364-2.037c.242-.62.583-1.15 1.015-1.605a4.511 4.511 0 0 1 1.553-1.053 5.065 5.065 0 0 1 1.969-.37 4.7 4.7 0 0 1 1.864.363 4.404 4.404 0 0 1 1.462 1.014c.409.44.727.954.947 1.545s.318 1.242.288 1.946l-.015.78h-7.682l-.416-1.636h5.742l-.311.349v-.364a1.679 1.679 0 0 0-.28-.81 1.691 1.691 0 0 0-.644-.553 2.055 2.055 0 0 0-.909-.197c-.47 0-.879.091-1.205.28-.333.19-.583.462-.757.818-.167.356-.258.795-.258 1.318s.114 1 .334 1.385a2.33 2.33 0 0 0 .977.916c.424.22.939.326 1.538.326.409 0 .78-.06 1.098-.182s.667-.325 1.045-.62l1.364 1.922c-.379.326-.773.591-1.197.803a6.027 6.027 0 0 1-1.295.462c-.44.106-.879.151-1.318.151l-.008.008zm16.514 0c-.954 0-1.81-.182-2.568-.545s-1.356-.856-1.795-1.492a3.605 3.605 0 0 1-.667-2.105c0-.885.258-1.68.773-2.384s1.273-1.242 2.28-1.606l1.818 1.764c-.682.144-1.189.387-1.522.727s-.508.773-.508 1.287c0 .41.099.773.288 1.076.197.302.477.537.856.696.379.167.826.243 1.341.243.485 0 .939-.099 1.356-.303a3.661 3.661 0 0 0 1.128-.848c.334-.364.599-.795.811-1.295a6.19 6.19 0 0 0 .417-1.681h2.704a9.047 9.047 0 0 1-.56 2.15 7.754 7.754 0 0 1-1.008 1.787c-.409.53-.871.985-1.401 1.363a6.066 6.066 0 0 1-1.728.863 6.632 6.632 0 0 1-2.007.303h-.008zm4.599-.182l-1.273-1.31-1.091-1.014-2.674-2.832-1.197-1.385a8.11 8.11 0 0 1-.773-1.159 4.912 4.912 0 0 1-.409-1.007 3.473 3.473 0 0 1-.128-.87 3.1 3.1 0 0 1 .515-1.75c.348-.514.825-.916 1.431-1.218.614-.296 1.318-.447 2.114-.447a4.79 4.79 0 0 1 1.727.303c.53.197.992.484 1.379.848s.659.787.818 1.272l-2.288 1.362c-.204-.5-.432-.832-.674-1.014a1.391 1.391 0 0 0-.856-.273c-.265 0-.492.046-.674.129a.95.95 0 0 0-.417.371c-.098.159-.144.364-.144.606 0 .227.091.507.28.84a7.27 7.27 0 0 0 .72 1.038l.886 1.014.819.825 1.34 1.47 1.25 1.142 2.887 3.067h-3.599l.031-.008zM102.366 90.26l-4.03-9.638h3.212l2.401 7.208-.712.076 2.47-7.284h3.181l-4.234 9.638h-2.288zm12.295.182c-1.008 0-1.902-.22-2.682-.651a4.992 4.992 0 0 1-1.856-1.78c-.454-.75-.682-1.612-.682-2.581s.228-1.825.682-2.575a4.932 4.932 0 0 1 1.856-1.779c.78-.44 1.674-.651 2.682-.651s1.901.22 2.681.651a4.883 4.883 0 0 1 1.841 1.78c.447.749.675 1.612.675 2.574s-.228 1.824-.675 2.581a4.83 4.83 0 0 1-1.841 1.78c-.78.439-1.674.65-2.681.65zm0-2.506c.439 0 .826-.106 1.166-.326s.606-.515.796-.886a2.62 2.62 0 0 0 .273-1.287 2.585 2.585 0 0 0-.273-1.294 2.355 2.355 0 0 0-.796-.901 2.095 2.095 0 0 0-1.166-.326c-.44 0-.826.106-1.174.326s-.614.514-.811.9a2.603 2.603 0 0 0-.273 1.295c-.015.485.076.916.273 1.287.189.379.462.674.811.886.348.22.734.326 1.174.326zm11.34 2.506c-.932 0-1.765-.22-2.507-.651a4.714 4.714 0 0 1-1.75-1.787c-.432-.757-.644-1.613-.644-2.567s.212-1.81.644-2.566a4.777 4.777 0 0 1 1.75-1.787c.734-.44 1.575-.651 2.507-.651.856 0 1.652.15 2.371.454s1.296.727 1.72 1.272l-1.583 1.885a3.493 3.493 0 0 0-.599-.545 2.948 2.948 0 0 0-.765-.401 2.595 2.595 0 0 0-.871-.144c-.462 0-.864.106-1.22.318a2.235 2.235 0 0 0-.818.878c-.197.379-.288.803-.288 1.287s.099.879.303 1.257.477.674.826.886.75.326 1.197.326c.318 0 .606-.038.871-.122a2.43 2.43 0 0 0 .735-.356c.227-.159.432-.348.629-.582l1.56 1.907c-.409.523-.985.932-1.719 1.235a6.097 6.097 0 0 1-2.349.454zm9.227-.015c-.811 0-1.538-.212-2.174-.644s-1.144-1.022-1.515-1.78c-.379-.756-.561-1.612-.561-2.566s.19-1.847.561-2.597c.378-.75.886-1.34 1.545-1.772s1.402-.643 2.235-.643c.462 0 .879.068 1.265.197a3.4 3.4 0 0 1 1.007.552 3.66 3.66 0 0 1 .743.818c.204.31.356.636.454.992l-.598-.076v-2.286h2.886v9.638h-2.939v-2.324l.651-.015c-.098.34-.257.658-.469.961-.22.303-.485.568-.796.795s-.666.41-1.053.545a3.702 3.702 0 0 1-1.234.197l-.008.008zm.803-2.453c.447 0 .833-.106 1.159-.31s.583-.5.765-.88.273-.832.273-1.354-.091-.97-.273-1.356a2.136 2.136 0 0 0-.765-.885c-.326-.212-.712-.318-1.159-.318s-.818.106-1.136.318a2.172 2.172 0 0 0-.758.885c-.182.379-.273.833-.273 1.356s.091.969.273 1.355c.182.379.432.674.758.878.318.205.697.31 1.136.31zm13.401 2.491a4.2 4.2 0 0 1-1.25-.182 4.398 4.398 0 0 1-1.083-.492 3.042 3.042 0 0 1-.796-.72 2.18 2.18 0 0 1-.424-.847l.636-.22-.166 2.233h-2.705V76.822h2.924v6.103l-.598-.22a2.35 2.35 0 0 1 .416-.878c.205-.273.47-.515.781-.727a4.102 4.102 0 0 1 1.038-.5 3.777 3.777 0 0 1 1.159-.182c.833 0 1.575.212 2.227.644s1.159 1.022 1.538 1.78.56 1.62.56 2.589-.182 1.847-.553 2.604a4.49 4.49 0 0 1-1.515 1.78 3.83 3.83 0 0 1-2.182.643l-.007.008zm-.765-2.454c.439 0 .818-.105 1.144-.325a2.17 2.17 0 0 0 .757-.901c.174-.379.265-.833.265-1.355a3.18 3.18 0 0 0-.265-1.34 1.939 1.939 0 0 0-.757-.886 2.124 2.124 0 0 0-1.144-.31c-.432 0-.834.105-1.159.31a2.04 2.04 0 0 0-.765.886c-.182.386-.273.832-.273 1.34s.091.969.273 1.355a2.21 2.21 0 0 0 .765.9c.325.22.712.326 1.159.326zm10.211 2.454c-.712 0-1.325-.152-1.825-.462s-.887-.757-1.159-1.333c-.273-.583-.41-1.28-.41-2.09v-5.958h2.925v5.557c0 .386.06.72.181 1s.303.492.546.643.53.227.871.227c.258 0 .485-.045.697-.128s.394-.205.545-.356a1.58 1.58 0 0 0 .356-.53 1.7 1.7 0 0 0 .129-.666v-5.755h2.924v9.639h-2.742l-.129-1.977.546-.219c-.144.462-.387.87-.728 1.227a3.81 3.81 0 0 1-1.219.855 3.64 3.64 0 0 1-1.508.318v.008zm8.394-.205V76.82h2.909v13.44h-2.909zm8.878.167c-.81 0-1.538-.212-2.174-.644s-1.144-1.022-1.515-1.78c-.379-.756-.561-1.612-.561-2.566s.19-1.847.561-2.597c.379-.75.886-1.34 1.545-1.772s1.402-.643 2.235-.643c.462 0 .879.068 1.265.197.379.136.72.318 1.008.552a3.68 3.68 0 0 1 .742.818 3.46 3.46 0 0 1 .455.992l-.599-.076v-2.286h2.886v9.638h-2.939v-2.324l.652-.015a3.26 3.26 0 0 1-.47.961c-.22.303-.485.568-.796.795s-.666.41-1.053.545a3.702 3.702 0 0 1-1.234.197l-.008.008zm.803-2.453c.447 0 .833-.106 1.159-.31s.583-.5.765-.88.273-.832.273-1.354-.091-.97-.273-1.356a2.136 2.136 0 0 0-.765-.885c-.326-.212-.712-.318-1.159-.318s-.818.106-1.136.318a2.18 2.18 0 0 0-.758.885c-.182.379-.272.833-.272 1.356s.09.969.272 1.355c.182.379.432.674.758.878.318.205.697.31 1.136.31zm7.613 2.286v-9.638h2.765l.129 3.142-.545-.598c.144-.523.386-.984.719-1.4a3.92 3.92 0 0 1 1.175-.978 2.955 2.955 0 0 1 1.431-.363c.22 0 .425.015.606.053l.515.129-.803 3.21a2.028 2.028 0 0 0-.537-.212 3.036 3.036 0 0 0-.697-.083c-.265 0-.515.045-.743.136s-.424.22-.583.394a1.84 1.84 0 0 0-.371.598 2.102 2.102 0 0 0-.137.78v4.83h-2.924zm9.477 4.18l2.197-5.172.038 1.492-4.651-10.13h3.287l2.038 4.845.311.78a6.14 6.14 0 0 1 .219.803l-.401.234c.076-.181.151-.409.242-.681l.303-.879 1.78-5.103h3.303l-4.105 9.639-1.675 4.18h-2.886v-.008zm-60.042 17.611v-9.639h2.765l.129 3.143-.546-.599a3.9 3.9 0 0 1 1.894-2.377 2.962 2.962 0 0 1 1.432-.363c.219 0 .424.015.606.053l.515.128-.803 3.211a2.006 2.006 0 0 0-.538-.212 3.03 3.03 0 0 0-.697-.084c-.265 0-.515.046-.742.137s-.425.219-.584.393c-.159.167-.28.371-.371.598a2.11 2.11 0 0 0-.136.78v4.831h-2.924zm9.878-11.547c-.545 0-.97-.128-1.28-.393-.311-.258-.462-.629-.462-1.113 0-.44.159-.795.469-1.076.319-.28.735-.416 1.273-.416s.97.129 1.273.394c.303.257.454.628.454 1.098s-.151.81-.462 1.09-.727.416-1.265.416zm-1.454 11.547v-9.639h2.908v9.639h-2.908zm9.87.182c-.932 0-1.765-.22-2.507-.652a4.712 4.712 0 0 1-1.75-1.786c-.432-.758-.644-1.613-.644-2.567s.212-1.81.644-2.567a4.781 4.781 0 0 1 1.75-1.787c.735-.439 1.575-.651 2.507-.651.856 0 1.652.152 2.371.454s1.296.727 1.72 1.272l-1.583 1.886a3.463 3.463 0 0 0-.599-.545 2.95 2.95 0 0 0-.765-.402 2.605 2.605 0 0 0-.871-.144c-.462 0-.864.106-1.22.318a2.237 2.237 0 0 0-.818.879c-.197.378-.288.802-.288 1.287s.099.878.303 1.257.478.674.826.886a2.27 2.27 0 0 0 1.197.325c.318 0 .606-.038.871-.121.265-.076.508-.197.735-.356s.432-.348.629-.583l1.56 1.908c-.409.523-.985.931-1.719 1.234a6.092 6.092 0 0 1-2.349.455zm5.667-.182v-13.44h2.848v5.755l-.583.219c.136-.439.371-.832.719-1.188a4.05 4.05 0 0 1 1.243-.863 3.64 3.64 0 0 1 1.522-.326c.728 0 1.341.151 1.834.447s.871.742 1.128 1.325c.25.59.379 1.302.379 2.15v5.921h-2.924v-5.686c0-.386-.053-.704-.167-.962a1.16 1.16 0 0 0-.5-.575c-.227-.129-.5-.182-.825-.174a1.96 1.96 0 0 0-.712.121 1.56 1.56 0 0 0-.561.348 1.75 1.75 0 0 0-.371.515 1.498 1.498 0 0 0-.137.636v5.769h-2.909l.016.008zm97.798-37.504c-.834 0-1.591-.099-2.265-.303a5.775 5.775 0 0 1-1.788-.87 7.191 7.191 0 0 1-1.402-1.356l1.872-2.12c.606.81 1.212 1.355 1.825 1.635s1.243.417 1.902.417c.325 0 .621-.046.886-.129a1.43 1.43 0 0 0 .621-.37c.152-.16.22-.364.22-.607a.915.915 0 0 0-.136-.492 1.264 1.264 0 0 0-.372-.378 3.51 3.51 0 0 0-.56-.303 6.151 6.151 0 0 0-.69-.235 11.718 11.718 0 0 0-.742-.174c-.705-.159-1.311-.348-1.833-.583-.523-.227-.955-.507-1.296-.84a3.222 3.222 0 0 1-.772-1.144 3.96 3.96 0 0 1-.258-1.446 3.17 3.17 0 0 1 .394-1.567 3.921 3.921 0 0 1 1.053-1.234 4.858 4.858 0 0 1 1.538-.803 5.847 5.847 0 0 1 1.818-.28c.833 0 1.553.09 2.151.265s1.114.424 1.546.757.795.72 1.098 1.181l-1.909 1.833a3.95 3.95 0 0 0-.826-.78 3.55 3.55 0 0 0-.947-.47 3.37 3.37 0 0 0-1.03-.166c-.356 0-.674.045-.932.136s-.462.22-.606.379a.876.876 0 0 0-.219.59.81.81 0 0 0 .182.53c.121.144.287.273.492.394a3.27 3.27 0 0 0 .712.288c.265.075.545.143.833.189.667.136 1.265.31 1.811.53a5.57 5.57 0 0 1 1.401.802c.394.318.697.69.909 1.113.212.432.318.932.318 1.5 0 .885-.212 1.627-.643 2.24s-1.016 1.076-1.765 1.401c-.743.318-1.599.485-2.569.485l-.022-.015zm11.59 0c-1.068 0-1.992-.212-2.78-.644s-1.402-1.014-1.833-1.764-.652-1.597-.652-2.551a5.55 5.55 0 0 1 .364-2.037c.242-.62.583-1.15 1.015-1.605a4.512 4.512 0 0 1 1.553-1.053 5.067 5.067 0 0 1 1.969-.37 4.7 4.7 0 0 1 1.864.363 4.405 4.405 0 0 1 1.462 1.014c.409.44.727.954.947 1.545s.318 1.242.288 1.946l-.015.78h-7.682l-.416-1.636h5.742l-.311.349v-.364a1.679 1.679 0 0 0-.28-.81 1.691 1.691 0 0 0-.644-.553 2.056 2.056 0 0 0-.909-.197c-.47 0-.879.091-1.205.28-.333.19-.583.462-.757.818-.167.356-.258.795-.258 1.318s.114 1 .334 1.385a2.33 2.33 0 0 0 .977.916c.424.22.939.326 1.538.326.409 0 .78-.06 1.098-.182s.667-.325 1.045-.62l1.364 1.923a5.84 5.84 0 0 1-1.197.802 6.027 6.027 0 0 1-1.295.462c-.44.106-.879.151-1.318.151l-.008.008zm12.492 3.816v-6.315l.636.144a1.984 1.984 0 0 1-.379.879 3.193 3.193 0 0 1-.772.757 3.74 3.74 0 0 1-1.046.514 3.77 3.77 0 0 1-1.197.19c-.848 0-1.598-.212-2.249-.644s-1.167-1.022-1.546-1.772-.56-1.612-.56-2.581.181-1.848.553-2.597.878-1.34 1.522-1.772 1.379-.644 2.189-.644c.463 0 .894.069 1.311.197.409.137.78.31 1.106.53a3.05 3.05 0 0 1 .795.757 1.82 1.82 0 0 1 .349.901l-.652.106.106-2.286h2.765v13.636h-2.931zm-2.106-6.284c.447 0 .833-.106 1.159-.31s.583-.5.765-.88.273-.832.273-1.354-.091-.97-.273-1.356a2.136 2.136 0 0 0-.765-.886c-.326-.212-.712-.318-1.159-.318s-.818.107-1.144.319a2.119 2.119 0 0 0-.758.9 3.233 3.233 0 0 0-.265 1.34c0 .508.091.97.265 1.356a1.96 1.96 0 0 0 .758.878c.333.205.712.31 1.144.31zm10.901 2.491c-.712 0-1.326-.152-1.826-.462s-.886-.757-1.159-1.333c-.273-.583-.409-1.28-.409-2.09v-5.958h2.924v5.557c0 .386.061.72.182 1a1.38 1.38 0 0 0 .545.643c.243.152.531.227.872.227.257 0 .484-.045.696-.128a1.6 1.6 0 0 0 .546-.356c.151-.152.273-.326.356-.53a1.72 1.72 0 0 0 .129-.666v-5.755h2.924v9.639h-2.742l-.129-1.977.545-.219a3.07 3.07 0 0 1-.727 1.226 3.803 3.803 0 0 1-1.22.856 3.635 3.635 0 0 1-1.507.318v.008zm12.969-.023c-1.068 0-1.992-.212-2.78-.644s-1.402-1.014-1.834-1.764-.651-1.597-.651-2.551a5.55 5.55 0 0 1 .364-2.037c.242-.62.583-1.15 1.015-1.605a4.512 4.512 0 0 1 1.553-1.053 5.067 5.067 0 0 1 1.969-.37c.674 0 1.296.12 1.864.363.56.242 1.053.583 1.462 1.014.409.44.727.954.947 1.545a4.95 4.95 0 0 1 .288 1.946l-.016.78h-7.681l-.417-1.636h5.743l-.311.349v-.364a1.679 1.679 0 0 0-.28-.81 1.691 1.691 0 0 0-.644-.553 2.056 2.056 0 0 0-.909-.197c-.47 0-.879.091-1.205.28-.333.19-.583.462-.757.818-.167.356-.258.795-.258 1.318s.114 1 .333 1.385.553.697.978.916.939.326 1.537.326c.41 0 .781-.06 1.099-.182s.667-.325 1.045-.62l1.364 1.923a5.84 5.84 0 0 1-1.197.802 6.027 6.027 0 0 1-1.295.462 5.6 5.6 0 0 1-1.319.151l-.007.008zm6.045-.182v-9.638h2.765l.091 1.96-.583.22c.136-.439.371-.832.719-1.188a4.064 4.064 0 0 1 1.243-.863c.484-.22.992-.326 1.522-.326.728 0 1.341.151 1.834.447s.871.742 1.128 1.325c.25.59.379 1.302.379 2.15v5.92h-2.924v-5.685c0-.386-.053-.704-.167-.962a1.163 1.163 0 0 0-.5-.575c-.227-.13-.5-.182-.825-.175a1.96 1.96 0 0 0-.712.122 1.56 1.56 0 0 0-.561.348 1.75 1.75 0 0 0-.371.515 1.497 1.497 0 0 0-.137.636v5.77h-2.909.008zm15.772.182c-.932 0-1.765-.22-2.508-.651a4.72 4.72 0 0 1-1.749-1.787c-.432-.757-.644-1.613-.644-2.567s.212-1.81.644-2.567a4.774 4.774 0 0 1 1.749-1.786c.735-.44 1.576-.651 2.508-.651a6.07 6.07 0 0 1 2.371.454c.72.303 1.295.727 1.72 1.272l-1.584 1.885a3.448 3.448 0 0 0-.598-.545 2.944 2.944 0 0 0-.765-.401 2.595 2.595 0 0 0-.871-.144c-.462 0-.864.106-1.22.318a2.235 2.235 0 0 0-.818.878c-.197.379-.288.803-.288 1.287s.098.879.303 1.257.477.674.826.886.75.325 1.197.325c.318 0 .606-.037.871-.12a2.49 2.49 0 0 0 .735-.356c.227-.16.431-.349.628-.584l1.561 1.909c-.409.522-.985.93-1.72 1.234a6.092 6.092 0 0 1-2.348.454zm10.265 0c-1.069 0-1.993-.212-2.781-.644a4.62 4.62 0 0 1-1.833-1.764c-.432-.75-.651-1.597-.651-2.551 0-.735.121-1.416.363-2.037a4.91 4.91 0 0 1 1.015-1.605 4.521 4.521 0 0 1 1.553-1.053 5.075 5.075 0 0 1 1.97-.37c.674 0 1.295.12 1.864.363.56.242 1.052.583 1.462 1.014.409.44.727.954.946 1.545s.319 1.242.288 1.946l-.015.78h-7.681l-.417-1.636h5.742l-.31.349v-.364a1.68 1.68 0 0 0-.281-.81 1.676 1.676 0 0 0-.644-.553 2.056 2.056 0 0 0-.909-.197c-.469 0-.878.091-1.204.28-.333.19-.583.462-.758.818-.166.356-.257.795-.257 1.318s.113 1 .333 1.385.553.697.977.916.94.326 1.538.326c.409 0 .78-.06 1.099-.182s.666-.325 1.045-.62l1.364 1.923a5.84 5.84 0 0 1-1.197.802 6.035 6.035 0 0 1-1.296.462 5.585 5.585 0 0 1-1.318.151l-.007.008zm9.696.023c-.833 0-1.576-.212-2.227-.644s-1.159-1.022-1.538-1.78-.56-1.62-.56-2.589.189-1.832.56-2.59c.379-.756.886-1.354 1.545-1.786.652-.44 1.402-.651 2.25-.651a3.99 3.99 0 0 1 1.25.197c.402.136.765.318 1.091.545s.591.492.796.787.325.606.363.916l-.689.167v-6.208h2.924v13.439h-2.704l-.167-2.196.583.09c-.038.304-.151.592-.356.872-.197.28-.454.522-.773.734a4.198 4.198 0 0 1-1.083.507c-.409.129-.833.19-1.28.19h.015zm.742-2.416c.447 0 .834-.106 1.159-.325s.576-.523.758-.909.265-.84.265-1.363-.091-.992-.265-1.378a2.075 2.075 0 0 0-.758-.908c-.333-.22-.712-.326-1.159-.326s-.833.106-1.151.326-.568.522-.758.908c-.181.386-.272.848-.272 1.378s.091.977.272 1.363.432.69.758.909c.318.22.704.325 1.151.325zm-88.503 24.184c-.954 0-1.81-.182-2.568-.546s-1.356-.855-1.795-1.491a3.605 3.605 0 0 1-.667-2.105 3.94 3.94 0 0 1 .773-2.385c.515-.704 1.273-1.242 2.28-1.605l1.818 1.764c-.681.144-1.189.386-1.522.727a1.77 1.77 0 0 0-.508 1.287c0 .409.099.772.288 1.075.197.303.477.538.856.697.379.166.826.242 1.341.242.485 0 .939-.099 1.356-.303a3.677 3.677 0 0 0 1.129-.848c.333-.363.598-.795.81-1.295.205-.5.349-1.06.417-1.68h2.704a9.047 9.047 0 0 1-.56 2.15 7.754 7.754 0 0 1-1.008 1.787c-.409.53-.871.984-1.401 1.362a6.063 6.063 0 0 1-1.728.864 6.63 6.63 0 0 1-2.007.303h-.008zm4.599-.182l-1.273-1.31-1.091-1.015L255.184 91l-1.197-1.386a8.111 8.111 0 0 1-.773-1.158 4.907 4.907 0 0 1-.409-1.007 3.473 3.473 0 0 1-.128-.871c0-.651.174-1.234.515-1.75.348-.514.825-.915 1.431-1.218.614-.295 1.319-.447 2.114-.447.621 0 1.189.099 1.727.303a4.07 4.07 0 0 1 1.379.848c.386.364.659.788.818 1.272l-2.288 1.363c-.204-.5-.432-.833-.674-1.015a1.39 1.39 0 0 0-.856-.272c-.265 0-.492.045-.674.128a.95.95 0 0 0-.417.371c-.098.16-.144.364-.144.606 0 .227.091.508.281.84a7.12 7.12 0 0 0 .719 1.038l.887 1.014.818.826 1.34 1.469 1.25 1.143 2.887 3.066h-3.599l.031-.007zm14.893.181a4.91 4.91 0 0 1-2.508-.65 4.728 4.728 0 0 1-1.75-1.788c-.431-.757-.643-1.612-.643-2.566s.212-1.81.643-2.567a4.784 4.784 0 0 1 1.75-1.787c.735-.439 1.576-.651 2.508-.651a6.07 6.07 0 0 1 2.371.454c.72.303 1.295.727 1.72 1.272l-1.584 1.886a3.448 3.448 0 0 0-.598-.546 2.948 2.948 0 0 0-.765-.4 2.6 2.6 0 0 0-.871-.145c-.463 0-.864.106-1.22.318a2.228 2.228 0 0 0-.818.879c-.197.378-.288.802-.288 1.287s.098.878.303 1.257.477.673.826.885.75.326 1.197.326c.318 0 .606-.038.871-.121.265-.076.507-.197.735-.356s.431-.348.628-.583l1.561 1.908c-.409.522-.985.931-1.72 1.234a6.093 6.093 0 0 1-2.348.454zm10.204 0c-1.008 0-1.902-.22-2.682-.65a4.992 4.992 0 0 1-1.856-1.78c-.454-.75-.682-1.613-.682-2.582s.228-1.825.682-2.574a4.932 4.932 0 0 1 1.856-1.78c.78-.439 1.674-.65 2.682-.65s1.901.219 2.682.65c.78.44 1.393 1.03 1.84 1.78s.675 1.613.675 2.574-.228 1.825-.675 2.582a4.833 4.833 0 0 1-1.84 1.78c-.781.438-1.675.65-2.682.65zm0-2.506c.439 0 .826-.106 1.166-.325s.606-.515.796-.886.288-.803.273-1.287a2.585 2.585 0 0 0-.273-1.295 2.355 2.355 0 0 0-.796-.901 2.095 2.095 0 0 0-1.166-.326c-.44 0-.826.106-1.174.326s-.614.515-.811.901a2.603 2.603 0 0 0-.273 1.295c-.015.484.076.916.273 1.287.189.378.462.674.811.886.348.22.734.325 1.174.325zm7.106 2.325v-13.44h2.848v5.755l-.583.22c.136-.44.371-.834.719-1.19a4.062 4.062 0 0 1 1.243-.863c.484-.22.992-.325 1.522-.325.727 0 1.341.151 1.833.447s.872.742 1.129 1.325c.25.59.379 1.302.379 2.15v5.92h-2.924V90.47c0-.387-.053-.705-.167-.962a1.168 1.168 0 0 0-.5-.575c-.227-.13-.5-.182-.825-.175a1.97 1.97 0 0 0-.713.122 1.562 1.562 0 0 0-.56.348 1.75 1.75 0 0 0-.371.515 1.498 1.498 0 0 0-.137.636v5.77h-2.909l.016.007zm16.127.181c-1.068 0-1.992-.212-2.78-.643s-1.401-1.015-1.833-1.764-.651-1.598-.651-2.552c0-.734.121-1.416.363-2.037a4.91 4.91 0 0 1 1.015-1.605 4.52 4.52 0 0 1 1.553-1.052 5.073 5.073 0 0 1 1.97-.371c.674 0 1.295.121 1.863.363a4.404 4.404 0 0 1 1.462 1.015c.41.439.728.954.947 1.544s.319 1.242.288 1.946l-.015.78h-7.681l-.417-1.635h5.742l-.31.348v-.363a1.68 1.68 0 0 0-.281-.81 1.676 1.676 0 0 0-.644-.553 2.056 2.056 0 0 0-.909-.197c-.469 0-.878.09-1.204.28-.333.19-.583.462-.758.818-.166.356-.257.795-.257 1.317s.113 1 .333 1.386.553.696.977.916.94.325 1.538.325a3.1 3.1 0 0 0 1.099-.181c.318-.121.666-.326 1.045-.621l1.363 1.923a5.81 5.81 0 0 1-1.196.803 6.035 6.035 0 0 1-1.296.461 5.59 5.59 0 0 1-1.318.152l-.008.007zm6.053-.181v-9.639h2.765l.129 3.142-.545-.598c.144-.522.386-.984.719-1.4a3.916 3.916 0 0 1 1.174-.977 2.962 2.962 0 0 1 1.432-.364c.22 0 .424.016.606.053l.515.13-.803 3.21a2.022 2.022 0 0 0-.538-.213 3.02 3.02 0 0 0-.696-.083c-.266 0-.516.046-.743.136a1.56 1.56 0 0 0-.583.394c-.159.167-.28.371-.371.598a2.103 2.103 0 0 0-.137.78v4.83h-2.924zm12.462.181c-1.068 0-1.993-.212-2.78-.643s-1.402-1.015-1.834-1.764-.651-1.598-.651-2.552c0-.734.121-1.416.363-2.037s.584-1.15 1.016-1.605a4.506 4.506 0 0 1 1.552-1.052 5.073 5.073 0 0 1 1.97-.371c.674 0 1.295.121 1.864.363a4.42 4.42 0 0 1 1.462 1.015 4.6 4.6 0 0 1 .947 1.544c.219.591.318 1.242.287 1.946l-.015.78h-7.681l-.417-1.635h5.742l-.31.348v-.363a1.67 1.67 0 0 0-.281-.81 1.68 1.68 0 0 0-.643-.553 2.062 2.062 0 0 0-.909-.197c-.47 0-.879.09-1.205.28-.333.19-.583.462-.758.818-.166.356-.257.795-.257 1.317s.114 1 .333 1.386.553.696.977.916.94.325 1.538.325a3.1 3.1 0 0 0 1.099-.181c.318-.121.666-.326 1.045-.621l1.364 1.923c-.379.326-.773.59-1.197.803a6.015 6.015 0 0 1-1.296.461 5.585 5.585 0 0 1-1.318.152l-.007.007zm6.045-.181v-9.639h2.765l.091 1.961-.584.22a2.92 2.92 0 0 1 .72-1.189 4.071 4.071 0 0 1 1.242-.863c.485-.22.993-.326 1.523-.326.727 0 1.341.152 1.833.447s.872.742 1.129 1.325c.25.59.379 1.302.379 2.15v5.921h-2.924v-5.686c0-.386-.053-.704-.167-.961a1.173 1.173 0 0 0-.5-.576c-.227-.129-.5-.182-.826-.174a1.99 1.99 0 0 0-.712.121 1.563 1.563 0 0 0-.56.348 1.734 1.734 0 0 0-.371.515 1.497 1.497 0 0 0-.137.636v5.77h-2.909.008zm10.628-7.102V86.51h6.485v2.544h-6.485zm1.705 7.102V84.079h2.909v12.077h-2.909zM118.842 339.524v-12.712h5.326c.932 0 1.788.151 2.56.462a5.85 5.85 0 0 1 2.008 1.317c.56.568.992 1.242 1.295 2.014s.455 1.628.455 2.559-.152 1.787-.455 2.567a5.764 5.764 0 0 1-1.295 2.014 5.967 5.967 0 0 1-2.008 1.31c-.772.31-1.628.462-2.56.462h-5.326v.007zm3.091-2.105l-.416-.621h2.56c.508 0 .962-.09 1.364-.265a3.057 3.057 0 0 0 1.03-.734c.288-.318.507-.697.666-1.143s.235-.947.235-1.492-.075-1.045-.235-1.491a3.342 3.342 0 0 0-.666-1.144 2.95 2.95 0 0 0-1.03-.734 3.4 3.4 0 0 0-1.364-.265h-2.613l.469-.583v8.472zm12.242-9.441c-.545 0-.97-.129-1.28-.394-.311-.257-.462-.628-.462-1.113 0-.439.159-.795.469-1.075.319-.28.735-.417 1.273-.417s.97.129 1.273.394c.303.258.454.629.454 1.098s-.151.81-.462 1.09-.727.417-1.265.417zm-1.454 11.546v-9.638h2.908v9.638h-2.908zm8.59 0l-4.03-9.638h3.212l2.401 7.208-.712.075 2.47-7.283h3.181l-4.234 9.638h-2.288zm12.355.182c-1.068 0-1.992-.212-2.78-.644s-1.401-1.014-1.833-1.764-.651-1.597-.651-2.551c0-.735.121-1.416.363-2.037a4.873 4.873 0 0 1 1.015-1.605 4.528 4.528 0 0 1 1.553-1.053 5.09 5.09 0 0 1 1.97-.371c.674 0 1.295.122 1.863.364a4.407 4.407 0 0 1 1.462 1.014 4.59 4.59 0 0 1 .947 1.545c.22.591.318 1.242.288 1.946l-.015.78h-7.681l-.417-1.636h5.742l-.31.349v-.364a1.678 1.678 0 0 0-.281-.81 1.685 1.685 0 0 0-.644-.553 2.066 2.066 0 0 0-.909-.197c-.469 0-.878.091-1.204.281a1.836 1.836 0 0 0-.758.817c-.166.356-.257.795-.257 1.318s.113.999.333 1.385.553.697.977.916.94.326 1.538.326c.409 0 .78-.061 1.098-.182s.667-.325 1.046-.621l1.363 1.924c-.378.325-.772.59-1.196.802a6 6 0 0 1-1.296.462 5.59 5.59 0 0 1-1.318.151l-.008.008zm6.046-.182v-9.638h2.765l.128 3.142-.545-.598c.144-.523.386-.984.72-1.401a3.915 3.915 0 0 1 1.174-.977 2.962 2.962 0 0 1 1.432-.363c.219 0 .424.015.606.053l.515.129-.803 3.21a2.075 2.075 0 0 0-.538-.212 3.029 3.029 0 0 0-.697-.083c-.265 0-.515.045-.742.136a1.56 1.56 0 0 0-.584.394c-.159.166-.28.371-.371.598a2.102 2.102 0 0 0-.136.78v4.83h-2.924zm11.514.182c-.947 0-1.78-.151-2.5-.454s-1.295-.712-1.719-1.219l1.765-1.522c.378.378.795.651 1.272.825.47.174.917.265 1.341.265.167 0 .318-.015.455-.053a1.25 1.25 0 0 0 .333-.151.7.7 0 0 0 .212-.235.698.698 0 0 0 .076-.318.612.612 0 0 0-.326-.56 3.08 3.08 0 0 0-.545-.22 21.254 21.254 0 0 0-.977-.288 8.152 8.152 0 0 1-1.478-.514 3.795 3.795 0 0 1-1.03-.697 2.791 2.791 0 0 1-.56-.848 2.56 2.56 0 0 1-.197-1.045c0-.447.106-.855.318-1.219s.5-.674.856-.946a3.83 3.83 0 0 1 1.235-.606 5.146 5.146 0 0 1 1.446-.212 6.266 6.266 0 0 1 2.879.689 5.15 5.15 0 0 1 1.114.78l-1.523 1.703a4.165 4.165 0 0 0-.735-.552 3.668 3.668 0 0 0-.848-.386 2.776 2.776 0 0 0-.803-.144c-.182 0-.341.015-.477.045s-.258.076-.357.144a.716.716 0 0 0-.219.235.619.619 0 0 0-.076.318.66.66 0 0 0 .098.348c.069.106.16.197.281.273s.318.151.583.242l1.091.333a9.09 9.09 0 0 1 1.47.53c.409.197.734.424.977.689.189.204.341.447.439.719s.144.568.144.879c0 .62-.174 1.166-.515 1.643-.348.477-.818.855-1.424 1.128s-1.296.409-2.068.409l-.008-.008zm10.341 0c-1.069 0-1.993-.212-2.781-.644a4.62 4.62 0 0 1-1.833-1.764c-.432-.749-.651-1.597-.651-2.551 0-.735.121-1.416.363-2.037a4.89 4.89 0 0 1 1.015-1.605 4.528 4.528 0 0 1 1.553-1.053 5.09 5.09 0 0 1 1.97-.371c.674 0 1.295.122 1.863.364a4.407 4.407 0 0 1 1.462 1.014c.41.44.728.954.947 1.545s.319 1.242.288 1.946l-.015.78h-7.681l-.417-1.636h5.742l-.31.349v-.364a1.678 1.678 0 0 0-.925-1.363 2.066 2.066 0 0 0-.909-.197c-.469 0-.878.091-1.204.281a1.848 1.848 0 0 0-.758.817c-.166.356-.257.795-.257 1.318s.113.999.333 1.385.553.697.977.916.94.326 1.538.326c.409 0 .78-.061 1.099-.182s.666-.325 1.045-.621l1.364 1.924a5.84 5.84 0 0 1-1.197.802 5.982 5.982 0 0 1-1.296.462 5.59 5.59 0 0 1-1.318.151l-.007.008zm71.344-.182l5.03-12.712h2.614l4.992 12.712h-3.121l-2.401-6.443-.288-.818-.288-.901-.28-.908a14.647 14.647 0 0 1-.228-.826l.546-.015-.243.886-.272.863-.303.856a24.22 24.22 0 0 0-.311.878l-2.401 6.428h-3.053.007zm2.402-2.43l.962-2.325h5.848l.947 2.325h-7.757zm15.385 2.612c-.931 0-1.765-.22-2.507-.651a4.721 4.721 0 0 1-1.75-1.787c-.432-.757-.644-1.613-.644-2.567s.212-1.809.644-2.566a4.766 4.766 0 0 1 1.75-1.787c.735-.439 1.576-.651 2.507-.651.856 0 1.652.151 2.371.454s1.296.727 1.72 1.272l-1.583 1.885a3.467 3.467 0 0 0-.599-.545 2.901 2.901 0 0 0-.765-.401 2.58 2.58 0 0 0-.871-.144c-.462 0-.864.106-1.22.318a2.234 2.234 0 0 0-.818.878c-.197.379-.288.803-.288 1.287s.099.879.303 1.257a2.28 2.28 0 0 0 .826.886 2.27 2.27 0 0 0 1.197.326c.318 0 .606-.038.871-.122.265-.075.508-.196.735-.355s.432-.349.629-.583l1.56 1.908c-.409.522-.984.931-1.719 1.234a6.09 6.09 0 0 1-2.349.454zm9.901 0c-.931 0-1.765-.22-2.507-.651a4.721 4.721 0 0 1-1.75-1.787c-.432-.757-.644-1.613-.644-2.567s.212-1.809.644-2.566a4.766 4.766 0 0 1 1.75-1.787c.735-.439 1.576-.651 2.507-.651.856 0 1.652.151 2.371.454s1.296.727 1.72 1.272l-1.583 1.885a3.467 3.467 0 0 0-.599-.545 2.901 2.901 0 0 0-.765-.401 2.58 2.58 0 0 0-.871-.144c-.462 0-.864.106-1.22.318a2.234 2.234 0 0 0-.818.878c-.197.379-.288.803-.288 1.287s.099.879.303 1.257a2.28 2.28 0 0 0 .826.886 2.27 2.27 0 0 0 1.197.326c.318 0 .606-.038.871-.122.265-.075.508-.196.735-.355s.432-.349.629-.583l1.56 1.908c-.409.522-.984.931-1.719 1.234a6.09 6.09 0 0 1-2.349.454zm10.265 0c-1.068 0-1.992-.212-2.78-.644s-1.402-1.014-1.833-1.764-.652-1.597-.652-2.551a5.55 5.55 0 0 1 .364-2.037 4.857 4.857 0 0 1 1.015-1.605 4.518 4.518 0 0 1 1.553-1.053 5.081 5.081 0 0 1 1.969-.371c.675 0 1.296.122 1.864.364.56.242 1.053.583 1.462 1.014.409.44.727.954.947 1.545s.318 1.242.288 1.946l-.015.78h-7.682l-.416-1.636h5.742l-.311.349v-.364a1.677 1.677 0 0 0-.28-.81 1.692 1.692 0 0 0-.644-.553 2.066 2.066 0 0 0-.909-.197c-.47 0-.879.091-1.205.281a1.84 1.84 0 0 0-.757.817c-.167.356-.258.795-.258 1.318s.114.999.334 1.385a2.33 2.33 0 0 0 .977.916c.424.22.939.326 1.538.326.409 0 .78-.061 1.098-.182s.667-.325 1.045-.621l1.364 1.924a5.84 5.84 0 0 1-1.197.802 5.974 5.974 0 0 1-1.295.462c-.44.106-.879.151-1.318.151l-.008.008zm9.295 0c-.947 0-1.78-.151-2.5-.454s-1.295-.712-1.72-1.219l1.766-1.522c.378.378.795.651 1.272.825.47.174.917.265 1.341.265.167 0 .318-.015.455-.053.128-.038.242-.091.333-.151a.7.7 0 0 0 .212-.235.71.71 0 0 0 .076-.318.612.612 0 0 0-.326-.56 3.08 3.08 0 0 0-.545-.22 20.973 20.973 0 0 0-.978-.288 8.168 8.168 0 0 1-1.477-.514 3.795 3.795 0 0 1-1.03-.697 2.813 2.813 0 0 1-.561-.848 2.576 2.576 0 0 1-.197-1.045c0-.447.106-.855.319-1.219s.5-.674.856-.946c.356-.265.765-.47 1.234-.606s.947-.212 1.447-.212a6.266 6.266 0 0 1 2.879.689 5.12 5.12 0 0 1 1.113.78l-1.522 1.703a4.165 4.165 0 0 0-.735-.552 3.668 3.668 0 0 0-.848-.386 2.776 2.776 0 0 0-.803-.144 2.25 2.25 0 0 0-.478.045 1.01 1.01 0 0 0-.356.144.716.716 0 0 0-.219.235.619.619 0 0 0-.076.318.66.66 0 0 0 .098.348.885.885 0 0 0 .281.273c.121.075.318.151.583.242l1.091.333a9.04 9.04 0 0 1 1.469.53c.409.197.735.424.978.689a2.13 2.13 0 0 1 .439.719 2.59 2.59 0 0 1 .144.879c0 .62-.174 1.166-.515 1.643a3.5 3.5 0 0 1-1.424 1.128c-.606.272-1.296.409-2.068.409l-.008-.008zm8.992 0c-.947 0-1.78-.151-2.5-.454s-1.295-.712-1.72-1.219l1.766-1.522c.378.378.795.651 1.272.825.47.174.917.265 1.341.265.167 0 .318-.015.455-.053.128-.038.242-.091.333-.151a.7.7 0 0 0 .212-.235.71.71 0 0 0 .076-.318.612.612 0 0 0-.326-.56 3.08 3.08 0 0 0-.545-.22 20.973 20.973 0 0 0-.978-.288 8.168 8.168 0 0 1-1.477-.514 3.78 3.78 0 0 1-1.03-.697 2.795 2.795 0 0 1-.561-.848 2.576 2.576 0 0 1-.197-1.045c0-.447.106-.855.319-1.219a3.25 3.25 0 0 1 .856-.946c.356-.265.765-.47 1.234-.606s.947-.212 1.447-.212a6.272 6.272 0 0 1 2.879.689c.416.22.788.477 1.113.78l-1.522 1.703a4.165 4.165 0 0 0-.735-.552 3.668 3.668 0 0 0-.848-.386 2.776 2.776 0 0 0-.803-.144 2.25 2.25 0 0 0-.478.045 1.01 1.01 0 0 0-.356.144.716.716 0 0 0-.219.235.619.619 0 0 0-.076.318.66.66 0 0 0 .098.348.875.875 0 0 0 .281.273c.121.075.318.151.583.242l1.091.333a9.04 9.04 0 0 1 1.469.53c.409.197.735.424.978.689a2.13 2.13 0 0 1 .439.719 2.59 2.59 0 0 1 .144.879c0 .62-.174 1.166-.515 1.643a3.5 3.5 0 0 1-1.424 1.128c-.606.272-1.296.409-2.068.409l-.008-.008zm7.363-11.728c-.545 0-.969-.129-1.28-.394-.311-.257-.462-.628-.462-1.113a1.38 1.38 0 0 1 .47-1.075c.318-.28.734-.417 1.272-.417s.97.129 1.273.394c.303.258.454.629.454 1.098s-.151.81-.462 1.09-.727.417-1.265.417zm-1.454 11.546v-9.638h2.909v9.638h-2.909zm11.423.205c-.439 0-.856-.061-1.25-.182a4.443 4.443 0 0 1-1.083-.492 3.057 3.057 0 0 1-.795-.719 2.185 2.185 0 0 1-.424-.848l.636-.22-.167 2.234h-2.704v-13.417h2.924v6.103l-.599-.22a2.35 2.35 0 0 1 .417-.878 3.28 3.28 0 0 1 .78-.727 4.116 4.116 0 0 1 1.038-.5 3.788 3.788 0 0 1 1.159-.182c.834 0 1.576.212 2.227.644s1.159 1.022 1.538 1.779.561 1.621.561 2.59-.182 1.847-.553 2.604a4.49 4.49 0 0 1-1.515 1.78 3.83 3.83 0 0 1-2.182.643l-.008.008zm-.765-2.453c.44 0 .818-.106 1.144-.326s.576-.515.758-.901c.174-.379.265-.833.265-1.355a3.18 3.18 0 0 0-.265-1.34 1.94 1.94 0 0 0-.758-.886 2.117 2.117 0 0 0-1.144-.311 2.17 2.17 0 0 0-1.159.311 2.046 2.046 0 0 0-.765.886c-.182.386-.273.832-.273 1.34s.091.969.273 1.355c.182.379.44.681.765.901s.712.326 1.159.326zm6.939 2.248v-13.439h2.909v13.439h-2.909zm9.924.182c-1.068 0-1.992-.212-2.78-.644s-1.402-1.014-1.833-1.764-.652-1.597-.652-2.551a5.55 5.55 0 0 1 .364-2.037 4.857 4.857 0 0 1 1.015-1.605 4.518 4.518 0 0 1 1.553-1.053 5.081 5.081 0 0 1 1.969-.371c.675 0 1.296.122 1.864.364a4.407 4.407 0 0 1 1.462 1.014c.409.44.727.954.947 1.545s.318 1.242.288 1.946l-.015.78h-7.682l-.416-1.636h5.742l-.311.349v-.364a1.677 1.677 0 0 0-.28-.81 1.692 1.692 0 0 0-.644-.553 2.066 2.066 0 0 0-.909-.197c-.47 0-.879.091-1.205.281a1.84 1.84 0 0 0-.757.817c-.167.356-.258.795-.258 1.318s.114.999.334 1.385a2.33 2.33 0 0 0 .977.916c.424.22.939.326 1.538.326.409 0 .78-.061 1.098-.182s.667-.325 1.045-.621l1.364 1.924a5.84 5.84 0 0 1-1.197.802 5.974 5.974 0 0 1-1.295.462c-.44.106-.879.151-1.318.151l-.008.008zm1.114-130.834v-12.713h3.09v12.713h-3.09zm1.431-9.987v-2.726h7.318v2.726h-7.318zm0 5.118v-2.574h6.576v2.574h-6.576zm9.5 4.869v-13.44h2.909v13.44h-2.909zm9.924.181c-1.069 0-1.993-.212-2.781-.643s-1.401-1.015-1.833-1.764-.651-1.598-.651-2.552c0-.734.121-1.416.363-2.037a4.91 4.91 0 0 1 1.015-1.605 4.525 4.525 0 0 1 1.553-1.052 5.072 5.072 0 0 1 1.97-.371c.674 0 1.295.121 1.864.363a4.42 4.42 0 0 1 1.462 1.015 4.6 4.6 0 0 1 .947 1.544c.219.591.318 1.242.287 1.946l-.015.78h-7.681l-.417-1.635h5.742l-.31.348v-.363a1.685 1.685 0 0 0-.281-.811 1.675 1.675 0 0 0-.644-.552 2.052 2.052 0 0 0-.909-.197c-.469 0-.878.091-1.204.28a1.85 1.85 0 0 0-.758.818c-.166.356-.257.795-.257 1.317s.113 1 .333 1.386.553.696.977.916.94.325 1.538.325c.409 0 .78-.06 1.099-.181s.666-.326 1.045-.621l1.364 1.923a5.805 5.805 0 0 1-1.197.803 6.032 6.032 0 0 1-1.296.461 5.585 5.585 0 0 1-1.318.152l-.007.007zm5.03-.181l3.886-5.414 1.56 1.87-2.015 3.544h-3.431zm6.901 0l-2.053-3.105-.947-1.325-3.818-5.209h3.485l1.977 2.961 1.038 1.415 3.757 5.263h-3.454.015zm-.53-4.195l-1.546-1.855 1.909-3.596h3.432l-3.795 5.443v.008zm7.211-7.359c-.545 0-.969-.129-1.28-.394-.31-.258-.462-.629-.462-1.113a1.38 1.38 0 0 1 .47-1.075c.318-.28.734-.417 1.272-.417s.97.129 1.273.394c.303.257.455.628.455 1.098s-.152.81-.463 1.09-.727.417-1.265.417zm-1.454 11.546v-9.638h2.909v9.638h-2.909zm11.431.205c-.439 0-.856-.061-1.25-.182a4.443 4.443 0 0 1-1.083-.492 3.064 3.064 0 0 1-.796-.72 2.171 2.171 0 0 1-.424-.848l.637-.219-.167 2.233h-2.704v-13.416h2.924v6.102l-.599-.219c.076-.318.212-.606.417-.878s.469-.515.78-.727a4.1 4.1 0 0 1 1.038-.5 3.788 3.788 0 0 1 1.159-.182c.833 0 1.576.212 2.227.644s1.159 1.022 1.538 1.779.56 1.62.56 2.59-.181 1.847-.553 2.604-.878 1.348-1.515 1.779c-.644.432-1.371.644-2.181.644l-.008.008zm-.765-2.454c.439 0 .818-.106 1.144-.325a2.16 2.16 0 0 0 .757-.901c.175-.379.265-.833.265-1.355s-.09-.954-.265-1.341a1.934 1.934 0 0 0-.757-.885 2.117 2.117 0 0 0-1.144-.311 2.17 2.17 0 0 0-1.159.311 2.042 2.042 0 0 0-.765.885c-.182.387-.273.833-.273 1.341s.091.969.273 1.355c.182.378.439.681.765.901s.712.325 1.159.325zm6.939 2.257v-13.44h2.909v13.44h-2.909zm9.916.181c-1.068 0-1.992-.212-2.78-.643s-1.401-1.015-1.833-1.764-.652-1.598-.652-2.552c0-.734.122-1.416.364-2.037s.583-1.15 1.015-1.605a4.516 4.516 0 0 1 1.553-1.052 5.065 5.065 0 0 1 1.97-.371c.674 0 1.295.121 1.863.363a4.41 4.41 0 0 1 1.462 1.015 4.6 4.6 0 0 1 .947 1.544c.22.591.318 1.242.288 1.946l-.015.78h-7.682l-.416-1.635h5.742l-.311.348v-.363a1.674 1.674 0 0 0-.28-.811 1.69 1.69 0 0 0-.644-.552 2.052 2.052 0 0 0-.909-.197c-.47 0-.879.091-1.205.28a1.842 1.842 0 0 0-.757.818c-.167.356-.258.795-.258 1.317s.114 1 .334 1.386.553.696.977.916.939.325 1.538.325c.409 0 .78-.06 1.098-.181s.667-.326 1.046-.621l1.363 1.923a5.805 5.805 0 0 1-1.197.803 6.024 6.024 0 0 1-1.295.461c-.44.106-.879.152-1.318.152l-.008.007zM26.415 198.272v-12.713h8.864v2.635h-5.871v7.443h6.052v2.635h-9.045zm1.455-5.21v-2.506h6.598v2.506H27.87zm12.643 5.21l-4.03-9.639h3.212l2.401 7.208-.712.076 2.47-7.284h3.181l-4.234 9.639h-2.288zm9.644-11.554c-.546 0-.97-.129-1.28-.394-.311-.257-.463-.628-.463-1.113 0-.439.16-.795.47-1.075.318-.28.735-.417 1.273-.417s.97.129 1.272.394c.303.258.455.629.455 1.098s-.152.81-.462 1.09-.728.417-1.265.417zm-1.455 11.546v-9.638h2.909v9.638h-2.909zm9.28.205c-.833 0-1.576-.212-2.227-.644s-1.16-1.022-1.538-1.779-.56-1.621-.56-2.59.189-1.832.56-2.589c.379-.757.886-1.355 1.545-1.787.652-.439 1.402-.651 2.25-.651a3.99 3.99 0 0 1 1.25.197 4.32 4.32 0 0 1 1.091.545 3.15 3.15 0 0 1 .795.787c.205.296.326.606.364.916l-.69.167v-6.209h2.925v13.44h-2.705l-.166-2.196.583.091a1.85 1.85 0 0 1-.356.871c-.197.28-.455.522-.773.734a4.179 4.179 0 0 1-1.083.507 4.22 4.22 0 0 1-1.28.19h.015zm.742-2.416c.447 0 .834-.106 1.16-.325s.575-.523.757-.909.265-.84.265-1.363-.09-.992-.265-1.378a2.077 2.077 0 0 0-.758-.908c-.333-.22-.712-.326-1.159-.326s-.833.106-1.151.326a2.301 2.301 0 0 0-.758.908c-.181.386-.272.848-.272 1.378s.09.977.272 1.363.432.689.758.909c.318.219.704.325 1.151.325zm12.083 2.4c-1.068 0-1.992-.212-2.78-.643s-1.402-1.015-1.833-1.764-.652-1.598-.652-2.552c0-.734.121-1.416.364-2.037s.583-1.15 1.015-1.605a4.52 4.52 0 0 1 1.553-1.052 5.067 5.067 0 0 1 1.97-.371c.674 0 1.295.121 1.863.363a4.42 4.42 0 0 1 1.462 1.015c.41.439.727.954.947 1.544s.318 1.242.288 1.946l-.015.78h-7.682l-.416-1.635h5.742l-.31.348v-.363a1.68 1.68 0 0 0-.281-.811 1.686 1.686 0 0 0-.644-.552 2.053 2.053 0 0 0-.91-.197c-.469 0-.878.091-1.204.28a1.844 1.844 0 0 0-.757.818c-.167.356-.258.795-.258 1.317s.114 1 .334 1.386.553.696.977.916.94.325 1.538.325c.409 0 .78-.06 1.098-.181s.667-.326 1.045-.621l1.364 1.923a5.794 5.794 0 0 1-1.197.803 6.023 6.023 0 0 1-1.295.461c-.44.106-.879.152-1.318.152l-.008.007zm6.053-.181v-9.639h2.765l.09 1.961-.583.22a2.91 2.91 0 0 1 .72-1.189 4.06 4.06 0 0 1 1.242-.863 3.64 3.64 0 0 1 1.523-.326c.727 0 1.34.152 1.833.447s.871.742 1.129 1.325c.25.591.379 1.302.379 2.15v5.921h-2.924v-5.686c0-.386-.053-.704-.167-.961a1.17 1.17 0 0 0-.5-.576c-.227-.129-.5-.182-.826-.174a1.99 1.99 0 0 0-.712.121c-.22.083-.409.197-.56.348a1.76 1.76 0 0 0-.372.515 1.5 1.5 0 0 0-.136.636v5.77h-2.909.008zm15.764.181c-.932 0-1.765-.219-2.507-.651a4.714 4.714 0 0 1-1.75-1.787c-.432-.757-.644-1.612-.644-2.566s.212-1.81.644-2.567a4.78 4.78 0 0 1 1.75-1.787c.734-.439 1.575-.651 2.507-.651.856 0 1.651.151 2.371.454s1.296.727 1.72 1.272l-1.584 1.886a3.482 3.482 0 0 0-.598-.546 2.978 2.978 0 0 0-.765-.401 2.608 2.608 0 0 0-.871-.144c-.462 0-.864.106-1.22.318a2.234 2.234 0 0 0-.818.879c-.197.378-.288.802-.288 1.287s.099.878.303 1.257.477.673.826.885.75.326 1.197.326c.318 0 .606-.038.871-.121.265-.076.507-.197.735-.356s.432-.348.629-.583l1.56 1.908c-.409.522-.985.931-1.72 1.234a6.09 6.09 0 0 1-2.348.454zm10.265 0c-1.068 0-1.993-.212-2.78-.643s-1.402-1.015-1.834-1.764-.651-1.598-.651-2.552c0-.734.121-1.416.364-2.037s.583-1.15 1.015-1.605a4.516 4.516 0 0 1 1.553-1.052 5.063 5.063 0 0 1 1.969-.371c.674 0 1.295.121 1.864.363a4.42 4.42 0 0 1 1.462 1.015 4.6 4.6 0 0 1 .947 1.544c.219.591.318 1.242.287 1.946l-.015.78h-7.681l-.417-1.635h5.742l-.31.348v-.363a1.675 1.675 0 0 0-.281-.811 1.679 1.679 0 0 0-.643-.552 2.058 2.058 0 0 0-.909-.197c-.47 0-.879.091-1.205.28a1.842 1.842 0 0 0-.757.818c-.167.356-.258.795-.258 1.317s.114 1 .333 1.386.553.696.978.916.939.325 1.537.325a3.1 3.1 0 0 0 1.099-.181c.318-.121.666-.326 1.045-.621l1.364 1.923a5.805 5.805 0 0 1-1.197.803 6.013 6.013 0 0 1-2.614.613l-.007.007zm-75.754 10.055c-.545 0-.97-.129-1.28-.394-.31-.257-.462-.628-.462-1.113a1.38 1.38 0 0 1 .47-1.075c.317-.28.734-.416 1.272-.416s.97.129 1.273.394c.303.257.454.628.454 1.097s-.151.811-.462 1.091-.727.416-1.265.416zm-1.455 11.547v-9.639h2.91v9.639h-2.91zm5.629 0v-9.639h2.765l.09 1.961-.582.22a2.91 2.91 0 0 1 .72-1.189 4.042 4.042 0 0 1 1.242-.863 3.64 3.64 0 0 1 1.522-.326c.728 0 1.341.152 1.834.447s.87.742 1.128 1.325c.25.591.38 1.302.38 2.15v5.921h-2.925v-5.686c0-.386-.053-.704-.167-.961a1.17 1.17 0 0 0-.5-.576c-.227-.129-.5-.182-.825-.174-.258 0-.493.038-.712.121a1.56 1.56 0 0 0-.561.348 1.76 1.76 0 0 0-.371.515 1.5 1.5 0 0 0-.137.636v5.77h-2.909.008zm10.734-6.974v-2.4h6.303v2.4h-6.303zm1.402 6.974v-10.116c0-.628.136-1.196.409-1.703a3.063 3.063 0 0 1 1.144-1.204c.492-.295 1.06-.447 1.72-.447.461 0 .886.068 1.272.197.386.136.735.318 1.038.56l-.834 2.128a2.834 2.834 0 0 0-.454-.197 1.274 1.274 0 0 0-.947.03.684.684 0 0 0-.318.333 1.338 1.338 0 0 0-.099.553v9.858h-2.924l-.007.008zm10.719.181c-1.008 0-1.901-.219-2.682-.651a4.98 4.98 0 0 1-1.856-1.779c-.454-.75-.681-1.613-.681-2.582s.227-1.825.681-2.574a4.925 4.925 0 0 1 1.856-1.779c.78-.44 1.674-.652 2.682-.652s1.901.22 2.682.652a4.883 4.883 0 0 1 1.84 1.779c.447.749.675 1.613.675 2.574s-.228 1.825-.675 2.582a4.831 4.831 0 0 1-1.84 1.779c-.78.439-1.674.651-2.682.651zm0-2.506c.44 0 .826-.106 1.166-.325a2.25 2.25 0 0 0 .796-.886 2.62 2.62 0 0 0 .273-1.287 2.586 2.586 0 0 0-.273-1.295 2.359 2.359 0 0 0-.795-.901 2.095 2.095 0 0 0-1.167-.326c-.44 0-.826.106-1.174.326a2.23 2.23 0 0 0-.81.901 2.603 2.603 0 0 0-.273 1.295c-.016.484.075.916.272 1.287.19.378.462.674.81.886.35.219.736.325 1.175.325zm7.098 2.325v-9.639h2.765l.129 3.142-.546-.598a3.85 3.85 0 0 1 .72-1.4 3.905 3.905 0 0 1 1.174-.977 2.963 2.963 0 0 1 1.432-.364c.22 0 .424.016.606.053l.515.129-.803 3.21a2.061 2.061 0 0 0-.538-.212 3.027 3.027 0 0 0-.697-.083c-.265 0-.515.046-.742.136s-.424.22-.583.394a1.86 1.86 0 0 0-.371.598c-.091.227-.137.492-.137.78v4.831h-2.924zm8.25 0v-9.639h2.757l.091 1.742-.379.015c.144-.318.334-.591.553-.833.227-.242.477-.447.765-.606.288-.166.584-.288.894-.371a3.673 3.673 0 0 1 2.22.091c.386.144.727.379 1.015.697s.523.757.69 1.294l-.455-.038.144-.287a3.35 3.35 0 0 1 .606-.788 3.79 3.79 0 0 1 .825-.598 4.39 4.39 0 0 1 .947-.371 3.86 3.86 0 0 1 .947-.129c.765 0 1.402.152 1.91.447s.893.742 1.15 1.333.395 1.317.395 2.158v5.883h-2.925v-5.649c0-.386-.053-.704-.166-.961a1.164 1.164 0 0 0-.485-.568c-.212-.129-.477-.189-.788-.189a1.88 1.88 0 0 0-.697.128 1.572 1.572 0 0 0-.545.349 1.57 1.57 0 0 0-.356.507 1.638 1.638 0 0 0-.129.651v5.739h-2.924v-5.663c0-.364-.053-.674-.167-.924a1.208 1.208 0 0 0-.492-.583 1.408 1.408 0 0 0-.765-.197c-.258 0-.485.046-.697.129a1.568 1.568 0 0 0-.546.348 1.582 1.582 0 0 0-.356.507 1.617 1.617 0 0 0-.128.636v5.755h-2.925l.016-.015zm22.089.181c-1.068 0-1.992-.212-2.78-.643s-1.401-1.015-1.833-1.764-.651-1.598-.651-2.552c0-.734.12-1.416.363-2.037a4.879 4.879 0 0 1 1.015-1.605 4.519 4.519 0 0 1 1.553-1.052 5.067 5.067 0 0 1 1.97-.371c.674 0 1.295.121 1.863.363a4.4 4.4 0 0 1 1.462 1.015c.41.439.728.954.947 1.544s.319 1.242.288 1.946l-.015.78h-7.681l-.417-1.635h5.742l-.31.348v-.363a1.68 1.68 0 0 0-.28-.811 1.686 1.686 0 0 0-.645-.552 2.053 2.053 0 0 0-.909-.197c-.47 0-.879.091-1.204.28a1.844 1.844 0 0 0-.758.818c-.166.355-.257.795-.257 1.317s.113 1 .333 1.386.553.696.977.916.94.325 1.538.325c.41 0 .78-.06 1.098-.181s.667-.326 1.046-.621l1.363 1.923c-.378.325-.772.59-1.197.802a5.973 5.973 0 0 1-2.613.614l-.008.007zm9.697.015c-.833 0-1.576-.212-2.227-.643s-1.16-1.022-1.538-1.779-.56-1.621-.56-2.59.189-1.832.56-2.589c.379-.757.886-1.356 1.545-1.787.652-.439 1.402-.651 2.25-.651a3.99 3.99 0 0 1 1.25.197c.402.136.765.318 1.091.545s.591.492.795.787.326.606.364.916l-.689.167v-6.209h2.924v13.44h-2.705l-.166-2.196.583.091c-.038.303-.152.59-.356.87a2.866 2.866 0 0 1-.773.735 4.208 4.208 0 0 1-1.083.507 4.215 4.215 0 0 1-1.28.189h.015zm.742-2.415c.447 0 .834-.106 1.159-.325s.576-.523.758-.909.265-.84.265-1.363-.091-.992-.265-1.378a2.071 2.071 0 0 0-.758-.908c-.333-.22-.712-.326-1.159-.326s-.833.106-1.151.326a2.308 2.308 0 0 0-.758.908c-.181.386-.272.848-.272 1.378s.09.977.272 1.363.432.689.758.909c.318.219.704.325 1.151.325z" fill="#000"/></svg>