<svg xmlns="http://www.w3.org/2000/svg" viewBox="0 0 222 114" fill="none"><path fill-rule="evenodd" d="M74.043 37.254l-.321 1.923 1.603.32c.147-.801.307-1.175.321-2.244h-1.603zm1.603-7.693c-.922.013-1.376.107-1.923.321.013.908.107 1.362.321 1.923l1.923-.321c-.214-.547-.32-1.015-.32-1.923zm0 0c-.922.013-1.376.107-1.923.321.013.908.107 1.362.321 1.923l1.923-.321c-.214-.547-.32-1.015-.32-1.923zm-1.603 7.693l-.321 1.923 1.603.32c.147-.801.307-1.175.321-2.244h-1.603zm0 0l-.321 1.923 1.603.32c.147-.801.307-1.175.321-2.244h-1.603zm1.603-7.693c-.922.013-1.376.107-1.923.321.013.908.107 1.362.321 1.923l1.923-.321c-.214-.547-.32-1.015-.32-1.923zm0 0c-.922.013-1.376.107-1.923.321.013.908.107 1.362.321 1.923l1.923-.321c-.214-.547-.32-1.015-.32-1.923zm-1.603 7.693l-.321 1.923 1.603.32c.147-.801.307-1.175.321-2.244h-1.603zm0 0l-.321 1.923 1.603.32c.147-.801.307-1.175.321-2.244h-1.603zm1.603-7.693c-.922.013-1.376.107-1.923.321.013.908.107 1.362.321 1.923l1.923-.321c-.214-.547-.32-1.015-.32-1.923zm0 0c-.922.013-1.376.107-1.923.321.013.908.107 1.362.321 1.923l1.923-.321c-.214-.547-.32-1.015-.32-1.923zm-1.603 7.693l-.321 1.923 1.603.32c.147-.801.307-1.175.321-2.244h-1.603zm0 0l-.321 1.923 1.603.32c.147-.801.307-1.175.321-2.244h-1.603zm1.603-7.693c-.922.013-1.376.107-1.923.321.013.908.107 1.362.321 1.923l1.923-.321c-.214-.547-.32-1.015-.32-1.923zm0 0c-.922.013-1.376.107-1.923.321.013.908.107 1.362.321 1.923l1.923-.321c-.214-.547-.32-1.015-.32-1.923zm-1.603 7.693l-.321 1.923 1.603.32c.147-.801.307-1.175.321-2.244h-1.603zm0 0l-.321 1.923 1.603.32c.147-.801.307-1.175.321-2.244h-1.603zm1.603-7.693c-.922.013-1.376.107-1.923.321.013.908.107 1.362.321 1.923l1.923-.321c-.214-.547-.32-1.015-.32-1.923zm0 0c-.922.013-1.376.107-1.923.321.013.908.107 1.362.321 1.923l1.923-.321c-.214-.547-.32-1.015-.32-1.923zm-1.603 7.693l-.321 1.923 1.603.32c.147-.801.307-1.175.321-2.244h-1.603zm0 0l-.321 1.923 1.603.32c.147-.801.307-1.175.321-2.244h-1.603zm1.603-7.693c-.922.013-1.376.107-1.923.321.013.908.107 1.362.321 1.923l1.923-.321c-.214-.547-.32-1.015-.32-1.923zm0 0c-.922.013-1.376.107-1.923.321.013.908.107 1.362.321 1.923l1.923-.321c-.214-.547-.32-1.015-.32-1.923zm-1.603 7.693l-.321 1.923 1.603.32c.147-.801.307-1.175.321-2.244h-1.603zm0 0l-.321 1.923 1.603.32c.147-.801.307-1.175.321-2.244h-1.603zm1.603-7.693c-.922.013-1.376.107-1.923.321.013.908.107 1.362.321 1.923l1.923-.321c-.214-.547-.32-1.015-.32-1.923zm.32 1.923c-.214-.547-.32-1.015-.32-1.923-.922.013-1.376.107-1.923.321.013.908.107 1.362.321 1.923l1.923-.321zm-2.244 7.693l1.603.32c.147-.801.307-1.175.321-2.244h-1.603l-.321 1.923zm147.445 52.888h-.32l-.321-1.923h-.32V88.54l-.641-.32v-.641l-.642-.32v-.641h-.32v-.962h-.321v-.641h-.32v-1.282h-.321V82.45h-.32l-.641-1.923h-.321v-.962h-.32v-.641h-.321v-.641l-.641-.321v-.962h-.32v-.641h-.321v-.641h-.321l-.641-1.923h-.32v-.962h-.321l-.32-1.282h-.321v-.641h-.32v-.962h-.321v-.641l-.641-.32v-.641h-.32l-.962-3.526-.641-.321-.321-1.603h-.32v-.641h-.321v-.641h-.32l-.641-1.923h-.321l-.32-2.244-.641-.321-.321-1.282h-.32l-.642-1.923h-.32v-.962h-.321v-1.282h-.32v-.641h-.321v-.641l-.641-.32v-.641l-.641-.321v-.962h-.32l-.321-1.282c-2.738-.494-7.212-.227-9.936-.641-.615-.107-2.591.601-3.847.321v-.321l-.32.321-.641-.321v.321h-.962v-.321h-.321v.321c-1.081-.214-4.46.548-6.41 0v-.321h-1.603c-2.19-.013-4.047.548-6.09 0l-6.09.321v-.321c-1.082-.04-3.807.695-6.09.321-.468-.08-1.322-.574-2.244-.321-1.669.454-4.528-.187-6.411.321v.321h-1.282c-2.898-.735-7.452-.374-10.898-.321h-1.282v.321h-.321c-4.38-.588-10.15-.321-15.065-.321h-6.09v-.321l-.961.321-3.847-.321v.321h-3.205v-.321c-.454.04.12.24-.321.321h-7.693v-.321h-.32v.321c-2.003.334-4.848.067-6.09 0-.281-1.416-.775-2.698-1.282-3.846l.321-.641h-.321l-.641-4.167h-.32v-1.282h-.32l-.321-2.885h-.321v-2.244h-.32c-.361-1.189.027-3.045-.641-3.846v-1.603l-.641-.321-.641-.962h-.641v-.32h-.641l-.321-.641h-.641v-.321H84.3l-.321-.641c-.601-.387-.708-.027-1.282-.641-.361-.374-.147 0-.32-.641.641-.548.267-.748.641-1.282l1.603-1.282v-.641l.641-.321c1.402-2.11 2.564-4.22 2.564-7.693V8.086h-.32v-.641h-.321v-.962l-.641-.321-.32-1.282-.962-.641-1.282-1.603h-.641l-.321-.641-1.603-.321v-.321h-.641v-.321L77.89.714V.393h-5.449v.321l-3.205.321v.321l-1.282.321-.962 1.282-.962.321v.641l-.641.321v.321l-1.282.962-.321 1.282h-.321v1.282c-.28.828-1.149 3.713-.641 5.129h.321v.641h.321v.641h.321v.641h.321v.641l.641.641v.641l.641.321v.641h.32v.641l.641.321c.534.828.427 1.669 1.282 2.244-.334.481-1.416 1.296-1.923 1.603h-.641l-.32.641-.962.641v.32h-.641l-.962 1.282h-.641l-.641.962h-.321v1.282h-.321l-.321 1.282h-.32v.641h-.321v.962h-.32v1.603h-.321v.962h-.321v.962h-.321v.641h-.32v.641h-.321v.641h-.321v.962h-.321v.641h-.321l-.32 1.282h-.321l-.321 1.923-2.244 5.449H48.08v.321c-.775.174-.828-.267-1.282-.321v.321c-.454 0 .12-.214-.32-.321-2.578-.668-7.506.454-9.296 0h-3.526c-.093.013-.093.414-.641.321v-.321h-3.526v.321l-.641-.321v.321h-.32v-.321h-3.205v.321l-2.885-.641-.641.962h-.32l-.641 1.923h-.321v.641h-.321v.641h-.32v.641h-.32l-.641 1.923h-.32v.962h-.321l-.32 1.282h-.32v.641h-.321v.962l-.641.32-.321 1.603-.641.32v.641h-.321v.641h-.321l-.321 1.923h-.321l-.641 1.923h-.32v.641h-.321v.962h-.32v.641h-.321v.641l-.641.321-.321 1.282h-.32v1.282l-.641.321-.321 1.282-.641.321v.962h-.321v.641h-.321v.962h-.321l-.321 1.282h-.321v.641l-.641.32v.962h-.321l-.321 1.282h-.321v.962H6.09l-.321 1.282-.641.321v.641h-.321v.962h-.321v.641h-.321l-.321 1.282h-.321v.962h-.321l-.641 1.923h-.321v.641h-.321v.641h-.321v.641h-.321v.641H.962v.641H.641v.641H.321v.641H0l.641 7.052c.908.214.788.561.962.641h1.923v.321c1.122.307 2.11-.254 2.885-.321 2.898-.254 6.932-.187 9.296.321l3.526-.321v.321c.374.4-.08 3.285.321 5.769l1.923-.32c.561-3.112.467-8.762 2.244-10.578.494-1.896 2.417-1.683 3.526-2.885h.32l-.641 1.923-.962.641-.641 1.923.962.321c.361.347-.013.133.641.32l.962-1.282h.321c.881-1.269 3.152-5.195 2.244-8.013h-.321v-.962h-.321l-.32-1.282h-.32v-.641h-.321l-.32-1.923h-.32l.32-2.244h.32v-2.885h.321c.067-.454-.24.12-.321-.321l-.32-5.77h.32v-.962h.321v-.641h.32v-.641l.641-.32v-.962l.641-.321v-.641c.387-.494 2.204-.935 2.885-1.282v-.32h.641v-.321h.641v-.32h1.282c.24-.08 2.631-.694 2.885-.641v.321h.962v.32l2.244.32v.321h.641l.32.641h.641c.815.454 1.442 1.028 2.564 1.282v.641l.962.321c.187.628-.053.267.321.641-.107 1.616-.801 2.017-1.603 2.885l-.641.321v.641l-.641.321v.962h-.32c.107 2.257.775 3.045 1.603 4.487v.641l1.282.962c.721 1.015.868 2.19 1.923 2.885l.32 3.526h-.32c-.281.788-1.322 4.421-.962 5.449h.321l.641 1.923.962.321-.32 3.526 1.923.32c.2-1.055 1.202-2.591.641-4.167h-.321v-.641h-.321c-.561-1.028-.881-1.723-.962-3.205 2.204.401 5.69 1.99 6.731 3.526v.641h.32v.641h.321v.962h.321v.962h.321v.962h.32v4.167h.321l.32 4.488c1.336.026 1.683.187 2.244-.641.053-.08-.307-4.822-.321-6.411 2.912.361 8.481.321 12.821.321l5.449.32v-.32c.922-.254 1.776.24 2.244.32 1.91.307 4.942 0 6.731-.32.267.36-.053.04.32.32-.748 1.309-1.937 2.444-2.564 3.847v.961h-.32v.641h-.32l-.321 1.282h-.321l-.32 1.924h-.321c-.454.921-.641 1.522-.641 2.884h.962v.321c1.162-.174 1.055-.267 1.603-.962h.321v-.961h.321v-.641h.32v-.962h.321v-.962h.32l.321-1.923h.321l.641-1.923h.321v-.641h.321l.32-.962.641-.32v-.641l.962-.641.321-.962h.641l.32-.641h.641v-.321l.962-.321.641-.962 1.923-.321v-.32h.962v-.321h.962v-.32h1.282v-.321h1.282v-.321h2.885v-.32h2.564v.32h3.206v.321h2.884v.321h2.885l4.808 1.603.962 1.282c3.365 3.352 3.232 7.76 3.205 14.424h1.923c.054-1.149.575-5.035.641-5.129v-.32h-.32v-2.564h-.321v-1.603l-.961-3.205 4.167-.321c.481.067.494.387 1.282.321l.961-.321v.321l.962-.321v.321l2.564-.321h1.924v.321h2.243v-.321h3.847v.321l.961-.321h6.411c.441-.08 1.336-.588 2.244-.32v.32h3.846v-.32h.321v.32c1.055.227 2.297-.307 2.884-.32v.32h3.206c-.214.374-.521.454-.641.641v.641l-.641.321v.961h-.321v.641h-.32l-.321 1.283h-.321l-.32 2.243h-.321l.321.962c.748.067.788.133 1.282.32l.641-.961h.321v-.962h.32v-.961h.321v-.641h.32l.321-1.603.961-.641v-.641h.321c.668-.815 1.629-1.416 1.923-2.564.721-.2.788-.281 1.282-.641v-.321h.641v-.32h.641v-.32h.962v-.321l1.282-.321v-.32l2.244-.321v-.32c2.03-1.229.534-2.578 1.603-3.846 1.789-1.816 8.454-.708 11.539-.641v.641l-6.411.641v.321c-1.549.441-2.204-.468-3.205.641l-.962.321c.04.841.12 1.082.321 1.603 1.602-.027 2.417-.321 3.526-.641h3.205v-.321h2.564v-.32h.321v.32l.32-.32h.321v.32h3.205v.321l1.603.32c.187.882.734 1.523.961 2.244v1.923h-.32c-.054.494.587 1.87.32 2.885h-.32l-.321 5.449c.641.187.267-.053.641.32 1.376-.08 1.082-.2 1.924-.641v-2.564h.32c-.027-1.803-.174-4.153.321-5.449l7.692.321c1.884-.455 4.955-.321 7.373-.321 1.469 0 5.663.321 6.41-.32 1.376-.08 1.082-.2 1.924-.641l.32-4.808h.321v-.962h.32l-.32-.962h.32v-.32zM92.314 55.525l1.923 2.244h.641v.321c.387.307.614.214.962.641h.32v.32h-4.167v-.32l-1.923-.321v-.321l-1.282.321v.321h-.962v-.641c1.563-.414 1.149-1.015 1.923-1.923.321-.401.855 0 1.282-.321v-.32h1.282zm-.641-3.205v1.282h-1.923V52.32c.641-.2.267.04.641-.32.748.067.788.133 1.282.32zM69.876 14.176h.962l.321.641h.641v.321h.962v.32h2.564v.321c2.885.815 5.476-.868 7.372-1.282-.107 1.135-1.349 4.648-1.923 5.128h-.641l-.641.962-3.526.32h-2.885v-.32h-.962v-.32h-.641v-.321h-.962l-.32-.641-.962-.321c-.294-1.229-.841-1.683-1.282-2.564v-.641h-.321v-2.885c1.002.267 1.456.908 2.244 1.282zm8.975 9.295c-.16.868-.401 1.75-.962 2.244-.2.628.04.267-.321.641l-.321-1.603h-.32c.067-.761.133-.801.32-1.282h1.603zm-4.808 0v.962c-.548.347-1.603 1.656-1.923 2.244H71.8l-.32-3.526c1.149 0 1.736.16 2.564.32zM57.376 42.704v-.962h.321l.32-1.282h.321v-1.282h.321l.321-1.282h.32v-.962h.321v-1.282h.32l.641-1.923h.321v-.962h.32v-.962h.321v-.962h.321v-.962l.641-.321v-1.923h.32c.668-.988.334-.174 1.282-.641v-.321h.641l.962-1.282h.641l.321-.641h.962l1.282-1.923h.641c-.467 1.362-.147 1.683.32 3.205v1.923h.321c-.053 1.79.187 2.564 1.603 2.885l1.603-1.923h.321c.574-.868.481-1.87 1.282-2.564v-.321h.32l.321 1.923h.32v.962h.321v.641c.093.16.441.24.641.641 1.656-.08 1.242-.307 1.923-1.282l.641-.321v-.641h.321v-.962h.32v-.641h.321l.321-1.923h.32c.361-.361-.013-.147.641-.32.494.588.641.267 1.282.641v.321h.641l.32.641h.641v.321h.641v.321l.962.32V28.6h.32v.641h.32l.321 5.128h.321v1.603h.32v1.603h.321v.962h.32v1.603h.321v.641h.321v1.603h.32v.962h.32v2.885h.321v1.603h.321v1.282h.32l-.32.962-1.603.32-.321-2.244h-.32v-.641h-.321v-1.603h-.32v-1.282h-.321v-1.282h-.321v-1.282h-.32V40.78h-.32v-1.282h-.321v-1.282h-.321v-1.282h-.32v-.641h-.321l-1.282-5.77c-.361-.28-.053.04-.32-.32h-1.282v.32l-.962.321c.24 2.137.975 4.274 1.603 6.09l1.282 5.449h.321v1.282h.321l.641 2.885-4.167.321v-.321h-2.244v-.321l-3.526.321c-.013-1.002-.094-1.656-.32-2.244h-1.603c-.214 1.122-.414 1.162 0 2.244H60.581c.2-.855.574-1.79.962-2.564h.321v-.962h.321l.321-1.282h.32v-.962h.321l.641-1.923h.321l.321-2.244h.32l.32-1.282h.321l.32-2.244c.267-.761.788-1.589.962-2.564-.775-.174-1.002-.387-1.603-.641-.2.347-.547.481-.641.641v.641h-.321l-.321 1.923h-.321v.641h-.321v.962h-.321v.641h-.32v1.282h-.321l-.321 1.282h-.321l-.321 1.923h-.32l-.321 1.282h-.321v.641h-.321l-.32 1.923h-.321v.641h-.32l-.321 2.244h-.321l-.321.962c-1.149-.013-1.736-.174-2.564-.32.227-1.91 1.282-3.058 1.923-4.488zm-2.564 6.731h1.282v.321h.32c-.24.494-.294.761-.32 1.603H54.17v-.321c-.361-.28-.053.04-.321-.32.534-.347.694-.681.962-1.282zm.962 4.167c.04 1.255.147 1.469.962 1.923v.32h-.962v-.32l-2.885.641v.321h-1.603v.321l-1.282.32v.321h-1.282v.321h-.962c.267-.361-.053-.053.321-.321.561-.881 1.669-1.055 2.244-1.923h.641c.24-.975.828-1.509 1.603-1.923.347-.267 1.977-.04 3.205 0zM20.194 97.194c-.361.267-.053-.053-.32.32h-5.77v-.32l-1.603.32v-.32h-.962c-.614.027-.641.28-.641.32H3.205l-.321-2.244h1.282v-.32h7.372l3.526.32v-.32h3.846v.32h.32v-.32c.748.067.788.134 1.282.32l-.321 1.923zm75.005-1.603l-.32.641h-.962l-.321.641h-.641v.321h-.641l-.32.641c-.681.267-4.568-.761-6.09-.321v.321h-2.244v-.321h-.32v.321h-.321v-.321h-.32v.321h-3.205v-.321H77.89c-2.337.494-11.793-.254-16.668-.32l-.32-2.244h23.72c1.763 0 7.746-.801 8.654 0h2.885c-.521.775-.307.187-.962.641zm16.989-7.372h-.962v.32l-1.923.321v.32c-2.137 0-3.579-.107-4.808-.962v-.321l-1.282-.962-.321-1.282h-.32v-3.846c-.508-1.83.708-6.023 1.923-7.052v-.641h.321c-.027 2.725-.428 3.339.32 5.77v1.603h.321l.32 1.282.641.321v.641h.321c.374.467.454.561.641 1.282l3.846 1.282c.16.027 2.11-.307 2.885-.32-.321 1.215-.708 1.002-1.603 1.603l-.32.641zm60.581 7.052c-1.59.16-2.177.695-3.206 1.282h-.641l-.32.641-1.282.32-.321.641-.962-.321v.321l-2.564-.321-4.487.321-3.206-.321v.321h-10.577c-.441-.107.12-.294-.321-.321-.708.441-4.26.321-6.41.321-2.658 0-5.864-.013-8.014.32l-4.167-.32v.32l-1.282.32c-.2-.641.04-.28-.32-.641v-.641l-.962-.32-.321-.641h-.641v-.321h-.641v-.321c-.681-.374-.708-.027-1.282-.641h-.641v-.32h2.885s-.067-.321.641-.321c.935 0 2.484.695 3.846.321v-.321h2.565v.321h1.602v-.321l1.603.321v-.321l6.09.321v-.321l10.257.321c.628-.16 3.419-.481 5.449-.321l1.282.321c3.98-.681 10.912-.347 16.348-.321v.641zm14.424-7.693l-.962.321v.321h-.641v.32l-1.923.321v.32c-2.017 0-3.326-.16-4.488-.962v-.321l-1.282-.962-.641-3.205h-.32c-.094-.548.293-.574.32-.641v-3.205h.321v-1.282h.32v-.962h.321v-.962s.481-.347.641-.641c1.055.027 1.442.067 1.923.641.454.387-.841 1.736-.321 3.205h.321c.2.561.147.828.321 1.282 1.455.588 1.522.494 3.205.321-.067 2.724.668 4.688 2.885 5.129v.962zm.32-3.846l-.641-.321v-2.885l-.641-.32-.32-.962c-1.056-.454-2.017-.801-3.206-.321.321-.708 1.576-2.15.962-3.526h-.321c-.36-.534-.427-.548-.641-1.282l-1.282-.32s-.16.508-.641.32v-.32c-.548-.334-.521-.454-1.282-.641v-.962l.961-.32.642-.962h.961v-.32c1.496.013 2.484.12 3.526.641v.321h.641v.321c.895.307 2.244-.441 2.564-.321l.641.962h.962v.321c1.175.508.307-.414 1.282.641H192v.641l1.602 1.282v.962h.321c.387.908-.08.948.641 1.603v.962l-.962.641-.32.962h-.321v.641h-.32v.321h.32c-.04.534-.641.681-.961.962v.32h-.641c-.722.427-1.496 1.175-1.924 1.923-1.415-.067-1.282-.267-1.923-.962zm30.451 13.142c-.361.267-.054-.053-.321.321-3.552-.013-8.734.053-9.936.32-3.433.748-8.214-.761-11.219.321-.387-1.015-.547-2.244-1.282-2.885v-.321c7.185 0 15.947-.494 22.758 0v2.244zm-10.257-4.808c-1.202-.334-7.666-.761-9.296-.321v.321h-1.602v-.321h-6.091l-.32-1.603h-.321c-.44-.641-.52-.614-1.602-.641v-.321h.641v-.641h.641l.32-.962 1.603-1.282v-.641H192l.32-.641h.962l.32-.641h.641c.441-.347.374-1.055.641-1.603h.321v-1.282c.454-1.082 1.416-1.229 1.603-2.885.173-.254.427 0 .32-.641h-.32c-.201-.855-.107-2.644-.641-3.205-.254-1.042-.882-1.696-1.924-1.923-.494-2.003-2.31-1.937-3.846-2.885l-.321-.641h-.961v-.32h-2.564v-.321h-.962v-.321h-.641v-.32c-.801-.294-2.564 0-2.885.32h-1.603l-.961 1.282h-.641l-.962 1.282h-.32l-.321-1.603c-.107-.174-.441-.254-.641-.641-1.629-.093-4.113-.881-6.09-.321v.321h-3.847s-.013.294-.641.321v-.321h-.32v.321h-2.244c-1.162-.347-2.284-.935-3.846-.962-2.364-.067-7.092-.588-8.334.641h-.321l.321.962h-.321v.641h-.32v1.923h.32v2.564h.321l.32 2.564h.321v.962h.32l.321 2.244h.321c.414 1.309-.254 1.977.641 2.885 1.095 1.095 4.607.641 6.731.641l14.424.32 1.282 3.846.641.32v.641h.321l.32.962-1.923.32c-.2.775-.347.695-.641 1.282l-13.783.321v-.321h-5.449v.321c-1.429.414-3.139-.387-3.526-.321v.321h-1.282v-.321c-.441-.107.053.067-.321.321-.454-.027.12-.214-.32-.321h-1.923v.321c-1.416.401-7.025-.04-8.014-.321h-2.244v.321c-1.402.401-3.565-.214-4.487-.321v.321h-.321v-.321c-.627-.107-.641.321-.641.321-.694.133-.961-.321-.961-.321l-.641.321v-.321h-.321v.321h-1.602v.32h-.321v-.32h-1.603v-.321h-1.923v.321h-3.205v-.321h-.321v.321h-4.167v-.321c-.44-.12 0 .08-.32.321h-.321v-.321h-.961l-.321-.641h-.641v-.32c-.441-.294-.574-.24-1.282-.321v-.962c1.522-.427 1.362-1.523 2.885-1.923.267-1.015.734-1.162.961-2.244h.962c.267-1.322.815-2.444 1.282-3.526 5.329-.013 11.285-.147 16.988-.641.267-.361-.053-.053.321-.321-.08-3.9-1.215-6.744-2.244-9.616v-1.282h-.32v-.962h-.321v-.962h-.32v-.962h-.321v-1.282h-.321l-.32-2.244h-.321v-.641h-.32v-.962h-.321v-.641c-.107-.174-.454-.267-.641-.641l-1.282-.32v-.321h-.32v.321h-2.565c-2.938 0-6.851-.321-8.013 0-1.683.441-4.661-.681-5.77.32l-.961.321c-.027 1.843.067 4.568.961 5.449v1.603c-2.07-.761-5.996.027-7.372.962v.32c-.761.601-1.189 1.309-2.244 1.603-.28 1.002-.868 1.469-1.282 2.244l-.32 1.282h-.321v.962l-.641.321v1.282c-.427 1.215-1.616 5.596-.962 7.693h.321v.962h.321v.962h.32c.641 1.616.454 2.377 1.923 3.205-.587.855-1.415.708-2.243 1.282l-.642.962h-7.051v.32h-5.449c-3.539-.601-9.937-.788-13.462 0-.708.147-.962-.32-.962-.32h-7.693v.32l-.641-.32v.32h-1.282v-.32c-1.362-.361-3.299.24-4.167.32l-.641-.962h-.641l-.32-.641h-.641v-.321l-1.282-.32v-.32h-.962v-.321h-.641v-.321c-.908-.467-1.549-.187-2.244-.962-.708-.935.641-2.137 0-4.167h-.321l-.32-.962h.32v-.641l.641-.321.962-3.846h-.32v-1.282h.32l-.32-3.526h-.321l-.641-1.923h-.321v-.641l-1.282-.962c-.534-.868.2-1.536-.641-2.564-.347-.427-.788-.013-1.282-.321l-.962-1.282h-.641l-.32-.641h-.641v-.321h-.641V64.5h-.962l-.321-.641h-.641v-.32l-1.282-.321v-.321c-.761-.307-4.955-.694-6.09-.321v.321h-.962v.321h-.641v.321h-1.282v.32h-.641v.321l-1.282.32-.962 1.282-2.244 1.923v.641h-.32l-.32 1.282h-.321v.962h-.321v.641h-.32v1.923h-.321c-.641 2.204.855 3.953.641 5.77-.16 1.296-1.202 3.205-.641 5.129h.321l.32 2.564.641.321c.574.908.868 1.482.962 2.885l-4.167.962-.962 1.282h-.641v.32H6.09s-.134.521-.641.321v-.321H3.205l.321-.962.641-.32v-.641h.321v-.962h.321v-.641h.321v-.962h.321l.321-1.282h.321l.321-1.282h.321v-.641h.321l.641-1.923h.321l.321-1.923.641-.32.962-2.885h.321l.321-1.282h.32v-.641h.321v-.641h.32l.641-1.923h.32l.641-2.885.962-.641v-.641h.32v-.641h.321l.321-1.923.641-.32.962-2.885h.32v-.641l.641-.32.962-3.205.641-.32v-.962h.321l.32-1.282h.32v-.962l.641-.321v-.962l.641-.321.32-1.603h.321l.32-1.603h.321l.32-.962h6.09v-.321l1.282.321.641-.321c1.496.227 4.728.775 6.731.321v-.321l1.282.321c2.511.174 6.023.16 8.013-.321l4.808.321-.321 1.603.321.321c-.321.427-.801 0-1.282.321l-1.603 1.923h-.641l-.641.962h-.641v.321l-1.603 1.282c-.454.588.147.454-.641.962l.321 1.603c.561.254 1.215.508 1.603.962h1.923v-.321h.962v-.321h.641v-.321l2.564-.32v-.321h1.282v-.321h.641v-.321l2.244.321v.321h.962v.321c2.19 0 1.963-.254 3.205-.962l-.32-1.923c-1.309-.361-1.616-1.282-2.885-1.603-.12-.654-.628-1.335-.32-2.244h.32l.321-1.923c.361-.281.04.04.321-.321h18.27c3.646 0 6.624-.401 9.296 0 .24 1.336.761 4.06 1.603 4.808-.254 2.07-1.335 1.656-2.564 2.564-.334.24-.574.975-.962 1.282v1.282c.307.574 3.579 1.79 5.129 1.282 0 0 .214-.547.641-.641l.321.641h1.282v.321c2.725.04 7.078.561 8.333-.962h.321l-.962-1.923c-.588-.654-1.803-1.095-2.564-1.603l-.321-.641h-.641c-.561-.401-.801-1.175-1.603-1.603.107-1.202.334-2.377-.641-3.205v-1.603h.321c.935-.668 6.772.561 8.975 0v-.321l4.167.321h15.706v-.321c.655-.107 1.189.601 2.244.321v-.321h4.808v.321c.761.187.842-.361 1.282-.321v.321h4.808v-.321l9.296.321h2.885c.48-.147 1.909-.601 2.884-.321v.321c.828.214 1.71-.347 1.924-.321v.321h7.051v-.321c.868-.24 1.523.294 1.923.321v-.321c.695-.013.642.321.642.321h4.166v-.321l3.526.321c3.032.067 7.119.321 9.616-.321l2.885.321v-.321l1.603.321h3.205v-.321l2.244.321v-.321l.641.321H192v-.321h.32v.321c.681.013.641-.321.641-.321h1.923v.321h.321v-.321h4.487c.521.281.949 2.791 1.283 3.526h.32v.641l.641.32v.962h.321l.32 1.282h.321v.962h.32v.641h.321v.962h.32v.641h.321v.641h.32l.642 1.923h.32l.321 1.923h.32l.321 1.282h.32v.962h.321l.32 1.282h.321l.32 1.282.641.321v.962h.321v.962h.32v.641h.321v.962h.321v.641h.32v.962h.321v.641l.641.32.32 1.603.641.321v.962h.321v.641h.32v.641h.321l.641 1.923h.32v.962h.321v.641h.321v.962h.32l.641 1.923h.321v.641h.32v.641h.321v.962h.32l1.282 3.846-10.577.321zm-39.105-10.257v.321h-.641c-1.216-3.139-1.67-7.252-2.244-10.898 2.457-.921 5.623-.374 9.616-.32.214 1.189 1.416 3.673.962 5.129-.628 2.003-1.576 3.232-1.603 6.09-1.87 0-4.902.147-5.77 0v-.321h-.32zm-5.129-10.898c.107 2.03.735 4.194 1.282 5.77v1.282h.321c.467 1.536-.254 2.858.641 3.846v.321l-10.578-.321-2.243-10.257c.066-.761.133-.801.32-1.282l4.808-.321v.321l5.449.641zm-31.412-1.282l.32 2.244h.321v.641h.32l.642 3.847h.32l.641 2.885h-4.808v.32h-.32v-.32c-1.79-.374-4.808-.027-6.091.32h-1.602v-.32l-1.603.32-.641-4.167h1.923l.321-.641h.641l.32-.641h.962v-.32c1.095-.868 2.751-3.726 1.282-5.129-.254-.881-.08-.735-.961-.962v-.641c-3.9-.775-6.585-.227-8.014 2.564-.441-.481-1.309-5.502-1.282-6.731 4.354-.414 9.87-.347 14.745-.321l1.923 6.411h.32v.641h.321zM75.967 31.485c-.214-.547-.32-1.015-.32-1.923-.922.013-1.376.107-1.923.321.013.908.107 1.362.321 1.923l1.923-.321zm-.32 5.77h-1.603l-.321 1.923 1.603.32c.147-.801.307-1.175.321-2.244zm-1.603 0l-.321 1.923 1.603.32c.147-.801.307-1.175.321-2.244h-1.603zm1.603-7.693c-.922.013-1.376.107-1.923.321.013.908.107 1.362.321 1.923l1.923-.321c-.214-.547-.32-1.015-.32-1.923zm0 0c-.922.013-1.376.107-1.923.321.013.908.107 1.362.321 1.923l1.923-.321c-.214-.547-.32-1.015-.32-1.923zm-1.603 7.693l-.321 1.923 1.603.32c.147-.801.307-1.175.321-2.244h-1.603zm0 0l-.321 1.923 1.603.32c.147-.801.307-1.175.321-2.244h-1.603zm1.603-7.693c-.922.013-1.376.107-1.923.321.013.908.107 1.362.321 1.923l1.923-.321c-.214-.547-.32-1.015-.32-1.923zm0 0c-.922.013-1.376.107-1.923.321.013.908.107 1.362.321 1.923l1.923-.321c-.214-.547-.32-1.015-.32-1.923zm-1.603 7.693l-.321 1.923 1.603.32c.147-.801.307-1.175.321-2.244h-1.603zm0 0l-.321 1.923 1.603.32c.147-.801.307-1.175.321-2.244h-1.603zm1.603-7.693c-.922.013-1.376.107-1.923.321.013.908.107 1.362.321 1.923l1.923-.321c-.214-.547-.32-1.015-.32-1.923zm0 0c-.922.013-1.376.107-1.923.321.013.908.107 1.362.321 1.923l1.923-.321c-.214-.547-.32-1.015-.32-1.923zm-1.603 7.693l-.321 1.923 1.603.32c.147-.801.307-1.175.321-2.244h-1.603zm0 0l-.321 1.923 1.603.32c.147-.801.307-1.175.321-2.244h-1.603zm1.603-7.693c-.922.013-1.376.107-1.923.321.013.908.107 1.362.321 1.923l1.923-.321c-.214-.547-.32-1.015-.32-1.923zm0 0c-.922.013-1.376.107-1.923.321.013.908.107 1.362.321 1.923l1.923-.321c-.214-.547-.32-1.015-.32-1.923zm-1.603 7.693l-.321 1.923 1.603.32c.147-.801.307-1.175.321-2.244h-1.603zm0 0l-.321 1.923 1.603.32c.147-.801.307-1.175.321-2.244h-1.603zm1.603-7.693c-.922.013-1.376.107-1.923.321.013.908.107 1.362.321 1.923l1.923-.321c-.214-.547-.32-1.015-.32-1.923zm0 0c-.922.013-1.376.107-1.923.321.013.908.107 1.362.321 1.923l1.923-.321c-.214-.547-.32-1.015-.32-1.923zm-1.603 7.693l-.321 1.923 1.603.32c.147-.801.307-1.175.321-2.244h-1.603zm0 0l-.321 1.923 1.603.32c.147-.801.307-1.175.321-2.244h-1.603zm1.603-7.693c-.922.013-1.376.107-1.923.321.013.908.107 1.362.321 1.923l1.923-.321c-.214-.547-.32-1.015-.32-1.923zm0 0c-.922.013-1.376.107-1.923.321.013.908.107 1.362.321 1.923l1.923-.321c-.214-.547-.32-1.015-.32-1.923zm-1.603 7.693l-.321 1.923 1.603.32c.147-.801.307-1.175.321-2.244h-1.603z" fill="#000"/></svg>