<svg viewBox="0 0 203 254 " fill="none" xmlns="http://www.w3.org/2000/svg"><path d="M109.939 288.782a9.007 9.007 0 0 1-1.133-1.846c-1.299-4.262-2.448-8.572-3.802-12.81-1.823-5.697-3.811-11.337-5.673-17.026-.61-1.869-.958-3.834-1.624-5.688a2.177 2.177 0 0 0-1.584-1.093c-8.882-.444-17.755-.793-26.636-1.205a20.083 20.083 0 0 1-2.115-.285c-9.166 26.937-16.914 54.261-27.245 81.237l13.888 6.877c1.267-2.94 2.377-5.863 3.77-8.715 2.718-5.609 5.665-11.091 8.32-16.764 1.814-3.858 3.168-7.922 4.943-11.812 2.852-6.425 6.005-12.724 8.715-19.212 2.178-5.277 3.913-10.735 5.704-16.154 1.133-3.43 1.957-6.956 3.034-10.41.42-.86.952-1.659 1.585-2.377.348.666.546.864.507.99-1.696 5.728-3.225 11.52-5.181 17.153-1.799 5.141-4.01 10.148-6.14 15.171-3.867 9.19-7.67 18.364-11.789 27.396-2.773 6.092-6.037 11.963-9.032 17.952-.673 1.347-1.133 2.805-1.727 4.191-1.743 4.08-3.414 8.176-3.169 12.747.056 1.268-.586 1.64-1.885 1.917-3.478.721-6.861 1.823-10.482 1.625-1.901-.103-3.818-.08-5.72-.064-2.107 0-4.206.151-6.338.167-6.448.037-12.897.05-19.346.039a5.544 5.544 0 0 1-1.68-.562l.111-.658a16.41 16.41 0 0 1 1.838-.182c3.62.079 7.241.269 10.854.261 2.757 0 5.546-.269 8.271-.356 4.341-.135 8.715-.087 13.024-.373a73.174 73.174 0 0 0 8.367-1.307c.538-.103 1.378-.618 1.426-1.03.34-2.59.53-5.205.665-7.811a1.683 1.683 0 0 0-.792-1.299c-3.906-1.902-7.843-3.724-11.306-5.348-2.32 1.497-4.333 3.169-6.654 4.215-4.207 1.853-8.565 3.398-12.922 4.888-2.321.792-4.753 1.22-7.13 1.814l-.333-.65a13.515 13.515 0 0 1 2.314-1.275c3.96-1.307 7.922-2.44 11.804-3.819 2.52-.887 4.928-2.107 7.4-3.169 2.202-.919 3.311-2.551 4.04-4.848 1.584-5.118 3.668-10.109 5.403-15.203 1.886-5.546 3.605-11.092 5.42-16.685 2.946-9 5.98-17.968 8.864-26.984 2.147-6.702 4.057-13.468 6.188-20.186.942-2.963.84-5.918.618-8.953-.793-10.845-1.141-21.691.443-32.482.341-2.337.27-4.753.492-7.13a5.471 5.471 0 0 1 .792-1.671l.713.285c-.563 6.861-1.387 13.713-1.585 20.598-.198 6.885.143 13.627.254 20.448l.697.063c.404-1.584.792-3.169 1.196-4.753l.705-.095c.15.57.531 1.18.42 1.687-.53 2.377-1.196 4.754-1.806 7.083-.158.626-.285 1.26-.515 2.274 3.422.245 6.615.554 9.816.689 5.918.253 11.883.428 17.77.562.681 0 1.838.555 1.965-.927 0-.079 1.164-.237 1.22-.11.594 1.33 1.727.99 2.733.934 4.753-.269 9.486-.554 14.197-.855.575-.06 1.146-.15 1.711-.27a10.77 10.77 0 0 1-.982-2.234c0-.182 1.157-.847 1.196-.792a31.574 31.574 0 0 1 1.814 2.606h2.686l.262.666a7.476 7.476 0 0 1-1.949.792c-6.687.579-13.381 1.094-20.076 1.632-.119 0-.23.111-.546.278.625 2.376 1.14 4.753 1.933 7.13 2.424 7.233 4.991 14.419 7.423 21.644.729 2.171 1.149 4.436 1.814 6.623a6.79 6.79 0 0 0 1.22 1.664c-2.147 9.863-5.086 19.901-6.338 30.145-1.252 10.243-5.015 20.131-3.747 30.81 1.751.127 3.961.301 6.251.452 4.595.309 9.19.633 13.785.879.846-.058 1.681-.22 2.487-.483a29.542 29.542 0 0 1 4.889-1.006c3.897-.143 7.803-.048 11.883-.048-.792-2.884-2.289-3.518-4.571-3.636-6.52-.357-12.367-2.789-17.699-6.164-4.523 1.062-9.015 2.155-13.698 2.004-.602 0-1.188-.665-2.028-1.172l12.629-1.426c.934-1.078 1.584-1.854 1.925-2.219-.317-1.045-.792-1.79-.682-2.376a71.73 71.73 0 0 1 1.989-7.13 7.203 7.203 0 0 1 1.584-2.037c2.979-3.462 3.962-7.74 5.055-12.002 1.584-6.172 3.422-12.288 5.078-18.451 1.189-4.445 2.29-8.913 3.359-13.389a4.527 4.527 0 0 0-.071-2.322c-3.169-10.251-6.203-20.535-9.673-30.683-.555-1.624-.674-3.312-1.276-4.904a3.067 3.067 0 0 1 .563-2.512c.277.492.546.983 1.045 1.886.349-1.371.595-2.377.88-3.415 2.48-8.833 2.765-17.928 1.774-26.873-.507-4.571.381-8.952 0-13.404a1.829 1.829 0 0 1 .397-1.26c.705-.792 1.529-1.489 2.559-2.464 4.531 6.679 9.237 13.635 16.066 18.721-.919.657-2.028.578-3.066-.602-3.842-4.389-7.597-8.85-11.376-13.294a5.56 5.56 0 0 0-1.775-1.585c-.38 1.926-1.062 3.851-1.101 5.784-.119 6.393-.143 12.795.047 19.188a55.657 55.657 0 0 1-2.242 16.193 19.52 19.52 0 0 0 .46 12.241c2.963 8.358 5.332 16.93 7.986 25.399a10.12 10.12 0 0 1-.135 5.997c-1.299 4.619-2.313 9.325-3.565 13.967-1.434 5.332-3.534 10.553-4.35 15.972-.95 6.298-3.858 11.805-5.783 17.691-.555 1.679-1.291 3.296-1.925 4.944a1.765 1.765 0 0 0 .729 2.337c3.549 2.741 7.74 3.961 11.883 5.125 1.565.504 3.206.735 4.849.682 3.003-.214 4.12 2.099 5.546 3.858a1.354 1.354 0 0 1 .122 1.473 1.355 1.355 0 0 1-1.303.698c-3.85.332-7.716.665-11.574.752-1.918.04-3.692-.142-5.546.943-1.078.642-2.686.642-4.033.555-4.595-.27-9.182-.737-13.769-1.062-1.64-.111-3.288-.055-4.936-.039-1.394 0-1.782-.603-1.632-1.981.222-2.123.705-4.413.159-6.338-.697-2.551.285-4.658.689-6.932.792-4.262 1.664-8.501 2.424-12.763.793-4.595 1.442-9.238 2.377-13.809 1.204-5.855 2.638-11.67 3.961-17.501.229-.76.501-1.506.816-2.234ZM120.475 135.617a15.4 15.4 0 0 1 1.458-1.204c1.434-.832 2.717-.246 2.725 1.418 0 1.822.159 3.913-.634 5.419-2.376 4.5-1.029 8.928-.396 13.412.159 1.102.381 2.203.587 3.304.229 1.244-.381 1.68-1.537 1.656-2.044-.04-4.088 0-6.132-.127-1.062-.055-1.466.396-1.799 1.331-2.218 6.227-6.092 8.873-12.62 8.881-2.464 0-4.42-1.054-6.338-2.377-1.022-.697-1.814-1.972-3.415-1.426-.166.056-.681-.531-.847-.903a15.265 15.265 0 0 1-.618-2.076c-.864-3.129-.864-3.129-4.2-3.382-2.099-.159-4.198-.333-6.337-.46-1.252-.071-1.521-.658-1.3-1.83.452-2.377.65-4.801 1.18-7.13a32.856 32.856 0 0 1 1.712-4.445c-2.194-1.236-3.842-3.002-3.707-5.696a3.237 3.237 0 0 1 1.418-2.456c1.52-.618 1.727-1.751 1.719-2.971 0-7.811 7.13-13.777 13.397-15.457a26.456 26.456 0 0 0 3.01-.958 9.758 9.758 0 0 1 6.497-.206 25.589 25.589 0 0 1 16.328 13.737c.38.793.935 1.68-.286 2.377-.126.079.064.745.135 1.569Zm-31.602-8.129-.531-.427c-.872 2.123-1.854 4.206-2.583 6.337a61.997 61.997 0 0 0-1.782 6.655c-.351 1.29-.472 2.63-.357 3.962a9.743 9.743 0 0 0 2.377 5.45c1.545 1.735 2.178 4.255 3.422 6.338 1.244 2.084 2.67 3.724 3.391 6.029 1.062 3.375 4.017 4.983 7.13 6.013 3.114 1.03 6.291.262 9.143-1.283 2.281-1.236 3.383-3.169 3.961-5.847.578-2.678 2.551-5.094 3.724-7.701a30.254 30.254 0 0 0 2.289-6.417c.412-2.075-.158-4.341.301-6.393a7.463 7.463 0 0 0-1.466-6.085c-1.758-2.487-4.278-4.42-6.337-6.749-.84-.967-1.228-2.322-1.815-3.51-.356-.729-.515-1.751-1.093-2.131a28.962 28.962 0 0 0-4.579-2.274c-.349-.143-.895.198-1.299.301.53.792.879 1.323 1.228 1.854a6.926 6.926 0 0 1-1.585.562 20.753 20.753 0 0 0-11.155 4.524c-.586.483-1.592.531-2.384.792Zm-6.87 16.384c-.245-4.468-.245-4.468-1.584-5.364-1.45 1.743-.84 3.859 1.577 5.364h.008Zm41.459-8.041-.491-.293c-.476.348-1.331.673-1.355 1.053-.143 1.878-.063 3.763-.063 5.649l.728.04c.389-2.147.785-4.302 1.173-6.449h.008Zm-31.08-13.468.31.586 3.802-1.854-.372-.729-3.74 1.997ZM130.803 39.313l19.862-28.6c1.053 1.996 1.901 3.589 2.709 5.11.27-.333.689-.793 1.101-1.316a7.11 7.11 0 0 1 1.125 1.751c1.585 6.109 3.169 12.24 4.706 18.357.159.625.373 1.236.587 1.94-3.875 3.962-7.598 8.224-11.797 11.94-4.199 3.715-7.328 8.27-12.137 11.091l-.515-.404c.19-.42.261-.959.57-1.252 3.241-3.066 6.576-6.029 9.761-9.142 3.818-3.716 7.502-7.566 11.265-11.337a2.78 2.78 0 0 0 .793-3.003c-1.513-5.38-2.932-10.79-4.381-16.185l-.793-.793a7.6 7.6 0 0 1-.705 1.854c-6.179 8.58-13.967 15.631-21.779 22.635a9.026 9.026 0 0 1-4.04 1.925 2.762 2.762 0 0 1-3.438-1.925c-.491-2.282-1.102-4.754-.642-6.972 1.149-5.45 2.812-10.79 4.389-16.138a104.03 104.03 0 0 1 2.987-8.77c.428-1.078 1.378-1.957 2.075-2.931.302-.412.555-.864.88-1.252.42-.515.895-.99 1.347-1.482.418.544.807 1.11 1.164 1.696.09.351.117.716.079 1.077l-1.956.119c-2.425 9.245-4.873 18.562-7.313 27.88l.412.118 14.118-29.852.951.087c.435 1.521.887 3.027 1.259 4.564 0 .174-.332.61-.554.641-.222.032-.571-.277-.689-.515a15.567 15.567 0 0 1-.618-2.036c-1.323 2.686-2.456 4.912-3.534 7.17-2.456 5.158-4.959 10.3-7.304 15.504-1.197 2.654-2.092 5.443-3.122 8.176l.792.341c2.979-5.791 5.911-11.614 8.961-17.366 1.442-2.725 3.105-5.332 4.666-7.994 1.117-1.917 2.218-3.85 3.367-5.751.257-.329.562-.617.903-.856.23.285.587.547.666.863.388 1.704.697 3.43 1.038 5.142l-.888.222-1.22-3.62-15.789 28.916.681.373Zm19.806-26.144c-2.59 3.77-5.149 7.542-7.748 11.281-2.598 3.74-5.324 7.574-7.994 11.353a1.259 1.259 0 0 0 1.197-.261c4.753-4.984 9.507-9.927 14.189-15.006 2.313-2.503 2.242-3.937.412-7.336l-.056-.031Zm-25.827 27.11c1.252-6.227 2.472-12.359 3.7-18.499-2.377 5.293-5.039 14.942-3.684 18.53l-.016-.03ZM42.005 63.04l17.041-22.183.428.103c-.048.476.079 1.078-.167 1.41-3.58 4.873-7.209 9.73-10.838 14.53a14.082 14.082 0 0 0-1.774 2.702c6.575-4.754 11.012-11.694 17.12-16.97-2.29 4.753-6.765 7.922-9.46 12.399 1.902-1.696 3.772-3.43 5.72-5.07 1.95-1.64 3.17-3.962 5.388-5.198l.452.436-.856 1.584.349.262c.792-1.125 1.64-2.258 2.55-3.51.238.325.682.658.635.887-.531 2.322 1.117 3.962 1.806 5.87 1.782 5.008 3.589 10.015 5.324 15.053.134.389-.175.927-.278 1.395-.372-.357-.95-.65-1.093-1.078-1.117-3.295-2.036-6.662-3.232-9.926-1.054-2.884-2.377-5.665-3.7-8.715-2.012 1.94-3.834 3.787-5.76 5.546-4.088 3.66-8.128 7.455-12.398 10.893-2.987 2.377-6.505 3.747-10.894 2.614.174.806.4 1.6.674 2.377 1.949 4.32 3.919 8.628 5.91 12.922.856 1.87 4.912 3.525 7.621 3.169 3.264-.38 6.204-1.434 8.43-4.049l.444.23c-.05.503-.202.99-.444 1.434-2.725 3.082-6.338 3.914-10.204 3.597-4.112-.333-6.853-2.48-8.382-6.425-1.53-3.946-3.748-7.471-4.888-11.417-.888-3.09-1.268-6.678.934-9.594 5.657-7.502 11.425-14.926 17.224-22.325.451-.57 1.497-.674 2.266-.998-.135.942.047 2.147-.468 2.773-3.866 4.753-8.057 9.174-11.764 14.006-1.934 2.52-3.17 5.594-4.58 8.485-.317.658-.047 1.585-.047 2.377l.91.404Zm-2.829-2.884a10.006 10.006 0 0 0-.665 2.005c-.364 2.432 0 2.788 2.377 2.828 4.817.063 7.922-3.034 11.17-5.942a65.42 65.42 0 0 0-6.132 3.961c-1.584 1.125-3.565 1.672-5.173.69-.903-.507-1.077-2.322-1.577-3.542Z" fill="#000"/><path d="M48.861 220.253c.19-2.06.278-4.143.595-6.187a11.981 11.981 0 0 1 1.251-4.088 3.166 3.166 0 0 1 2.48-1.403 2.995 2.995 0 0 1 1.91 2.036 22.08 22.08 0 0 1 0 4.904c-.056.943-.246 1.87-.38 2.813l.538.174c.729-1.275 1.473-2.551 2.202-3.826 1.442-2.528 2.916-3.407 4.413-2.615 1.236.658 1.379 2.25.15 4.833-1.069 2.242-2.376 4.397-3.588 6.552-.198.356-.737.515-1.585 1.045.46-4.365 4.825-6.734 4.104-10.893l-.602-.372-7.273 11.305-.586-.135a8.568 8.568 0 0 1-.135-1.893c.404-3.003.888-5.989 1.3-8.984.11-.65.11-1.315 0-1.965a7.127 7.127 0 0 0-.753-1.584c-.46.419-1.204.792-1.323 1.283a38.754 38.754 0 0 0-.793 5.055c-.197 1.901-.182 3.818-.435 5.712a3.804 3.804 0 0 1-1.022 1.949c-.983-.278-1.87-.492-2.076-2.052-.507-3.764-1.49-7.455-2.297-11.179a1.947 1.947 0 0 0-.412-.887 7.135 7.135 0 0 0-1.014-.792c-.23.364-.65.72-.658 1.085-.01 1.114.074 2.227.254 3.327.451 2.797 1.022 5.546 1.441 8.366.072.468-.411 1.015-.641 1.522-.515-.397-1.26-.682-1.514-1.205-1.584-3.311-2.994-6.694-4.594-9.99-.302-.618-1.173-.966-1.775-1.434-.048.792-.373 1.727-.087 2.377 1.291 3.082 2.757 6.084 4.159 9.127.507 1.101.99 2.21 1.481 3.311l.373-.491c.84.452 1.672.927 2.52 1.355.411.206 1.108.602 1.25.459 1.078-1.006 1.784-.317 2.512.412a1.514 1.514 0 0 0 2.52-.095c.744-.871 1.457-1.212 2.503-.372 1.585 1.323 2.163-.793 3.668-1.331-.079.744.056 1.584-.214 1.743-.927.594-2.02 1.362-3.002 1.299-.983-.063-1.632-.285-2.44.428a2.368 2.368 0 0 1-1.83.515c-2.377-.602-4.683-1.371-7.345-2.171.531 3.114 3.17 5.15 4.754 7.693 2.091 3.224 5.419 2.939 8.715 3.05 3.105.111 6.203.539 8.627-2.298-.245 1.933-1.18 3.272-2.868 3.344a74.836 74.836 0 0 1-11.392-.151c-1.387-.15-2.789-1.687-3.835-2.892-2.376-2.709-4.65-5.466-5.545-9.15-.222-.911-1.656-1.545-2.583-2.242-3.042-2.29-6.124-4.516-9.135-6.845-.467-.357-.626-1.117-.927-1.696.721-.205 1.514-.713 2.14-.554 1.703.436 3.327 1.157 5.41 1.925-.253-.982-.483-1.679-.61-2.377a16.694 16.694 0 0 1-.53-3.866c.047-.792.736-1.925 1.346-2.075a2.988 2.988 0 0 1 2.536.839 47.58 47.58 0 0 1 3.208 4.825 37.25 37.25 0 0 1 .064-4.944c.126-.911.792-2.25 1.45-2.448a3.01 3.01 0 0 1 2.582 1.213 17.299 17.299 0 0 1 1.917 4.896c.523 2.21.737 4.492 1.078 6.75l.348-.04Zm-11.487 2.749.681-.444-1.267-3.066-5.942-2.123-.198.444 6.726 5.189ZM13.356 139.784c-.753 1.585-1.315 1.585-4.326.056-2.765-1.411-3.105-3.352-1.212-7.131-.792.135-1.584.325-2.321.381-2.757.174-4.191-.721-5.086-3.09-.896-2.369-.301-5.245 1.529-6.481a6.108 6.108 0 0 1 2.82-.681c3.264-.277 6.544-.436 9.816-.737.483-.047 1.347-.673 1.315-.919-.634-3.961 2.242-5.062 4.968-6.266 4.389-1.949 8.81-3.843 13.214-5.76a3.501 3.501 0 0 1 1.085-.444c.676.005 1.351.052 2.02.143-.3.658-.42 1.584-.934 1.933-4.381 3.003-8.865 5.855-13.23 8.881a10.782 10.782 0 0 0-2.377 2.916c-.135.19.309.792.49 1.18.357-.246.73-.459 1.063-.737.459-.372.84-1.069 1.33-1.133 2.21-.309 4.437-.53 6.671-.626 4.08-.174 8.168-.253 12.256-.316.526.097 1.03.287 1.49.562a4.92 4.92 0 0 1-1.3.792c-6.242 1.585-12.501 3.082-18.752 4.611-.44.14-.895.222-1.355.246-2.155-.056-2.979 1.228-3.383 3.113-.475 2.25-1.006 4.492-1.671 6.687-.183.602-.911 1.038-1.395 1.584a8.653 8.653 0 0 1 0-1.925c.618-2.622 1.355-5.213 1.933-7.843a5.747 5.747 0 0 0-.348-2.004c-4.381 1.671-6.869 5.117-9.452 8.381-.847 1.054-.206 2.377.983 2.987a41.638 41.638 0 0 0 4.159 1.64Zm19.164-27.831-.182-.341c-4.254 1.893-8.477 3.858-12.779 5.633-1.83.792-2.575 1.83-2.265 3.763.237 1.513-.397 2.329-2.037 2.44-3.604.254-7.193.642-10.798.927-2.091.174-2.987 1.299-2.94 3.835.048 2.242 1.165 3.644 3.17 3.351 1.727-.254 3.367-1.078 5.054-1.648l-.19-.515c-.913.48-1.885.837-2.892 1.061a5.794 5.794 0 0 1-2.693-.657 1.49 1.49 0 0 1-.412-1.347c.412-1.45 5.363-3.169 7.13-2.02l-5.791 2.076.079.618c.58.112 1.178.112 1.759 0 1.846-.848 3.628-1.838 5.442-2.75.312-.2.676-.302 1.046-.293 2.108.484 4.912-.982 5.586-2.994a9.036 9.036 0 0 1 4.5-5.419c3.184-1.743 6.147-3.779 9.213-5.72Zm2.79 11.392-.08-.269H23.346c0 1.933-.848 2.377-2.377 2.044-.602-.119-1.315.301-1.98.475l.214.903 16.106-3.153ZM175.789 65.75a19.71 19.71 0 0 1-2.091 3.169c-1.585 1.584-3.32 2.97-4.92 4.508a1.883 1.883 0 0 0-.436 1.45c.483 2.867.087 4.135-2.044 5.426a3.958 3.958 0 0 1-4.452-.198c-2.131-1.418-3.066-3.58-2.504-5.767.111-.571.402-1.09.832-1.482 1.418-.95 1.355-2.202 1.133-3.644-.253-1.688-.293-3.407-.499-5.102a4.466 4.466 0 0 0-.539-1.387c-.657-1.33-1.283-2.606.277-3.826a2.11 2.11 0 0 0 .444-1.497c0-.793-.277-1.585-.317-2.377-.071-1.34-.198-2.33-1.814-2.98-2.187-.863-2.757-3.08-2.797-5.275a5.286 5.286 0 0 1 3.336-5.182 19.016 19.016 0 0 1 6.805-1.45c3.011-.055 5.11 4.35 3.787 7.471a35.285 35.285 0 0 1-1.775 3.17l4.5 3.802.135-.103-1.584-2.377c2.907.175 3.779 1.815 2.265 4.54l-6.496-5.03-3.716 1.093c-.034.865.062 1.73.286 2.566.633 1.585 0 1.783-1.759 1.442a7.308 7.308 0 0 0 5.633 1.894c1.949-.167 3.913 0 6.021 0 .161-.38.392-.727.681-1.022 1.513-1.062 3.288-3.114 4.587-2.86 2.955.57 6.623 1.164 6.671 5.648a5.453 5.453 0 0 1-2.551 5.04c-1.846 1.085-3.961 2.376-6.219.704a3.266 3.266 0 0 0-.911-.325c-.951-1.877-1.894-3.763-2.963-5.894h-6.536c-.428 0-.84.372-1.26.578.419.306.874.559 1.355.753.455.059.915.059 1.37 0h5.594l.198.563a7.588 7.588 0 0 1-2.021.792c-1.901.134-3.842-.08-5.72.206-.792.119-2.115 1.109-2.139 1.735.033 2.52.21 5.035.531 7.534a12.05 12.05 0 0 0 2.195-1.291c1.457-1.434 2.741-3.05 4.246-4.405.974-.872 1.83-2.195 3.819-2.028-1.482 1.529-2.742 2.788-3.962 4.088-1.22 1.299-2.424 2.677-3.636 4.024l.634.594c1.648-1.537 3.264-3.113 4.951-4.602 1.054-.975 2.234-1.799 3.375-2.686Zm-18.11-18.887c0 2.44.895 3.802 2.725 4.206 3.446.793 6.956-.673 8.128-3.89.484-1.315.056-3.303-.641-4.618-.698-1.315-2.425-1.276-3.89-.618a5.472 5.472 0 0 1-2.013.634 4.186 4.186 0 0 0-3.075 1.217 4.18 4.18 0 0 0-1.234 3.069Zm17.152 13.42c0 2.425 2.186 5.245 4.103 5.253 2.433 0 5.087-2.662 5.055-5.078-.048-2.686-2.29-4.247-5.926-4.12-1.323.055-3.232 2.369-3.232 3.945Zm-7.844 16.25a3.169 3.169 0 0 0-2.828-3.407c-2.163-.12-3.533.792-3.605 2.329-.071 1.537 2.021 3.858 3.589 3.898a2.67 2.67 0 0 0 2.844-2.82Zm-3.58-17.224-.856-.254c-.935.515-1.949 1.086-1.276 2.456.23.46 1.038.642 1.585.943l.547-3.145ZM174.492 150.496c.317 2.226.61 4.452.974 6.67.19 1.165.65 2.306.737 3.47.261 3.399 5.007 7.606 9.024 6.338 2.448-.792 5.3-.229 7.922-.396 2.115-.135 4.215-.451 6.457-.705-1.505-2.781-4.453-.325-6.132-2.091 2.266-1.379 5.545-1.181 7.035.475a2.818 2.818 0 0 1 .721 2.083c-.095.476-1.03 1.03-1.648 1.118-3.581.467-7.186.839-10.79 1.156a9.167 9.167 0 0 1-2.021-.467 2.988 2.988 0 0 0-1.64-.056c-2.82 1.387-5.078.27-7.256-1.434a8.349 8.349 0 0 1-3.383-6.195c-.286-3.169-.991-6.338-1.379-9.554-.119-.967-.269-2.464 1.189-2.472.792 0 1.814.903 2.257 1.679a29.065 29.065 0 0 1 1.727 4.469l.729-8.097c.151-1.727 1.157-2.71 2.813-2.678 1.656.032 2.464 1.268 2.575 2.916.056 1.194.263 2.376.618 3.517.412-1.846.744-3.708 1.251-5.546.674-2.424 1.68-3.169 3.573-2.733 1.648.349 2.599 1.902 2.377 4.017-.127 1.307-.356 2.606-.515 3.913 0 .088.119.199.317.484.383-.68.806-1.336 1.268-1.965.942-1.117 2.139-1.949 3.628-1.386 1.489.562 1.347 2.059.927 3.216-1.64 4.437-3.383 8.834-5.165 13.215-.159.388-.856.562-1.308.839a4.966 4.966 0 0 1 0-1.711c1.529-3.771 3.169-7.494 4.69-11.265.25-.863.407-1.75.468-2.647l-.626-.443c-.705.792-1.664 1.458-2.068 2.377-1.481 3.295-2.741 6.686-4.167 10.006a8.575 8.575 0 0 1-1.402 1.766 5.83 5.83 0 0 1-.388-2.044c.736-4.088 1.584-8.144 2.376-12.216a9.981 9.981 0 0 0 .23-2.939c-.063-.587-.665-1.102-1.03-1.648-.554.428-1.497.792-1.584 1.307-.864 3.961-1.585 8.01-2.33 12.018-.237 1.292-.38 2.615-.728 3.874-.119.436-.729.745-1.117 1.11-.23-.436-.65-.864-.65-1.3-.056-3.755 0-7.51 0-11.258a14.418 14.418 0 0 0-.262-2.931 1.581 1.581 0 0 0-1.022-.958c-.261-.064-.839.412-.982.792a6.34 6.34 0 0 0-.436 2.107c-.119 4.017-.15 8.034-.293 12.05a6.44 6.44 0 0 1-.681 1.846c-.499-.499-1.276-.919-1.45-1.513-.871-3.026-1.584-6.1-2.377-9.158a6.676 6.676 0 0 0-.538-1.133l-.515.111ZM164.58 132.687c-1.877-3.676-3.779-7.02-5.324-10.513-1.798-4.073-3.303-8.271-4.88-12.439a1.211 1.211 0 0 1 .301-1.125 6.529 6.529 0 0 1 2.512-.966c5.751-.38 11.503-.792 17.263-.935 6.25-.198 12.509-.19 18.76-.254 2.765 0 5.546-.047 8.295 0 1.695.048 1.782.563 1.077 2.1-.792 1.727-2.575 1.473-3.795 2.289-5.007 3.375-9.911 6.893-15.005 10.125-6.298 4.017-12.747 7.804-19.204 11.718Zm19.442-13.928v-1.632c.444.158.908.248 1.378.269.76-.103 1.512-.26 2.25-.467l-2.059-2.971c2.052-.681 2.257 1.315 3.581 2.076.562-.848 1.117-1.696 1.742-2.662l1.3.245c-.792-2.432 1.101-1.283 1.854-1.584l.245-1.133.309.459 6.077-3.24v-.499l-44.889 1.521c.602 1.672.935 2.797 1.402 3.866 2.306 5.221 4.564 10.458 7.004 15.615.919 1.934 1.418 1.862 2.907.325-.261-.792-.507-1.545-.792-2.305l.539-.325c.436.467.848.959 1.307 1.386.278.218.578.406.895.563a6.93 6.93 0 0 0 .428-1.085 4.268 4.268 0 0 0-.087-1.046c1.434.507 3.034 1.465 2.448-1.268l1.996.349c.547-.65.999-1.545 1.3-1.498 2.432.397 2.472-.839 1.632-2.836 1.663.531 3.66 2.456 3.47-1.093l1.782.261v-1.846l1.981.555ZM13.235 184.61c-.895-2.685.578-4.294 1.965-5.775 2.828-3.019 5.942-5.776 8.715-8.865 4.523-5.118 8.849-10.403 13.198-15.671.452-.547.452-1.442.745-2.147.547-1.347.792-3.169 1.798-3.89 2.528-1.695 5.411-2.86 8.168-4.199.23-.111.793 0 .856.111a1.286 1.286 0 0 1-.095 1.014c-1.632 1.64-1.632 3.589-1.347 5.704.333 2.441-.665 4.397-2.448 5.11-.38.151-.903-.087-1.362-.142.23-.341.372-.832.689-.991 1.584-.792 1.759-2.162 1.727-3.683-.032-1.522 0-3.249 0-5.411a50.589 50.589 0 0 0-5.459 3.668c-1.838 1.584-1.671 3.636.396 4.888 1.878 1.141 1.585 2.036.507 3.565-5.086 7.455-11.638 13.468-18.451 19.267-2.701 2.29-5.474 4.508-8.223 6.742-.44.272-.901.508-1.379.705Zm1.64-3.573c.214.23.428.46.65.682l18.158-16.265-1.854-1.648c-2.86 3.003-5.546 5.934-8.39 8.786-2.844 2.852-5.712 5.625-8.564 8.445Zm23.878-26.508c-1.79 2.305-3.407 4.421-5.054 6.512-.594.792-1.307 1.442-.19 2.298 1.117.855 1.814.253 2.448-.642.705-1.014 1.386-2.044 2.123-3.034a130.746 130.746 0 0 1 2.82-3.621l-2.147-1.513ZM117.064 164.858a4.907 4.907 0 0 1 1.719-.641c8.548.221 15.845 3.303 21.692 9.657 4.753 5.134 7.922 11.25 11.146 17.35.333.626.705 1.228 1.181 2.068 7.526-7.827 14.355-15.988 21.771-23.577l.729.562a8.294 8.294 0 0 1-.919 1.585c-6.386 7.035-12.819 14.03-19.196 21.081a19.427 19.427 0 0 0-1.775 2.852c-2.321.333-3.272 2.821-5.07 4.231-.919.713-1.585 1.798-2.425 2.583a4.604 4.604 0 0 1-1.632.546c.135-.562.087-1.299.428-1.671 1.878-2.028 3.771-4.049 5.815-5.91 1.149-1.046 1.006-1.743.254-2.979-2.48-4.025-4.564-8.303-7.186-12.233-3.415-5.109-7.455-9.681-13.326-12.192a31.4 31.4 0 0 0-11.479-2.567c-.507 0-1.006-.071-1.513-.111l-.214-.634ZM106.643 42.458c.064 3.224-2.376 4.848-4.61 3.502a28.253 28.253 0 0 1-5.063-3.962c-4.294-4.246-8.461-8.635-12.676-12.945-1.52-1.537-2.163-2.527.15-4.975 3.764-3.962 4.033-3.962 7.614.27 4.207 4.935 8.454 9.847 12.605 14.838a22.49 22.49 0 0 1 1.98 3.272ZM98.42 41.42a42.165 42.165 0 0 0 4.167 3.375c1.426.927 2.852-.127 2.583-1.806a4.38 4.38 0 0 0-.951-2.1c-4.904-5.815-9.8-11.606-14.87-17.31-.365-.428-1.585-.325-2.322-.12-.546.151-.934.872-1.41 1.324-1.632 1.584-1.584 1.933.325 3.47l1.72-1.37.554.324-.99 2.583 1.03 1.3 2.48-.714-.936 2.559 2.567.333c.238.966.468 1.91.666 2.74l2.1-.633c-.08.705-.16 1.402-.254 2.195l1.798 2.17 1.228-1.489.515.071v3.098ZM24.36 85.96c.15 3.541-3.89 8.453-7.757 8.35-2.012-.047-4.143.681-6.029.246-3.7-.856-5.648-3.724-6.258-7.352-.737-4.334.728-7.756 4.753-9.911 1.03-.555 1.988-1.41 3.082-1.632 6.092-1.252 10.299.871 11.947 7.558.152.906.239 1.822.261 2.741Zm-4.097-7.304c-.578-.516-.91-1.062-1.346-1.157-2.757-.626-5.546-1.292-8.168.451-.603.397-1.157.888-1.79 1.22-4.24 2.266-3.962 7.772-2.188 10.727 2.14 3.526 4.857 3.962 10.054 3.058 4.453-.792 7.709-6.337 5.237-11.503a2.282 2.282 0 0 0-1.727-1.03c-3.542.095-5.388 2.432-5.205 6.41.166 3.501-2.924 5.68-6.497 4.048l2.63-.792c1.474-.42 2.607-.975 2.567-2.908-.103-4.896 1.363-6.853 6.433-8.525ZM87.193 161.366c.175.134.555.404.927.673-.361.37-.785.673-1.252.895-3.96 1.046-7.922 2.021-11.82 3.051-3.438.895-5.958 3.113-8.477 5.545-3.961 3.732-7.875 7.431-10.592 12.137a40.058 40.058 0 0 0-5.237 17.842 11.421 11.421 0 0 1-.396 2.717c-.111.341-.792.483-1.228.713-.135-.261-.42-.554-.388-.792.451-3.05.919-6.1 1.442-9.135 1.655-9.507 7.185-16.589 13.713-23.403 6.227-6.488 13.991-8.508 22.183-10.093.262-.087.531-.087 1.125-.15ZM189.321 169.43c-.01.293-.058.584-.143.864a159.989 159.989 0 0 1-13.618 22.112c-3.454 4.753-6.742 9.712-10.299 14.434-2.163 2.876-4.508 5.712-8.05 7.067a3.079 3.079 0 0 1-2.147-.166c5.435-2.377 8.169-7.265 11.607-11.377 2.511-3.01 4.516-6.449 6.694-9.729 3.415-5.157 6.822-10.299 10.157-15.528 1.196-1.869 2.115-3.913 3.28-5.815a16.693 16.693 0 0 1 1.957-2.234l.562.372Z" fill="#000"/><path d="M150.041 193.728c-2.219 1.434-3.494.682-4.58-.411-3.604-3.637-7.066-7.4-10.734-10.973-4.183-4.072-8.493-8.026-12.819-11.955-.856-.792-2.076-1.125-3.074-1.759-.317-.206-.467-.681-.697-1.038.452-.087.959-.364 1.331-.237 3.533 1.228 6.1 3.802 8.659 6.338 5.887 5.902 11.702 11.883 17.62 17.762.792.792 2.052 1.228 3.105 1.806.386.18.783.336 1.189.467ZM115.721 165.54a9.92 9.92 0 0 1-.269 2.297 18.483 18.483 0 0 1-6.512 8.454c-2.377 1.845-4.754 3.612-7.97 3.961-3.217.348-8.715-1.965-10.3-4.667-.222-.388 0-1.029 0-1.584.433.154.839.373 1.204.65 2.274 2.424 4.754 4.238 8.351 4.167 2.987-.056 5.213-1.585 7.391-3.296 3.106-2.377 5.768-5.157 6.869-9.095a3.78 3.78 0 0 1 .753-1.03l.483.143ZM124.453 44.342c.253.25.465.539.625.856.927 3.074 1.894 6.14 2.694 9.245a6.414 6.414 0 0 0 6.885 5.007l1.101-.119.293.555a5.816 5.816 0 0 1-1.664.88c-3.169.53-7.13-2.274-7.859-5.396-.483-1.972-1.259-3.866-1.806-5.823-.452-1.632-.745-3.303-1.109-4.951l.84-.254ZM63.077 79.312l12.525-11.78c.618 1.52-5.672 8.381-11.091 11.883-.47.186-.968.288-1.474.301l.04-.404ZM86.538 115.843a28.56 28.56 0 0 1-3.272-3.019 11.036 11.036 0 0 1-1.426-3.042c-.056-.151.792-.848.895-.792.986.58 1.898 1.277 2.717 2.075a5.662 5.662 0 0 1 1.355 2.377c.182.705-.15 1.521-.27 2.401ZM133.61 145.148c.183-.19.523-.792.991-.943 1.117-.261 3.311 2.377 3.216 3.961a1.833 1.833 0 0 1-1.149 1.252c-1.243.254-2.978-2.012-3.058-4.27ZM68.465 4.643l1.743.682c1.347-1.878 1.291-2.076-1.086-2.686.547-.792 1.014-1.466 1.49-2.139.57.618 1.37 1.14 1.663 1.87a3.058 3.058 0 0 1-1.267 4.096c-1.434.855-2.187.396-2.543-1.823ZM124.649 122.49c1.751-.159 3.375-.389 4.999-.389.388 0 .793.721 1.173 1.109-.349.349-.642.793-1.054.999-.742.265-1.505.467-2.282.602-1.378.301-2.408-.032-2.836-2.321ZM79.77 8.588 77.1 9.816c.413-1.9 1.411-2.677 2.694-2.527a2.068 2.068 0 0 1 1.815 2.741c-.325.872-1.585 1.53-2.543 1.965-.278.135-1.046-.792-1.585-1.26.475 0 .943-.063 1.418-.063 1.711-.016 1.26-.959.872-2.084ZM72.562 124.027l1.933 1.149c-.618.665-1.205 1.362-1.878 1.964a1.176 1.176 0 0 1-.95.127c-.856-.23-2.425-.657-2.377-.792a2.233 2.233 0 0 1 .738-1.568 2.222 2.222 0 0 1 1.638-.563h.793l.103-.317ZM83.13 23.499c-.951-1.323-1.902-2.084-1.934-2.884 0-.539 1.204-1.466 1.965-1.585.452-.063 1.442 1.101 1.513 1.783.072.681-.745 1.394-1.545 2.686ZM111.747 115.549l1.022-2.471-.214-.119-1.029 1.315c-.206-.483-.476-.792-.397-.998.369-.788.829-1.53 1.371-2.211a1.438 1.438 0 0 1 1.172.206c.295.756.377 1.578.238 2.377-.269.824-.095 2.472-2.163 1.901ZM73.03 17.295c.753.05 1.5.166 2.234.348.427.159 1.07.666 1.038.951a3.042 3.042 0 0 1-.793 1.822 1.649 1.649 0 0 1-1.584.087c-1.094-.887-1.688-1.988-.895-3.208ZM16.068 130.024c1.156.721 1.085 1.371-.602 4.025-.793 1.252-1.498 1.386-2.567.681l3.169-4.706ZM46.25 138.541c.579.919 1.11 1.457 1.007 1.647a22.079 22.079 0 0 1-1.664 2.377c-.349-.436-1.054-.99-.959-1.291.44-.966.982-1.882 1.617-2.733ZM149.875 210.183c1.173 1.323 2.084 2.337 3.249 3.637-.666 0-1.537.269-1.949-.048-1.03-.784-2.092-1.735-1.3-3.589ZM110.347 157.752c-4.27 2.9-8.651 2.488-13.048.182a14.243 14.243 0 0 1-2.044-1.584l.372-.531c2.504.848 4.96 2.155 7.519 2.377 2.329.222 4.753-.713 7.13-1.141l.071.697ZM106.912 142.835c-1.656-.618-3.232-1.648-4.817-1.656-1.584-.008-3.208.99-4.99 1.585.625-2.052 3.85-3.494 6.337-3.106 1.997.333 3.51 1.79 3.47 3.177ZM93.81 140.038c1.688-.832 3.375-1.68 5.094-2.441.119-.047.792.674.792.864-.483 1.26-4.206 2.606-5.886 1.577ZM99.883 135.095c.286-.563.42-1.323.872-1.648a3.036 3.036 0 0 1 2.067-.555 2.818 2.818 0 0 1 1.664 1.244c.227.613.329 1.265.301 1.917a5.942 5.942 0 0 1-1.299-1.022c-1.212-1.639-2.044-.451-2.931.476l-.674-.412ZM111.596 130.341l-5.546-3.074c.792-.792 2.218-.879 3.747 0 1.26.745 2.052 2.274 1.799 3.074ZM109.383 140.426c-1.331.452-3.85-.388-4.12-1.521-.079-.349.61-1.228.999-1.252 1.077-.087 2.677 1.482 3.121 2.773ZM93.49 129.494c.038-.316.102-.629.19-.935l3.557-.935c.063.238.19.666.174.674-1.196.388-2.4.744-3.921 1.196ZM165.579 112.215a27.973 27.973 0 0 1 3.287-.166c3.867.301 7.727.655 11.583 1.062.555.055 1.537.641 1.505.839a2.852 2.852 0 0 1-.974 1.894 233.026 233.026 0 0 1-11.092 5.546 1.667 1.667 0 0 1-1.481-.698c-.99-2.669-1.83-5.411-2.828-8.477Zm4.103 7.962 9.713-5.086-.182-.594-11.757-1.046 2.226 6.726ZM7.662 89.002l-.674-.634c.27-.237.547-.705.793-.689 2.915.166 3.05-1.79 3.169-3.898a6.441 6.441 0 0 1 5.141-5.934c.277-.047.618.254.927.389-.182.308-.285.744-.555.887-.74.256-1.46.566-2.154.927a5.173 5.173 0 0 0-2.131 4.603c.07 2.907-1.435 4.317-4.516 4.35Z" fill="#000"/></svg>