<svg xmlns="http://www.w3.org/2000/svg" viewBox="0 0 306 118" fill="none"><g clip-path="url(#A)" fill="#000"><path d="M49.227 82.964c.284.135.788.242.816.42l1.18 8.421c.056.443.092.957-.071 1.343-.562 1.3-.15 2.428.419 3.578 2.287 4.564 4.546 9.142 7.31 13.441.113.172.347.265.667.493 1.087-.25 2.28-.6 3.487-.764.47-.064 1.215.136 1.443.479.241.378.149 1.092-.015 1.585-.17.514-.504 1.093-.937 1.386-1.77 1.192-3.602 2.292-5.434 3.392-.057.029-.37-.379-.569-.6.1-1.364 1.442-1.264 2.195-1.828.973-.729 2.174-1.157 2.685-2.5-1.42-.1-2.713.907-4.063.157a272.39 272.39 0 0 0-1.534-2.035l-1.762 1.178c.746 1.928 2.415 3.114 2.494 5.064-1.442-.764-2.543-1.886-3.382-3.286l-4.383-7.327a534.39 534.39 0 0 0-4.304-6.97c-.1-.158-.377-.208-.767-.4-.576.563-1.236 1.15-1.826 1.8l-5.448 6.12c-1.463 1.557-3.062 2.992-4.78 4.656l1.42 3.093c-.497 1.128-1.442 1.414-2.28.95-1.677-.936-3.254-2.064-4.795-3.214-.497-.379-.753-1.093-1.158-1.721.313-.429.511-.857.838-1.122 3.666-2.935 6.99-6.17 9.32-10.313.696-1.235 1.548-2.235 3.083-2.285.93-4.185.064-8.085-.846-11.97-.12-.522-.426-1.114-.838-1.436-1.818-1.414-2.664-3.506-3.282-5.492-1.726-5.535-5.057-10.134-8.04-15.177-5.413-.957-10.982.015-16.452-.55-.384-.828.014-1.157.64-1.2 1.129-.07 2.265-.056 3.402-.078l11.89-.2c1.691-.05 3.375-.478 5.058-.457 1.67.021 3.34.564 5.008.578l18.74-.042 24.527-.108c1.812-.014 3.623-.15 5.441-.207 3.616-.114 7.225-.05 10.84.029 8.958.193 17.922-.036 26.887-.093l34.735-.2 60.976-.186 22.141-.014c.739 0 1.477.143 2.159.214.15.836-.27 1.007-.731 1.065-.668.085-1.343.114-2.174.185-.405 1.05-.888 2.064-1.2 3.128-1.449 5.028-2.927 10.056-3.652 15.263-.106.793-.248 1.585-.49 2.342-.206.636-.454 1.336-.902 1.793-2.6 2.678-5.313 2.864-7.316-.986-.675-1.292-1.059-2.742-1.563-4.078-1.328-.107-2.557-.25-3.758.693.412 1.336.881 2.586 2.018 3.45 1.271.957 1.854 2.257 2.052 3.792l.945 7.114.185 1.292c3.054.964 5.654-.385 8.489-1.064.22-3.17-1.308-6.206-.732-9.663.582.428.994.579 1.03.793.419 2.47.81 4.95 1.136 7.435.1.77.185 1.664-.106 2.335-.49 1.121-.135 2 .327 2.921 2.379 4.792 4.652 9.642 7.685 14.048 1.464.536 2.678-.428 4.007-.557 1.25-.121 2.01.764 1.47 1.893-.334.7-.767 1.443-1.357 1.921-1.577 1.286-3.26 2.436-5.391 3.2l-1.037-1.679c2.358 0 4.013-1.185 5.683-3.314l-3.779.5-2.096-2.606-1.534 1.671c.625.943 1.222 1.75 1.705 2.621.184.336.099.821.135 1.235-.484-.214-1.151-.292-1.428-.664a55.42 55.42 0 0 1-3.069-4.506l-6.301-10.542c-.284-.478-.646-.914-.951-1.343-1.244.215-1.734 1.186-2.401 1.929l-5.903 6.62c-1.307 1.386-2.778 2.621-4.262 4l1.534 3.207c-.916 1.157-1.826 1.385-2.976.542-1.279-.928-2.65-1.742-3.921-2.685-.697-.514-.647-.586-1.123-2.4l3.964-3.635a30.781 30.781 0 0 0 5.981-7.392c.938-1.621 1.009-1.578 3.076-2.45.838-4-.014-7.906-.803-11.82-.085-.42-.313-.935-.639-1.17-2.174-1.565-2.778-4.093-3.843-6.314-.632-1.322-.966-2.779-1.542-4.128-.44-1.043-1.001-2.043-1.591-3.014l-4.567-7.3c-1.222-.307-2.543-.556-3.793-1.007-.448-.164-.718-.82-1.158-1.357-6.031-.02-12.133-.085-18.277.115-.37.743-.76 1.314-.945 1.95-1.399 4.799-2.735 9.613-3.573 14.562-.298 1.778-.888 3.507-1.343 5.257-1.484.464-2.656 1.806-4.461 1.564-2.23-1.15-3.906-2.807-4.688-5.428-.604-2.021-1.627-2.129-3.665-.636.568.943.945 2.164 1.769 2.8 1.704 1.328 2.251 3.085 2.535 5.035.363 2.457.661 4.928.988 7.435 3.068.821 5.775-.136 8.467-1.136l-1.023-9.713c.654.171 1.279.293 1.392 1.193l1.002 7.099c.099.871.078 1.821-.17 2.657-.249.857-.128 1.564.227 2.292 2.443 5.007 4.823 10.042 8.076 14.756l4.291-.85c.639-.107 1.278.714 1.151 1.364-.242 1.185-.895 2.1-1.869 2.757-1.506 1.007-3.047 1.957-4.588 2.942-1.861-1.185-3.296-2.571-4.355-4.342l-4.006-6.757-4.603-7.584c-1.321.078-1.804 1.064-2.451 1.785l-5.903 6.628c-1.307 1.393-2.784 2.635-4.361 4.107l1.477 3.085c-.412 1.207-1.392 1.464-2.202 1.028-1.889-1.007-3.864-1.964-5.299-3.649-.788-.921-.668-1.829.327-2.628 3.658-2.936 6.94-6.214 9.234-10.37.64-1.158 1.513-1.965 2.891-1.979.945-4.15.093-8.063-.696-11.97-.106-.521-.405-1.157-.817-1.443-1.939-1.32-2.422-3.535-3.395-5.42-.767-1.5-1.151-3.193-1.811-4.757-.483-1.15-1.094-2.25-1.741-3.314l-4.461-7.099c-3.345-.978-6.933-1.193-10.569-1.128l-15.656.064-15.656.143c-.668.007-1.336.178-2.096.285-.298.765-.625 1.479-.866 2.229-1.847 5.642-2.97 11.448-3.992 17.276-.079.436-.206.957-.05 1.322 1.229 2.756 1.136 5.763 1.676 8.641.164.85-.113 1.772-.142 2.664-.014.657-.149 1.414.114 1.957 2.443 5.128 4.873 10.27 8.19 15.048 1.357-.307 2.657-.642 3.978-.878 1.023-.186 1.79.793 1.3 1.742-.462.879-1.115 1.686-1.797 2.407-.455.486-1.101.8-1.677 1.157-.966.586-1.946 1.143-2.891 1.693-2.102-1.236-3.559-2.921-4.724-4.899l-3.8-6.478-4.39-7.214c-1.392.058-1.84 1.093-2.493 1.807l-5.448 6.114c-1.47 1.557-3.069 2.992-4.767 4.642l1.485 3.078c-.497 1.115-1.45 1.429-2.28.95-1.755-1.014-3.46-2.164-5.03-3.456-1.122-.922-.959-1.936.157-2.843 3.566-2.871 6.776-6.049 9.05-10.092.681-1.22 1.491-2.285 3.047-2.235.93-4.192.064-8.106-.718-12.02-.085-.428-.284-.943-.61-1.193-2.316-1.764-3.02-4.47-4.12-6.935-.505-1.128-.803-2.356-1.293-3.492a25.37 25.37 0 0 0-1.577-3.021l-4.603-7.328c-1.627-.635-3.445-.785-5.25-.792-8.396-.015-16.8.042-25.195.092-.44 0-.874.115-1.442.2-.306.736-.668 1.436-.895 2.179-1.4 4.57-2.607 9.184-3.318 13.927-.22 1.45-.717 2.856-1.037 4.299-.064.286.114.628.17.936-.568-.407-1.036-.1-1.562.142-1.016.472-2.046.972-3.118 1.272-1.272.35-2.082-.157-2.607-1.479-.633-1.585-1.244-3.178-1.783-4.8-.633-1.892-.519-3.584 1.463-4.72.469-.264.732-.9 1.2-1.15 1.23-.657 2.373-1.814 3.907-1.085.817 1.17.618 2.792 2.252 3.57.206-.514.504-.992.575-1.506.54-3.714 1.847-7.235 2.671-10.885.036-.171-.149-.393-.234-.593-1.42-.05-1.492-.078-1.684.45a80.423 80.423 0 0 0-1.392 4.193c-.291.978-.44 1.992-.753 2.964-.1.307-.533.5-1.229 1.114.107-1.2.086-1.871.235-2.507.334-1.443.781-2.85 1.122-4.292.142-.607.114-1.25.192-2.143h-5.292c-1.584 0-3.175-.057-4.76 0-1.64.057-3.324-.264-5.164.286.256.75.37 1.292.618 1.77l3.02 5.729c.369.7 1.008 1.407 1.03 2.121.049 1.871.901 3.464 1.661 5.306l-2.727.793 2.301 4.728c.966 1.95 1.648 3.935 1.563 6.192-.064 1.671.234 3.35.37 4.971 3.14.85 5.789-.15 8.46-1.007.277-1.607-.178-3.035-.356-4.492-.206-1.657-.845-3.343-.042-5.014l-.014-.028zm182.962-11.878c-.505-.157-.689-.185-.696-.221-.278-3.485 1.527-6.5 2.202-9.77-2.408-.507-13.873-.479-16.907.071.1.429.128.879.313 1.25l3.701 7.306c.739 1.393 1.648 2.65 1.662 4.386.007.935.675 1.864 1.044 2.792 1.165-1.1 2.295-1.964 3.161-3.035 1.101-1.364 2.522-1.679 4.177-2 .462 1.064.796 2.007 1.272 2.878.234.429.717.714 1.221 1.193 1.066-3.071 1.144-6.07 2.238-8.828.71-1.785 1.122-3.692 1.641-5.549.042-.157-.142-.371-.263-.65h-1.733l-3.04 10.192.007-.015zm-51.045-9.92c-2.657-.578-5.25-.135-7.814-.178-2.543-.036-5.122-.357-7.835.293 1.229 4.356 4.234 7.641 5.462 11.748 3.971-1.95 4.653-2.107 8.226-1.893.384.858.76 1.793 1.208 2.693.234.479.518 1.036 1.15.764l3.431-12.877c.043-.164-.163-.386-.255-.586-.973-.457-1.591.1-1.861.886-.626 1.821-1.13 3.693-1.627 5.557-.298 1.114-.242 1.128-1.542 2.72-.525-3.306 1.577-5.991 1.457-9.127zm-78.06 9.835h3.63c.27.35.569.678.789 1.057.39.678 1.023.971 1.705.85.774-.136 1.037-.857 1.022-1.564-.035-1.293.405-2.436.832-3.614.348-.957.518-1.972.753-2.971.241-1.05.887-2.036.76-3.186-1.755-.014-1.854-.042-2.11.743-.554 1.721-1.03 3.471-1.485 5.22-.27 1.044-.227 1.05-1.314 2.493-.092-.042-.256-.078-.263-.135-.476-2.893 1.513-5.371 1.414-8.578-5.093.172-10.13-.207-15.642.264 1.52 2.893 2.316 5.807 4.468 8.1.313-.408.483-.729.739-.929 1.343-1.057 2.209-1.057 3.239.079.519.578.888 1.3 1.463 2.164V71zm118.407 5.192c-.668-2.335-1.335-4.692-2.614-6.864-.973-1.65-1.748-3.42-2.6-5.142-1.541-3.12-1.073-3.828-5.846-3.22.568.685 1.215 1.363 1.733 2.135a63.291 63.291 0 0 1 2.316 3.75c1.683 2.92 3.843 5.584 4.461 9.062.234 1.314.987 1.357 2.55.279zm-51.933-.557c-.717-4.25-2.515-8.363-6.294-14.47h-3.011c.305 1.707 1.328 2.814 2.038 4.057 1.805 3.128 4.177 5.956 4.852 9.67.071.379.497.886.838.964.483.107 1.044-.128 1.57-.221h.007zm-132.045-.021c-.753-2.15-1.243-3.9-1.975-5.536-1.023-2.278-2.223-4.47-3.367-6.692-1.023-1.978-1.037-1.97-3.857-1.457-.028 1.364.988 2.243 1.584 3.293 1.79 3.142 4.149 5.985 4.852 9.684.07.372.497.879.838.957.49.115 1.051-.114 1.925-.25zm50.548-14.056c.518 1.029.873 1.836 1.314 2.593 2.039 3.528 4.745 6.713 5.59 10.87.071.357.569.828.917.871.483.057 1.001-.243 1.498-.386-1.214-4.992-1.846-6.456-5.831-13.562-.1-.179-.349-.272-.697-.536l-2.784.15h-.007zm137.855 16.177c.27 2.164.846 3.95 1.847 5.006.426.45 1.13.9 1.705.893 1.591-.014 3.055-1.636 2.948-3.178-.121-1.721-.547-3.364-1.939-4.821l-4.561 2.093v.007zM45.121 82.37c1.264.193 1.982-.436 2.628-1.307.604-.821.64-1.693.37-2.6-.384-1.293-.576-2.685-1.798-3.77l-2.088.813c-.021 2.443.312 4.671.888 6.857v.007zm61.302-7.82l-4.702 2.356c.092.536.106.879.213 1.193.738 2.15 2.408 2.707 4.07 1.271.653-.564 1.264-1.321 1.57-2.114.348-.9-.256-1.714-1.151-2.707zm16.217 37.238l-3.694.428c-1.221-.714-1.221-2.021-2.365-2.385l-1.392 1.521c.923 1.364 1.633 2.742 2.848 3.899 1.627-1.078 3.573-1.471 4.603-3.463zm72.256 0l-3.694.428c-1.222-.714-1.222-2.021-2.365-2.385l-1.393 1.521c.491.743.903 1.407 1.357 2.043.433.614.909 1.199 1.442 1.892 1.677-1.114 3.63-1.507 4.66-3.499h-.007zm-15.031-34.946c-1.179-.1-2.287.186-3.481.864.739 1.607.448 3.45 1.698 4.778 2.863-1.564 3.012-2.043 1.783-5.642zm35.119 34.353c-1.087.728-1.776-.986-2.941-.086 1.172 1.093 2.089 2.178 3.822 2.7l-.881-2.607v-.007zm-184.113-.722l-3.41-.928c1.436 1.564 2.295 2.614 4.071 3.107l-.66-2.179zm60.202.022a530.22 530.22 0 0 1-3.204-.929c1.08 1.457 1.783 2.45 3.488 2.679l-.291-1.75h.007zM99.17 75.55l1.285-2.457c-.724-.685-1.271-1.292-2.223-.45l.93 2.907h.008zm64.207 36.66c.263-.707.242-1.478-.369-1.814-.704-.386-1.591-.443-2.621-.693 1.299 1.85 1.321 1.814 2.99 2.507zm-59.81-18.183l1.15-.8c-.255-.293-.476-.786-.774-.836-.291-.043-.753.286-.945.578-.085.136.306.579.569 1.05v.007zm-55.066.642l-.227-.071.142.236.085-.172v.007zm183.957 1.264l-.249.1.249.1v-.2zm42.649-49.115l1.101 1.193-1.655 12.142c-.078.52-.405 1.014-.639 1.506l-1.47 3.029c-2.252 2.085-3.254 2.156-5.641.707-1.811-1.1-3.146-2.507-3.977-4.485-.704-1.679-1.556-3.3-2.444-4.893-.234-.421-.803-.764-1.286-.885-.312-.079-.746.314-1.129.507.163.5.213.864.391 1.128l3.43 5.1a180.24 180.24 0 0 1 3.403 5.52 2.65 2.65 0 0 1 .277 2.271c-.725 2.3-.696 6.078-.085 8.992 4.255 1 7.089.443 9.881-2.035-.554-1.543-1.066-3.171-1.727-4.735-.987-2.35-1.584-4.736-1.164-7.3l1.392.472c-.235 4.37 2.223 8.07 2.87 12.355l-1.386 1.743 2.11 3.978c.362.707.881 1.414.98 2.171.32 2.314 1.293 4.293 2.657 6.15.568.771.661 1.714.213 2.606-.362.722-.256 1.293.512 1.972.824-.25 1.761-.572 2.713-.814.49-.13 1.108.614.973 1.114-.085.328-.142.728-.355.935-.902.857-1.797 1.743-2.813 2.436-.852.585-1.911.657-3.097.371l-2.401-2.892h-3.331c-.974-2.443-1.137-4.964-1.428-7.421-.22-1.864-.881-3.464-1.783-5.1-2.351 3.393-2.707 7.257-3.069 11.128l-2.557.857.611 1.093c.625 1.178.185 2.114-1.023 2.064-.554-.022-1.129-.129-1.634-.35-.511-.222-.945-.629-1.413-.943-1.158-.771-2.38-1.714-2.543-3.071-.164-1.393.291-2.871.554-4.307.078-.428.355-.85.625-1.207 1.847-2.385 2.315-5.4 3.623-8.027.291-.586.426-1.322.404-1.979-.099-2.5-.213-5-.475-7.484-.143-1.343.127-2.472 1.051-3.486-2.103-4.57-5.427-8.199-7.871-12.477-4.113 1.393-7.451 4.1-11.756 4.664.348-.343.647-.793 1.059-1.007a455.886 455.886 0 0 1 7.884-4.035l40.823-20.44 7.331-3.607c.81-.408 1.613-.85 2.344-1.372.675-.478.412-1.307-.675-2.092l-.575 1.585c-.284.093-.611.314-.909.286-2.493-.214-4.632.771-6.805 1.8l-45.895 21.668c-.824.386-1.613.843-2.444 1.207-1.648.715-2.465 1.9-2.337 3.736.029.378-.199.771-.39 1.435-1.435-.907-.988-2.5-2.039-3.52h-2.515c-15.215 0-30.431.006-45.646-.022l-39.85-.143c-17.261-.029-34.516.014-51.777-.029l-43.245-.2c-8.055-.02-16.11.058-24.166.043-6.237 0-12.474-.078-18.71-.114-1.478-.007-2.955.05-4.426-.029-2.344-.128-4.49.472-6.556 1.508-1.236.62-1.243.592-2.103 2.292C1.963 59.462.928 57.791 0 55.067c.405-.107.796-.3 1.186-.307l8.17-.114c.226 0 .454 0 .681.029 5.42.785 10.854-.05 16.288.128 5.441.186 10.897.007 16.345.029l26.546.164 34.011.043 46.981.093 39.161.143 50.413.057c2.238.007 4.198-.772 6.102-1.636 6.826-3.092 13.567-6.363 20.344-9.57l22.489-10.62c.817-.386 1.67-.772 2.551-.929 1.619-.285 2.322-1.192 2.322-2.785 0-.186.242-.364.37-.557 1.584-.472 3.381.2 4.908-.786-.106-.778-.675-.528-1.009-.514l-31.624 1.771-23.81 1.157c-1.357.064-2.714.207-4.078.272-.44.021-.923-.022-1.321-.186-.241-.1-.426-.479-.518-.771-.036-.129.198-.472.362-.508.653-.157 1.328-.3 1.996-.335l30.956-1.536 29.593-1.464c1.016-.05 1.989-.2 3.026.129.554.178 1.279-.172 1.982-.293 1.158.75 1.25 2.057 1.52 3.257.227 1.007-.192 1.835-1.009 2.364-.944.621-1.967 1.128-2.976 1.642l-25.586 12.827c-.405.2-.789.443-1.179.672-.917.343-1.464 1.035-1.67 1.956-.511 2.293-1.037 4.586-1.399 6.907-.078.478.518 1.064.803 1.6.774-3.614 1.861-7.02 2.173-10.578h.007zm-11.685 11.799l3.438-3.3c1.172-1.064 2.735-.728 4.255-.835.064-1.922.76-3.6.426-5.921-3.587 2.25-7.344 3.385-10.612 5.692l2.493 4.364zm4.17.964c.433 1.736.739 3.157 1.144 4.55.248.85 1.328 1.042 1.868.307.518-.7 1.065-1.5 1.214-2.329.235-1.285.341-2.678-.71-3.956l-3.523 1.428h.007zm14.171 38.681c-.547-.471-1.065-.821-1.463-1.278-.412-.472-.526-1.293-1.648-1.014-.135 1.5.788 2.32 1.833 3.2l1.271-.908h.007zm-21.466-3.457c.369 1.01.982 1.738 1.84 2.186.118-.972-.495-1.7-1.84-2.186zM2.635 57.188c.178-.092.44-.15.512-.3.057-.12-.12-.35-.192-.528l-.732.45c.135.129.277.25.412.378z"/><path d="M226.662 13.558c-.284 3.5-1.243 6.62-1.74 9.835 1.762-1.515 1.57-3.657 2.025-5.571l1.25-5.992c-.696-1.322-1.712-1.193-2.92-.843-2.493.721-3.85.214-5.299-1.771-1.385-1.9-1.044-4.164 1.002-5.257 1.221-.657 2.294-1.214 2.898-2.6.376-.856 1.818-.57 2.188.322l.128.314c.61 1.193-.817 2.329 0 3.621.639 1.022.923 2.264 1.498 3.743 2.771 1.414 3.95 4.35 4.71 7.52 1.144 4.785 1.712 9.649 1.847 14.563.035 1.364.064 2.735 0 4.1-.014.35-.37.678-.81 1.435-.945-3.114-.483-5.835-.796-8.485-.305-2.585-.227-5.228-1.228-7.899l-3.325-.179c-.781 2.114-1.3 3.971-.966 6.128.483 3.15.632 6.35.916 9.528.05.585-.042 1.092-.809 1.57-1.719-3.084-1.336-6.441-1.911-9.755-.583 2.164-.554 3.364-.171 5.806.192 1.222.206 2.479.235 3.721 0 .236-.334.479-.76 1.036-1.087-3.535-1.158-6.87-1.336-10.313-1.946.086-3.381 1.357-5.079 1.864-1.619.479-3.196 1.1-4.837 1.678-.433 2.607 1.03 5.035.249 7.47-.618.115-.91-.135-1.002-.663l-1.023-5.642c-2.053.45-7.018 2.685-9.014 4.049 1.406 3.371 1.563 6.978 1.783 10.57.042.729-.128.822-1.293 1.043-.973-3.1-.59-6.45-1.605-9.785-.59 2.064-.583 2.257-.277 4.65.135 1.014.248 2.035.262 3.05 0 .6-.333 1.064-1.214 1.02l-1.052-9.962c-4.943-.636-9.561-.557-11.898.164 1.385 3.1.583 6.45 1.215 9.47-.185.264-.249.429-.305.429l-2.778.014-.739-9.549a788.14 788.14 0 0 1-1.91-1.707c.099-.393.085-.7.22-.793 1.484-1.035 2.997-2.035 4.546-3.07.156-2.443-.987-4.964.291-7.35.085-.15.377-.193.76-.371.064.578.164 1.085.171 1.593.021 1.135-.043 2.27.014 3.406.035.693.27 1.443 1.03 1.6.49.1 1.058-.164 1.84-.314-.917-2.107-1.861-4.028-1.719-6.25.028-.464-.554-.942-.803-1.45-1.236-2.492-.81-4.184 1.534-6.191 3.175 1.085 3.417 1.478 3.062 4.863-.036.329-.128.7-.029.993.697 2.021 1.442 4.021 2.252 6.235l1.925-.686c0-.364.085-.642-.014-.764-.987-1.221-2.01-2.42-2.962-3.55.305-1.014.859-.864 1.307-.45.668.615 1.215 1.358 1.847 2 .625.636 1.293 1.229 1.911 1.8 1.491-.407 2.813-.65 3.203-2.32.057-.25.746-.5 1.144-.508 1.911-.014 3.822.057 5.732.107.455.015.902.057 1.357.064.227 0 .448-.05.675-.071l10.513-1.028c1.108-1.357.724-3.114 1.57-4.564l-2.082-3.307c-1.967.65-3.445 1.857-5.007 2.914l-3.652 2.507c-1.577 1.128-3.31 1.186-5.384.95.249-.686.298-1.3.625-1.643 1.101-1.135 2.174-2.371 3.488-3.207a39.336 39.336 0 0 0 5.889-4.606 5.45 5.45 0 0 1 1.683-1.1c.235-.093.668.307 1.172.564l-4.482 4.007c-1.414 1.207-3.133 2.05-4.674 3.735 1.918-.043 2.784-1.2 3.878-1.871 1.258-.771 2.416-1.7 3.644-2.514 1.123-.743 2.274-1.436 3.282-2.071 1.016.214.668.95.888 1.407.185.393.441.95.767 1.035.902.229.561-.7.81-1.1.291-.464.519-.978.831-1.428.064-.093.398.014.838.043v.014zM208.037 29.9l-6.897 3.192c-.369.165-.916.108-1.307-.042-.313-.115-.938-.365-.405-.957.213-.243.547-.443.632-.722.164-.543.199-1.207-.462-1.435-.575-.2-1.079.043-1.328.693-.263.706-.582 1.392-.859 2.063-1.123 0-2.089.215-2.906-.05-1.435-.457-2.671-.114-3.935.436-1.037.45-2.095.872-3.104 1.379-.298.15-.476.542-.916 1.07l14.313.165c.618 0 1.278-.336 1.854-.628 4.049-2.043 8.062-4.136 12.367-5.621 2.031-.7 4.013-1.55 5.995-2.378.37-.15.881-.315.796-1.114-.49-.036-1.009-.115-1.528-.093l-10.193.364c-2.543.078-4.901.8-7.11 2.028-.171.093-.235.364-.441.7l1.25 1.078c1.421-.064 2.458-1.257 4.206-.135l-.022.007zm-17.069-5.028c.355 1.129.646 2.335 1.122 3.464.32.757.988 1.178 2.181.671-.554-1.385-.71-2.85-1.47-4.106-.455-.758-1.116-.6-1.833-.022v-.007zm-.675-6c-.185.98-.327 1.522-.376 2.072-.029.328 0 .714.149.993.199.371.497.85.845.957.611.185 1.058-.265 1.286-.829.17-.414.348-.864.341-1.3-.007-.421-.121-.992-.412-1.228-.377-.314-.973-.371-1.84-.664h.007zm40.795-.028c.149-1.55-.405-2.778-.867-4.02-.121-.336-.547-.558-1.122-1.1l-.441 5.113h2.43v.007zM221.363 8.43c1.137 1.314 2.089 1.879 3.41 1.121.803-.457 1.023-1.128.462-2.064l-3.872.943zm-119.6 19.533l-9.902 3.778c-.384 2.557.966 4.964.163 7.4-.014.05-.192.05-.44.114-1.264-1.9-.796-4.3-1.442-6.37-2.202.428-6.84 2.492-9.1 4.027 1.535 3.214 1.414 6.77 1.847 10.227.107.843-.113 1.643-1.385 1.322-.838-3.086-.653-6.385-1.591-10.035-.746 2.007-.242 3.471-.213 4.914.021 1.135.106 2.271.05 3.4-.014.257-.512.492-1.016.942L77.69 37.598c-3.332-.629-9.618-.6-11.813.021 1.207 3.143.668 6.435 1.051 9.863h-2.884c-.675-1.414-.327-3.042-.518-4.578-.2-1.578-.214-3.178-.32-4.842l-1.875-1.707c.07-.386.042-.707.163-.793l4.603-3.192c-.114-1.164-.199-2.4-.37-3.628a6.382 6.382 0 0 1 .547-3.657c.093-.193.555-.207.967-.343.34 2.193-.796 4.435.625 6.392.781.393 1.484.372 2.138-.421-.384-.914-.81-1.814-1.137-2.757-.22-.643-.462-1.343-.419-1.992.071-1.022-.312-1.529-1.108-2.179-1.307-1.064-1.428-2.75-1.321-4.406-.554-.472-1.087-.886-1.57-1.35-.561-.536-.66-1.193-.263-1.857.384-.643 1.42-1.064 2.081-.722.746.393 1.336 1.122 2.096 1.465.689.307 1.591.128 2.273.45 1.385.65 1.811 1.97 1.826 3.413 0 .779-.462 1.729-.157 2.314.98 1.9.782 4.264 2.451 6.064l1.762-.764c-.547-1.957-2.8-2.729-3.04-5.007 1.562.15 2.017 1.3 2.763 2.043l2.216 2.242c1.186-.67 2.82-.35 3.054-2.278.036-.286.888-.628 1.393-.671 1.342-.122 2.742-.322 4.049-.079 3.438.629 6.769-.364 10.15-.45 1.698-.043 3.396-.285 5.093-.364 2.416-.107 3.204.614 3.481 3.114.128 1.136.213 2.271.305 3.407l.498 6.135c.021.342-.299.714-.604 1.392-2.032-3.37-1.407-6.892-2.209-10.127-.178 2.221-.299 4.42.071 6.62.163 1 .192 2.029.192 3.043 0 .236-.363.479-.554.707-.256-.178-.54-.264-.562-.407-.248-1.343-.518-2.678-.653-4.035-.178-1.793-.249-3.593-.384-5.707l-.014-.007zM64.676 35.52l14.775.179c.618 0 1.258-.393 1.847-.686 4.369-2.15 8.638-4.52 13.369-5.87 1.733-.493 3.346-1.4 5-2.143.427-.193.739-.493.427-1.085-2.344 0-4.724-.05-7.104.014a67.996 67.996 0 0 0-5.775.407 13.934 13.934 0 0 0-5.746 1.971c-.164.1-.213.379-.355.657l1.037 1c1.442.207 2.585-1.286 4.006-.293-1.534 1.186-6.123 3.457-7.274 3.521-.376.022-.774-.3-1.271-.514.412-.571.845-.95.98-1.421.142-.507.184-1.25-.54-1.414-.533-.122-1.08.064-1.286.764-.213.721-.547 1.407-.888 2.278-3.9-.707-7.465-.364-11.202 2.628v.007zm8.112-6.542c-.504-1.435-.88-2.764-1.442-4-.334-.735-1.037-.792-1.854-.113.327 1.085.597 2.292 1.066 3.406.312.736.93 1.3 2.237.707h-.007zm-1.712-7.399l-.76-.721c-.234.321-.547.614-.667.971-.05.15.326.436.511.657l.916-.907zm63.391 4.021c-.163-.615.192-.943.675-.758.497.186.923.622 1.3 1.022.938.978 1.833 1.992 2.777 3.028 1.421-.35 2.849-.293 3.247-2.021.163-.714.802-.85 1.335-.779 2.024.265 4.049-.35 6.088.129.738.171 1.569-.072 2.358-.136l10.52-.871c.781-.064 1.577-.007 2.252-.007.994.885 1.669 1.72 1.754 2.97l.746 9.2c.036.435-.085.885-.17 1.664-.505-.4-.973-.579-1.059-.879a31.862 31.862 0 0 1-.817-3.628c-.284-1.764-.483-3.55-.923-5.3-.32 1.793-.22 3.55.064 5.322.199 1.228.263 2.485.312 3.735.015.386-.22.778-.34 1.178-.363-.128-.711-.178-.725-.271l-1.328-9.642c-.277 0-.526-.064-.718.007l-9.113 3.7c.113 2.492.937 4.82.426 7.378-1.641-.665-1.13-2.15-1.449-3.2-.327-1.057-.427-2.178-.625-3.285-2.515.678-7.423 2.992-8.936 4.178 1.264 3.428 1.655 6.999 1.655 10.627 0 .478-.036.478-1.087.807-1.464-3.1-.497-6.685-1.996-10.449-.519 2.036-.199 3.421-.05 4.814.128 1.243.234 2.485.242 3.735 0 .343-.398.686-.945 1.564-.654-3.892-.853-7.227-1.201-10.491-2.564-.479-9.433-.536-12.019-.093.256.814.576 1.607.732 2.428.149.779.121 1.593.178 2.386.071.907.177 1.82.22 2.728.035.793.007 1.585.007 2.542h-3.005c-.071-.707-.163-1.35-.192-2.007l-.128-4.106c-.163-3.007-.277-3.243-2.365-5.5 1.3-1.6 3.296-2.256 4.98-3.506-.135-2.243-.895-4.493-.178-6.735.121-.379.405-.7.902-1.529.27.886.483 1.265.469 1.629-.028.793-.242 1.578-.256 2.371-.021 1.143.071 2.285 1.115 3.257l1.769-.407c0-.386.064-.622-.007-.807-.412-1.05-.98-2.05-1.271-3.129-.363-1.378-.405-2.728-1.719-3.806-1.045-.857-1.087-2.414-.746-3.85.326-1.407 1.193-2.157 2.536-2.428 1.228-.25 2.408.371 3.146 1.557.718 1.157.675 2.357.327 3.62-.32 1.136.391 1.665 1.321 2-.959 1.957.263 3.357 1.116 5.036l2.045-.95-3.232-4.028-.014-.015zm26.886 1.985c-4.773-.45-9.504-.407-14.185.343-1.627.264-3.161 1.142-4.724 1.778-.149.064-.199.386-.326.657l1.044.964c1.435.236 2.571-1.3 4.205-.071-2.074 1.257-4.127 1.857-5.974 2.857-.391.214-.845.471-1.257.45-.498-.029-.988-.322-1.613-.557.455-.515.917-.807.973-1.157.078-.493-.007-1.129-.284-1.522-.305-.435-1.222.065-1.491.772l-.732 1.992c-.98 0-1.932.207-2.749-.043-1.79-.557-3.325.022-4.894.7-.725.315-1.478.593-2.167.972-.327.178-.547.55-.888.914.455.164.661.3.86.3l13.247.128c.618 0 1.265-.364 1.854-.65 4.369-2.142 8.631-4.492 13.348-5.877 2.038-.6 4.006-1.486 5.761-2.957l-.008.007zm-27.447 3.235c-.604-1.82-.952-3.114-1.47-4.328-.398-.928-1.123-.978-1.904-.235.568 1.65.192 3.9 3.374 4.556v.007zm-3.097-6.87l.447.121c.228-.457.483-.907.654-1.378.035-.093-.234-.393-.412-.443-.163-.05-.533.078-.554.178-.092.5-.1 1.015-.135 1.522zM50.043 34.634c-.575.314-1.136.671-1.733.928a6438.038 6438.038 0 0 1-20.394 8.55A4848.075 4848.075 0 0 1 6.848 52.81c-.938.386-1.897.721-2.863 1.036-.156.05-.554-.143-.554-.236-.007-.293.014-.75.199-.864.667-.415 1.392-.757 2.117-1.064L37.47 38.469l11.309-4.707c.717-.3 1.023.115 1.271.865l-.007.007zm134.759-6.507c-.661.55-.902.929-1.151.929l-12.495.05c-.198 0-.419-.157-.596-.279-.071-.05-.114-.214-.093-.314.036-.193.071-.429.199-.55a.937.937 0 0 1 .597-.25l11.813-.086c.412 0 .817.229 1.733.5h-.007zm-61.693 2.343c-.845.121-1.719.321-2.593.357l-11.514.443c-.54.014-1.151-.043-1.3-.9.22-.136.468-.414.724-.428a1723.8 1723.8 0 0 1 13.546-.522c.569-.021 1.144.1 1.144 1.043l-.007.007zm106.523-8.042c.213.336.554.65.625 1.014l1.342 7.67.611 4.008c.029.392-.483.82-.973 1.592-1.321-4.914-1.371-9.527-2.273-14.012l.675-.272h-.007zM58.958 33.599c-.37.15-.746.45-1.101.428-2.096-.143-4.22.629-6.315-.086.064-.321.064-.685.156-.714 2.38-.728 4.788-.864 7.26.379v-.008z"/></g><defs><clipPath id="A"><path fill="#fff" transform="translate(0 .845)" d="M0 0h306v117H0z"/></clipPath></defs></svg>