<svg width="1512" height="1586" fill="none" xmlns="http://www.w3.org/2000/svg"><path opacity=".5" d="M-29.5 112.618c-12.91 186.244 303.844 379.567 458.768 201.468C584.192 135.988 356.417 31.192 306.159 81.689c-58.551 58.83 29.97 142.262 123.109 142.262 197.134 0 592.492-38.285 713.752-130.05 121.27-91.764-105.03-232.309-669.027 367.58-212.098 225.596-461.544 611.209 172.906 326.69 634.451-284.524 579.121-382.007 496.121-345.88-167.984 73.121-123.01 321.446 207.49 501.717 330.51 180.272 70.8 326.112-50 364.112-180.92 56.91-749.24 183.43-890.146 36.61-140.907-146.82 0-172.67 94.983-39.09 94.983 133.57-124.988 356.67-531.847 235.48" stroke="#CEE7E5" stroke-width="20"/></svg>