<svg width="678" height="279" fill="none" xmlns="http://www.w3.org/2000/svg"><path d="M4.022 647.197c2.41-1.965 4.822-3.959 7.245-5.893 1.818-1.432 3.661-2.818 5.492-4.219a70.578 70.578 0 0 0-.787-1.522L.593 645.095c6.344-6.66 13.751-11.755 21.786-14.984-1.018 1.401-2.024 2.802-3.042 4.188l.529.944 6.355-4.568-.464-.868-3.61.594c.194-7.98 6.046-9.564 10.43-12.777.799-.578 2.062-.335 2.823-.959 13.716-11.208 28.58-20.101 43.056-29.771 2.772-1.842 5.866-3.045 8.573-4.964 6.858-4.919 13.536-10.187 20.394-15.091 8.237-5.908 16.604-11.512 24.854-17.375a1069.935 1069.935 0 0 0 21.322-15.517c20.446-15.228 41.02-30.319 61.208-46.034 18.421-14.345 36.456-29.39 54.555-44.298a1085.543 1085.543 0 0 0 29.74-25.324c11.809-10.461 23.54-21.045 35.078-31.978 24.235-22.842 47.916-46.446 70.154-71.998 16.114-18.517 32.602-36.638 48.239-55.704 13.716-16.75 26.517-34.475 39.666-51.774 1.985-2.62 3.661-5.543 5.633-8.558-3.996-5.726-7.915-11.041-11.602-16.584-14.013-21.227-23.204-44.922-25.589-71.89-3.364-37.629 12.285-82.231 42.838-100.779C511.831 3.677 521.125.812 530.59.681c17.403 0 29.947 10.66 35.026 30.456 2.671 10.72 3.867 21.877 3.545 33.045-.619 28.933-9.024 54.927-21.026 79.642-8.298 16.88-17.676 32.987-28.051 48.181-.928 1.385-1.805 2.817-2.707 4.203 31.777 35.45 91.721 63.683 153.251 49.947 57.198-12.776 99.365-51.044 129.583-108.742 12.195 9.593 12.195 9.608 4.408 22.979-28.85 49.505-67.369 83.89-116.833 98.433-63.979 18.821-122.467 3.045-174.663-44.557-1.354-1.234-2.682-2.528-4.022-3.777a7.694 7.694 0 0 0-.916-.518 40.83 40.83 0 0 0-3.003 3.427c-39.659 55.345-83.159 106.684-130.047 153.482-35 35.176-71.443 68.099-108.918 99.468-36.418 30.456-73.957 58.978-112.051 86.419-21.399 15.41-43.211 30.014-64.946 44.785a3196.417 3196.417 0 0 1-52.08 34.674c-10.442 6.807-21.064 13.202-31.674 19.629A23.215 23.215 0 0 1 0 653.623a26.333 26.333 0 0 0 4.345-2.741c1.25-1.157 2.178-2.787-.323-3.685Zm503.042-462.243a54.944 54.944 0 0 0 3.584-4.69c5.001-8.223 9.861-16.568 14.863-24.791 10.958-17.999 19.724-37.111 25.215-58.551 4.719-18.396 6.15-36.547 3.313-55.4-2.732-18.105-12.375-26.724-27.87-24.455-8.592 1.143-16.736 5.122-23.501 11.481-23.204 21.959-31.687 51.06-27.716 85.079 3.107 26.679 14.438 49.018 29.508 68.845a22.617 22.617 0 0 0 2.604 2.482ZM9.359 644.974l.529 1.233 4.525-2.452-.67-1.523-4.384 2.742Z" fill="#E5D1E0"/></svg>