<svg  viewBox="0 0 394 286" fill="none" >
<path d="M0.783055 54.8676C6.11743 53.3199 9.23962 52.3976 13.1172 51.2784C22.6876 74.2218 38.747 90.5544 61.4828 102.301C60.7907 97.3815 60.316 93.7538 59.797 90.136C53.6613 48.2478 56.6267 7.11629 70.6186 -32.8888C83.3985 -69.5684 104.615 -100.277 136.495 -122.897C176.018 -150.97 219.974 -159.57 267.427 -151.734C298.745 -146.601 326.922 -134.154 350.781 -112.695C392.286 -75.3327 405.141 -18.5137 382.666 32.6177C363.727 75.6388 331.27 105.344 287.23 120.703C224.462 142.563 160.315 144.842 95.5345 128.9C92.5907 128.181 89.6869 127.351 86.7617 126.59C86.466 126.516 86.0976 126.738 85.7719 126.821C96.0624 168.282 188.628 237.04 242.952 242.099L224.843 223.609C227.576 220.8 229.989 218.304 233.205 214.996C243.231 224.997 252.81 233.971 261.766 243.559C266.948 249.169 266.749 256.076 261.657 260.838C251.268 270.895 239.272 279.146 226.164 285.253L220.766 275.437L247.192 257.874C244.783 256.823 242.308 255.934 239.782 255.211C192.9 245.125 152.921 222.106 118.231 189.467C97.8924 170.33 80.2082 149.026 68.7605 123.206C66.7216 118.625 62.7979 117.027 58.877 115.111C39.3422 105.552 22.9334 92.2871 10.9671 73.977C7.36543 68.2836 4.68491 62.1792 0.783055 54.8676ZM139.329 -110.095C119.264 -93.5271 105.361 -77.1095 95.0309 -57.8878C69.7911 -10.4304 64.0078 40.1405 72.719 92.654C76.1074 113.061 72.8032 109.591 92.9786 115.189C158.071 133.211 222.79 130.543 286.167 108.082C319.362 96.2759 344.953 74.0671 363.199 43.9208C394.85 -8.35145 383.994 -71.1864 337.292 -108.372C280.256 -153.916 193.021 -153.491 139.329 -110.095Z" fill="black"/>
</svg>
