<?xml version="1.0" encoding="UTF-8"?>
<svg fill="#72B95C" width="100pt" height="100pt" version="1.1" viewBox="0 0 100 100" xmlns="http://www.w3.org/2000/svg">
 <path d="m87.289 36.973c-0.93359 4.0586-5.3164 7.3828-9.6055 7.3828h-7.0859v11.254h4.3828c4.293 0 7.0859 3.3203 6.0625 7.3828-0.92969 4.0586-5.3164 7.3789-9.6094 7.3789h-0.83594v10.52c0 4.2461-3.3594 7.0117-7.4609 6-4.1094-0.92188-7.4609-5.2617-7.4609-9.5039v-7.0117h-11.375v4.3359c0 4.2422-3.3555 7.0117-7.4609 5.9961-4.1016-0.92188-7.3633-5.2578-7.3633-9.5039v-0.83203h-10.629c-4.3828 0-7.0898-3.3203-6.1562-7.3789 1.0234-4.0586 5.3164-7.3828 9.6992-7.3828h7.0898v-11.254h-4.3828c-4.3828 0-7.0898-3.3242-6.1562-7.3828 1.0273-3.9648 5.3125-7.2891 9.6992-7.2891h0.83984v-10.516c0-4.3359 3.2617-7.0078 7.3633-6.0898 4.1055 1.0156 7.4609 5.2578 7.4609 9.5977v7.0078h11.375v-4.332c0-4.3359 3.3555-7.0156 7.4609-6.0938 4.1016 1.0156 7.4609 5.2617 7.4609 9.5977v0.82812h10.629c4.293 0 7.0898 3.3203 6.0625 7.2891zm-42.988 18.637h11.375v-11.254h-11.375z" fill-rule="evenodd"/>
</svg>
