<svg width="18" height="22" viewBox="0 0 18 22" fill="none" xmlns="http://www.w3.org/2000/svg">
<path fill-rule="evenodd" clip-rule="evenodd" d="M8.34663 1.74664C8.34663 1.27536 8.72868 0.893311 9.19996 0.893311C9.67124 0.893311 10.0533 1.27536 10.0533 1.74664V2.59998C10.0533 3.07126 9.67124 3.45331 9.19996 3.45331C8.72868 3.45331 8.34663 3.07126 8.34663 2.59998V1.74664ZM12.9952 12.8634C13.8184 11.9548 14.32 10.7493 14.32 9.42664C14.32 6.59895 12.0277 4.30664 9.19996 4.30664C6.37226 4.30664 4.07996 6.59895 4.07996 9.42664C4.07996 10.7493 4.58149 11.9548 5.40475 12.8634C5.90923 13.4201 6.33662 14.0732 6.41138 14.8208C6.51594 15.8664 7.1469 16.8426 8.18261 17.0204C8.51325 17.0771 8.85317 17.1067 9.2 17.1067C9.54678 17.1067 9.88666 17.0771 10.2173 17.0204C11.253 16.8427 11.884 15.8665 11.9885 14.8208C12.0633 14.0732 12.4907 13.4201 12.9952 12.8634ZM11.5456 19.2506C11.5845 18.8612 11.2076 18.5586 10.8251 18.641C10.3013 18.7539 9.75758 18.8133 9.2 18.8133C8.6424 18.8133 8.09868 18.7539 7.57482 18.641C7.1923 18.5586 6.81542 18.8612 6.85435 19.2506C6.97486 20.4556 7.98889 21.3733 9.19996 21.3733C10.411 21.3733 11.4251 20.4556 11.5456 19.2506ZM3.16596 3.39267C2.83271 3.72592 2.83271 4.26622 3.16596 4.59947L3.76936 5.20287C4.10261 5.53611 4.64291 5.53611 4.97615 5.20287C5.3094 4.86962 5.3094 4.32932 4.97615 3.99607L4.37276 3.39267C4.03951 3.05943 3.49921 3.05943 3.16596 3.39267ZM15.234 3.39267C14.9007 3.05943 14.3604 3.05943 14.0272 3.39267L13.4238 3.99607C13.0905 4.32932 13.0905 4.86962 13.4238 5.20287C13.757 5.53611 14.2973 5.53611 14.6306 5.20287L15.234 4.59947C15.5672 4.26622 15.5672 3.72592 15.234 3.39267ZM0.666626 9.42664C0.666626 9.89793 1.04868 10.28 1.51996 10.28H2.37329C2.84458 10.28 3.22663 9.89793 3.22663 9.42664C3.22663 8.95536 2.84458 8.57331 2.37329 8.57331H1.51996C1.04868 8.57331 0.666626 8.95536 0.666626 9.42664ZM16.0266 10.28C15.5553 10.28 15.1733 9.89793 15.1733 9.42664C15.1733 8.95536 15.5553 8.57331 16.0266 8.57331H16.88C17.3512 8.57331 17.7333 8.95536 17.7333 9.42664C17.7333 9.89793 17.3512 10.28 16.88 10.28H16.0266Z" fill="#E3A400"/>
</svg>
