<svg xmlns="http://www.w3.org/2000/svg" xmlns:v="https://vecta.io/nano" viewBox="0 0 1000 454" fill="#010101"><path d="M907.176 354.784c-3.666-2.165-8.27-3.248-13.812-3.248-2.406.001-4.799.349-7.104 1.031-2.437.711-4.777 1.711-6.969 2.98-2.19 1.248-4.215 2.758-6.031 4.496-1.41 1.387-2.645 2.938-3.677 4.62-.864-2.194-2.066-4.243-3.563-6.074-1.996-2.392-4.578-4.238-7.5-5.362-3.167-1.184-6.531-1.768-9.916-1.722-2.458.005-4.899.384-7.24 1.124-2.42.75-4.739 1.789-6.906 3.094-2.139 1.279-4.059 2.887-5.688 4.764-.448.515-.802 1.082-1.198 1.619l-.281-9.281h-18.364v70.066h19.031v-41.947c-.01-1.781.382-3.542 1.146-5.155.743-1.544 1.763-2.941 3.01-4.125 1.29-1.22 2.818-2.167 4.49-2.784 1.819-.687 3.75-1.036 5.697-1.031 2.194-.067 4.361.483 6.25 1.588 1.763 1.14 3.138 2.778 3.948 4.702.996 2.37 1.475 4.921 1.407 7.486v41.318h19.031v-41.875c-.035-1.82.32-3.626 1.042-5.3.707-1.564 1.732-2.968 3.01-4.124 1.32-1.213 2.866-2.159 4.552-2.785 1.819-.686 3.751-1.036 5.698-1.031 2.289-.095 4.562.429 6.573 1.516 1.747 1.086 3.106 2.687 3.885 4.578.98 2.485 1.438 5.141 1.344 7.806v41.194h19.031v-42.514c.148-5.424-.786-10.824-2.75-15.89-1.595-4.05-4.49-7.47-8.239-9.734m-382.679 15.622c2.925-1.75 6.291-2.644 9.709-2.578 2.31-.004 4.602.398 6.771 1.186 2.18.789 4.236 1.883 6.104 3.248 1.786 1.28 3.366 2.821 4.687 4.568l10.417-12.446c-3.164-4.224-7.427-7.521-12.333-9.538-5.501-2.344-11.439-3.518-17.428-3.444-6.305-.121-12.523 1.477-17.972 4.62s-9.92 7.709-12.923 13.199c-3.032 5.756-4.615 12.151-4.615 18.643s1.583 12.886 4.615 18.643c3.025 5.465 7.503 10.008 12.949 13.136s11.651 4.722 17.946 4.609c5.877.022 11.692-1.186 17.063-3.547 4.901-1.998 9.23-5.161 12.604-9.208l-10.323-12.446c-1.462 1.8-3.153 3.404-5.031 4.775-1.771 1.289-3.736 2.295-5.823 2.98-2.123.683-4.341 1.031-6.573 1.031-3.415.045-6.768-.901-9.646-2.723-2.832-1.775-5.161-4.234-6.771-7.145-1.693-3.112-2.547-6.603-2.479-10.136-.068-3.583.762-7.126 2.417-10.312 1.521-2.914 3.815-5.362 6.635-7.084M978.3 352.856l-14.875 41.328-2 5.826-.479-1.526c-.589-1.782-1.285-3.527-2.083-5.228l-17.282-40.4h-21.583l32.021 69.798-13.261 30.728h19.303l12.197-30.46 29.74-70.066H978.3zm-197.051 27.686h-32.583c.323-1.461.809-2.882 1.448-4.238 1.323-2.806 3.511-5.124 6.25-6.62 3.079-1.588 6.519-2.366 9.99-2.258 2.522-.043 5.02.501 7.291 1.588 2.117 1.041 3.936 2.59 5.292 4.506 1.373 1.909 2.184 4.158 2.344 6.496l-.032.526zm8.917-19.272c-3-3.136-6.63-5.616-10.656-7.28-4.245-1.754-8.807-2.634-13.406-2.588-4.936-.043-9.832.879-14.407 2.712-4.318 1.743-8.221 4.359-11.458 7.682-3.259 3.381-5.811 7.365-7.51 11.724-1.826 4.736-2.734 9.77-2.678 14.838-.13 6.507 1.538 12.924 4.823 18.561 3.209 5.373 7.846 9.771 13.407 12.714 9.225 4.602 19.8 5.815 29.843 3.423 3.339-.805 6.575-1.981 9.646-3.506 3.11-1.53 5.997-3.469 8.583-5.764l-9.114-12.58c-2.488 2.108-5.302 3.806-8.333 5.032-2.745.996-5.65 1.489-8.573 1.454-4.109.104-8.181-.784-11.865-2.588-3.238-1.615-5.936-4.122-7.771-7.218-1.051-1.809-1.794-3.777-2.198-5.826h50.511l.135-5.826c.228-4.728-.502-9.454-2.146-13.9-1.522-4.11-3.867-7.873-6.896-11.064M439.03 387.43l5.355-14.044 2.281-6.187 2.271-6.558 2.083-6.578 2.083 6.506 2.344 7.022 1.948 5.434 5.469 14.436-23.834-.031zm3.344-57.218l-36.729 92.71h19.844l7.427-19.468h36l7.364 19.468h20.646l-36.593-92.71h-17.959z"/><path d="M616.457 398.35c-1.353 2.909-3.523 5.372-6.25 7.094-2.816 1.713-6.071 2.586-9.375 2.516-3.238.061-6.423-.813-9.167-2.516-2.703-1.75-4.865-4.205-6.25-7.094-1.58-3.325-2.357-6.968-2.271-10.641-.085-3.62.693-7.21 2.271-10.477 1.411-2.871 3.568-5.32 6.25-7.094 2.736-1.744 5.934-2.641 9.187-2.578 3.313-.069 6.573.828 9.375 2.578 2.708 1.746 4.871 4.202 6.25 7.094 1.526 3.282 2.274 6.865 2.188 10.477.08 3.669-.675 7.31-2.208 10.652v-.011zm1.937-36.182c-1.358-1.885-2.958-3.587-4.76-5.063-2.284-1.803-4.868-3.199-7.636-4.125-3.082-1.048-6.324-1.565-9.583-1.526-5.844-.092-11.582 1.545-16.479 4.702-4.896 3.209-8.849 7.641-11.459 12.848-2.906 5.808-4.357 12.224-4.229 18.705-.123 6.503 1.304 12.943 4.167 18.798 2.549 5.223 6.43 9.698 11.26 12.982 4.698 3.169 10.264 4.835 15.948 4.774 3.19.014 6.359-.502 9.375-1.526 2.852-.969 5.539-2.359 7.969-4.125 1.942-1.396 3.693-3.035 5.208-4.877v9.177h19.167v-70.056h-18.948v9.312zm81.418 36.522c-1.399 2.945-3.577 5.461-6.302 7.28-2.786 1.795-6.052 2.718-9.375 2.65-3.304.076-6.553-.848-9.312-2.65-2.686-1.827-4.818-4.344-6.167-7.28-1.458-3.427-2.209-7.108-2.209-10.827s.751-7.399 2.209-10.827c1.323-2.955 3.46-5.481 6.167-7.29 2.774-1.76 6.018-2.658 9.312-2.578 3.313-.071 6.574.825 9.375 2.578 2.745 1.803 4.927 4.328 6.302 7.29 1.498 3.417 2.271 7.103 2.271 10.827s-.773 7.41-2.271 10.827zm1.604-38.41c-1.13-1.169-2.364-2.235-3.687-3.186-5.218-3.693-11.471-5.683-17.886-5.692-5.911-.094-11.716 1.565-16.666 4.764-4.94 3.244-8.925 7.722-11.552 12.982-2.776 5.879-4.215 12.288-4.215 18.777s1.439 12.899 4.215 18.777c2.635 5.232 6.638 9.668 11.593 12.848 4.969 3.154 10.766 4.79 16.667 4.702 3.203.015 6.389-.455 9.448-1.392 2.864-.866 5.576-2.164 8.042-3.846 1.761-1.209 3.345-2.652 4.708-4.289l.406 8.197h17.959v-97.958h-19.032v35.316zm237.239-159.754h-19.031v98.01h19.031v-98.01zm-292.823 10.858c2.083 1.773 4.906 2.65 8.573 2.65 3.09.164 6.128-.83 8.51-2.784 1.042-.931 1.862-2.079 2.402-3.361s.787-2.666.723-4.053c.067-1.399-.178-2.794-.718-4.088s-1.362-2.454-2.407-3.398c-2.083-1.801-4.944-2.705-8.583-2.712-3.1-.163-6.145.855-8.51 2.846-1.994 1.977-3.114 4.658-3.112 7.452s1.125 5.473 3.122 7.448zm50 41.72c1.519-2.909 3.782-5.372 6.562-7.146 2.842-1.721 6.106-2.638 9.438-2.651s6.603.879 9.458 2.579c2.791 1.747 5.041 4.223 6.5 7.156 1.607 3.23 2.414 6.793 2.354 10.394.058 3.574-.749 7.109-2.354 10.311-1.46 2.93-3.71 5.402-6.5 7.146-2.81 1.734-6.064 2.632-9.375 2.588-3.355.056-6.656-.842-9.51-2.588-2.799-1.752-5.067-4.221-6.563-7.146-1.506-3.233-2.286-6.751-2.286-10.311s.78-7.079 2.286-10.312l-.01-.02zm-3.282 42.081c5.956 3.088 12.579 4.701 19.302 4.701s13.347-1.613 19.303-4.701c5.553-3.02 10.164-7.489 13.333-12.921 3.283-5.727 4.949-12.223 4.823-18.808.133-6.562-1.534-13.036-4.823-18.735-3.195-5.412-7.8-9.874-13.333-12.921-5.944-3.128-12.572-4.764-19.303-4.764s-13.359 1.636-19.302 4.764c-5.681 3.117-10.39 7.716-13.615 13.297s-4.843 11.932-4.676 18.359c-.127 6.594 1.566 13.097 4.896 18.808 3.206 5.424 7.835 9.889 13.395 12.921zm162.323-42.339c1.408-2.874 3.566-5.323 6.25-7.094 2.736-1.744 5.935-2.642 9.188-2.578 3.312-.068 6.572.829 9.375 2.578 2.708 1.744 4.872 4.201 6.25 7.094 1.539 3.274 2.298 6.855 2.219 10.466.082 3.671-.677 7.312-2.219 10.652-1.352 2.91-3.522 5.372-6.25 7.094-2.817 1.711-6.071 2.584-9.375 2.516-3.245.065-6.438-.81-9.188-2.516-2.705-1.748-4.868-4.204-6.25-7.094-1.584-3.328-2.365-6.974-2.281-10.652-.08-3.618.701-7.203 2.281-10.466zm-5.76 42.277c4.695 3.174 10.263 4.841 15.948 4.774 3.189.015 6.358-.501 9.375-1.526 2.855-.968 5.545-2.359 7.979-4.125 1.945-1.392 3.696-3.032 5.208-4.877v9.177h19.167V228.47h-18.948v9.28c-1.358-1.885-2.958-3.587-4.76-5.063-2.286-1.801-4.869-3.196-7.636-4.124-3.083-1.048-6.324-1.564-9.583-1.527-5.847-.092-11.588 1.545-16.49 4.702-4.896 3.209-8.848 7.641-11.458 12.848-2.887 5.828-4.316 12.258-4.167 18.747-.123 6.503 1.304 12.943 4.167 18.797 2.549 5.224 6.43 9.698 11.26 12.982m-226.27-84.388h-19.031v17.746h-13.271v16.818h13.271v53.248h19.031v-53.248h14.48V228.47h-14.48v-17.746zm41.157 17.746h-19.031v70.066h19.031V228.47z"/><path d="M824.259 298.536V255.63c.156-5.408-.779-10.792-2.75-15.838-1.594-3.998-4.466-7.369-8.177-9.6-4.119-2.24-8.772-3.337-13.468-3.176-3.883-.01-7.722.802-11.261 2.382-3.437 1.497-6.552 3.632-9.177 6.29-.614.63-1.194 1.29-1.74 1.98l-.343-9.198h-18.229v70.066h19.01v-42.122c-.017-1.781.372-3.543 1.135-5.156.764-1.594 1.824-3.032 3.125-4.238 1.343-1.267 2.94-2.24 4.688-2.856 1.913-.688 3.933-1.037 5.969-1.031 2.332-.241 4.685.196 6.77 1.258 1.862 1.062 3.302 2.72 4.084 4.702.97 2.537 1.427 5.238 1.344 7.95v41.451l19.02.042zm-407.489-92.71v92.71h19.688v-59.662l45.166 59.662h18.219v-92.71h-19.635v25.294l.135 10.528.333 9.146.542 8.342.729 7.94.25 2.062-47.427-63.322-18 .01zm145.334 68.138c-1.353 2.909-3.522 5.372-6.25 7.094-2.816 1.712-6.071 2.585-9.375 2.516-3.241.063-6.43-.812-9.177-2.516-2.705-1.748-4.869-4.204-6.25-7.094-1.585-3.331-2.366-6.981-2.281-10.662-.08-3.615.702-7.196 2.281-10.456 1.405-2.873 3.564-5.319 6.25-7.084 2.727-1.755 5.925-2.657 9.177-2.588 3.315-.075 6.578.826 9.375 2.588 2.709 1.739 4.874 4.192 6.25 7.084 1.53 3.274 2.285 6.849 2.208 10.456.082 3.673-.673 7.317-2.208 10.662zm20.833 24.572V228.47h-18.896v9.28c-1.361-1.883-2.961-3.584-4.76-5.063-2.284-1.803-4.868-3.198-7.635-4.124-3.083-1.048-6.325-1.564-9.584-1.527-5.847-.092-11.588 1.545-16.489 4.702-4.896 3.209-8.849 7.641-11.459 12.848-2.903 5.82-4.35 12.246-4.218 18.736-.124 6.51 1.304 12.957 4.166 18.819 2.549 5.22 6.43 9.692 11.261 12.971 4.697 3.169 10.263 4.836 15.948 4.774 3.189.016 6.358-.5 9.375-1.526 2.853-.97 5.543-2.36 7.979-4.124 1.95-1.39 3.702-3.034 5.208-4.888v9.188h19.104zM433.061 115.869c1.227-3.425 3.164-6.558 5.687-9.198 2.47-2.583 5.433-4.655 8.719-6.094 3.425-1.4814 7.128-2.2265 10.865-2.1856 3.756-.033 7.478.7116 10.927 2.1856 3.28 1.407 6.223 3.483 8.635 6.094 2.467 2.685 4.4 5.805 5.698 9.198 2.774 7.529 2.774 15.785 0 23.314-1.307 3.414-3.238 6.56-5.698 9.281-2.39 2.636-5.338 4.717-8.635 6.094-3.46 1.431-7.178 2.15-10.927 2.113-3.727.039-7.423-.684-10.854-2.124-3.304-1.399-6.277-3.464-8.73-6.063-2.517-2.675-4.453-5.834-5.687-9.28-2.597-7.559-2.597-15.755 0-23.314v-.021zm-8.99 46.02c4.357 4.295 9.53 7.694 15.219 10.002 12.254 4.757 25.871 4.757 38.125 0 5.669-2.305 10.818-5.706 15.146-10.002 4.349-4.349 7.749-9.536 9.989-15.24 4.642-12.303 4.642-25.85 0-38.152-2.242-5.7-5.642-10.8834-9.989-15.2304-4.319-4.3221-9.469-7.744-15.146-10.0639-12.252-4.7698-25.873-4.7698-38.125 0-5.703 2.3112-10.878 5.7336-15.219 10.0639-4.333 4.3318-7.729 9.4934-9.979 15.1684-2.384 6.101-3.568 12.597-3.489 19.138-.062 6.539 1.122 13.032 3.489 19.138 2.223 5.692 5.622 10.861 9.979 15.178zm110.512-33.43c1.407-2.873 3.565-5.323 6.25-7.094 2.735-1.744 5.934-2.641 9.187-2.578 3.312-.065 6.572.831 9.375 2.578 2.706 1.748 4.869 4.203 6.25 7.094 1.53 3.274 2.285 6.85 2.208 10.456.075 3.675-.687 7.319-2.229 10.662-1.354 2.908-3.524 5.37-6.25 7.094-2.817 1.71-6.071 2.583-9.375 2.516-3.244.065-6.438-.809-9.187-2.516-2.705-1.748-4.869-4.203-6.25-7.094-1.581-3.332-2.358-6.982-2.271-10.662-.079-3.614.702-7.196 2.281-10.456h.011zm-5.771 42.277c4.709 3.164 10.288 4.817 15.979 4.733 3.189.017 6.358-.495 9.375-1.516 2.852-.968 5.538-2.359 7.969-4.124 1.944-1.397 3.696-3.04 5.208-4.888v9.188h19.115v-70.046h-18.907v9.281c-1.357-1.883-2.954-3.584-4.75-5.063-2.289-1.801-4.876-3.196-7.645-4.125-3.083-1.048-6.325-1.565-9.584-1.526-5.843-.091-11.581 1.546-16.479 4.702-4.896 3.209-8.849 7.641-11.458 12.848-2.911 5.818-4.362 12.245-4.229 18.736-.124 6.506 1.304 12.95 4.166 18.808 2.549 5.223 6.43 9.698 11.261 12.982m88.259-18.499l6.479-6.001 22.469 27.923h22.917l-32.782-39.595 32.917-30.471H644.03l-26.938 26.944V76.1394h-19.031v98.0096h19.031v-21.922zm-470.602-47.7c-2.459.361-4.688 1.381-7.125 1.155-.386 0-.781.247-1.177.35-2.084.536-4.052 1.547-6.334 1.361-.93.061-1.837.321-2.656.763l-5.208 2.135c-5.572 1.956-11.038 4.196-16.375 6.712-3.25 1.64-6.156 3.764-9.3752 5.404-.6354.33-1.2187 1.031-1.875 1.031-2.1562.196-3.5208 1.66-5.0416 2.856l-8.25 6.568c-.875.681-2.0104 1.032-2.8646 1.722-2.0833 1.702-4.1667 3.434-6.0625 5.321-3.8229 3.753-7.8021 7.373-11.3125 11.435-2.7868 3.042-5.3358 6.289-7.625 9.714-.1684.382-.4048.731-.6979 1.031-2.5313 1.815-3.5521 4.784-5.5104 7.022-1.4063 1.588-1.7292 3.702-2.8438 5.434-1.2708 1.97-2.4167 4.011-3.7708 5.939-.9548 1.345-1.7418 2.799-2.3438 4.331-.7345 2.12-1.583 4.199-2.5416 6.228-.9538 2.17-1.7747 4.394-2.4584 6.662l-3.4375 9.579c-.2488.894-.4401 1.804-.5729 2.722l-2.8958 14.848c-.3125 1.712-.3125 3.465-.4583 5.29 2.0629.758 4.1891 1.334 6.3541 1.722 2.3958.629 4.8333 1.093 7.2917 1.702 3.125.783 6.25 1.66 9.3125 2.485 2.0833.546 2.3125.732 2.4375 2.949.1146 1.959.1979 3.918.125 5.877-.2952 5.967-.1315 11.948.4896 17.891.3229 2.856.3645 5.753.6041 8.63.1667 1.939.4167 3.877.6875 5.816.1042.804.4375 1.577.5521 2.392.3125 2.062 1.2396 3.898 1.1458 6.042-.052 1.145.6771 2.331 1.0417 3.486s.9375 2.062.5833 3.279c-.0368.096-.0368.202 0 .299 1.0038 2.679 1.7739 5.439 2.3021 8.249.5521 2.382 1.75 4.578 1.9479 7.094.201.905.5759 1.762 1.1042 2.526 1.3306 2.548 2.53 5.16 3.5938 7.827 1.4895 3.702 3.4375 7.218 5.2083 10.837l3.9271 8.033c.1534.491.3522.967.5937 1.423 2.6979 3.516 4.4688 7.64 7.2917 11.115.9583 1.207 1.8021 2.506 2.6979 3.764.0615.082.1172.168.1667.258.5312.959.1666 2.217 1.2916 3.021.872.722 1.6709 1.527 2.3855 2.403.2916.299.6979.556.8333.907 1.1979 3.227 3.9896 5.218 6.0417 7.775.6882.76 1.2989 1.585 1.8229 2.464.6183.943 1.3563 1.803 2.1983 2.557.718.612 1.361 1.304 1.916 2.063 1.146 1.834 2.618 3.448 4.344 4.764 2.458 2.196 4.677 4.66 7.073 6.939 2.177 2.062 4.458 4.001 6.698 5.991.302.279.864.423.969.743.812 2.454 3.343 2.876 5.031 4.289 1.416 1.186 3.125 2.062 4.166 3.671.51.65 1.167 1.172 1.917 1.526 3.333 1.897 6.458 4.125 9.688 6.187 3.27 2.183 6.692 4.137 10.239 5.846 3 1.392 5.917 2.96 8.979 4.228 1.823.753 3.709 1.382 5.459 2.269 2.989 1.526 5.864.928 8.698-.279 1.708-.732 3.323-1.681 4.979-2.536l11.312-5.847c.719-.371 1.323-.959 2.021-1.382.85-.572 1.749-1.069 2.688-1.485 1.052-.415 2.052-.951 2.979-1.598 1.708-1.155 3.573-2.062 5.354-3.093 2.191-1.176 4.263-2.557 6.187-4.125.624-.533 1.326-.968 2.084-1.289.945-.421 1.761-1.083 2.364-1.918.56-.601 1.194-1.131 1.886-1.577l5.656-4.352c.969-.763 1.917-1.557 2.865-2.351.345-.223.639-.514.864-.856.813-1.649 2.375-2.546 3.667-3.722s2.562-2.402 3.802-3.63c.74-.721 1.375-1.557 2.146-2.247.942-.815 1.717-1.803 2.281-2.908.372-.75.849-1.444 1.417-2.063l6.583-7.403c.368-.359.671-.777.896-1.237.892-2.091 2.215-3.973 3.885-5.527 1.42-1.632 2.516-3.514 3.229-5.548.477-1.352 1.182-2.614 2.084-3.733 1.006-1.047 1.754-2.311 2.187-3.691.224-.684.532-1.339.917-1.949l5.771-10.198c.864-1.526 1.719-3.011 1.385-4.939.021-.818.235-1.62.625-2.341.313-.866.688-1.712 1.042-2.547 1.583-3.475 2.083-7.28 3.312-10.858 2.041-6.134 3.294-12.498 3.73-18.942.375-4.939 1.5-9.744 2.083-14.642 0-.093.094-.175.229-.433.458-.292.971-.49 1.507-.582s1.087-.077 1.618.046c3.406.577 6.833 0 10.24.196 3.001.225 6.016.187 9.01-.114.655.011 1.306.105 1.938.279.718 1.801 1.027 3.738.906 5.671-.205 2.869-.264 5.746-.177 8.62 0 .31.062.712-.094.908-1.24 1.546-.615 3.32-.667 5.001-.083 2.784 0 5.568-1.291 8.177-.273.655-.421 1.354-.438 2.062-.255 2.553-.704 5.083-1.344 7.569-.76 3.433-2.333 6.599-3.02 10.033-.029.206-.104.403-.219.577-1.781 2.155-1.834 4.98-2.917 7.404l-3.562 8.249c-.448 1.031-1.146 1.969-1.5 3.031-.98 2.949-3.188 5.269-4.167 8.249-.771 2.393-2.344 4.321-3.552 6.455-.98 2.035-2.223 3.934-3.698 5.651-1.385 1.433-2.083 3.516-3.125 5.29-.35.735-.859 1.387-1.49 1.907-2.002 1.451-3.627 3.352-4.739 5.548-.911 1.509-1.956 2.935-3.125 4.258-2.771 3.321-5.5 6.693-8.573 9.745-1.969 1.959-3.521 4.31-5.792 6.001-.369.359-.694.761-.969 1.196-2.008 2.344-4.192 4.536-6.531 6.558-.341.391-.764.704-1.239.918-1.865.567-3.125 1.949-4.552 3.093-1.907 1.578-3.948 3.001-5.917 4.517-1.042.825-2.083 1.722-3.125 2.567-.479.382-.958 1.031-1.49 1.031-1.896.196-3.125 1.506-4.614 2.424-2.792 1.763-5.427 3.784-8.188 5.609-1.522 1.052-3.132 1.973-4.812 2.753-3.125 1.382-5.959 3.351-9.094 4.651-2.667 1.103-5.271 2.32-7.927 3.444-1.802.763-3.531 1.701-5.292 2.567-.621.387-1.269.731-1.937 1.031l-7.417 2.32c-.504.126-.99.313-1.448.557-1.031.688-2.258 1.031-3.5.98-.614-.068-1.234.039-1.788.31s-1.018.692-1.337 1.216c-2.72-.334-5.346-1.196-7.729-2.537-2.083-1.136-4.288-2.038-6.573-2.691-2.57-.833-5.034-1.958-7.344-3.351-1.921-1.231-3.98-2.238-6.135-3.001-.759-.304-1.463-.729-2.083-1.258-.637-.522-1.397-.877-2.209-1.031-1.123-.234-2.152-.79-2.958-1.598-1.157-1.158-2.59-2.009-4.167-2.475-.851-.368-1.63-.881-2.302-1.516-1.604-1.114-2.989-2.495-5.021-2.97-.851-.363-1.617-.897-2.25-1.567-1.698-1.361-3.187-3.093-5.073-4.073-2.116-1.286-4.155-2.694-6.104-4.217-3.372-2.415-6.511-5.135-9.375-8.126-2.3593-2.584-4.9574-4.946-7.7602-7.053-.4207-.302-.8082-.648-1.1562-1.031l-7.3646-7.929c-.3822-.474-.7302-.973-1.0417-1.495-.2698-.556-.6093-1.076-1.0104-1.547-2.0729-1.862-3.941-3.936-5.5729-6.187-1.7396-2.155-3.7083-4.125-4.9583-6.682-.0939-.296-.2541-.567-.4688-.794-2.4896-1.784-3.125-4.753-4.7396-7.104-1.0416-1.588-1.9791-3.362-3.6666-4.527-.6062-.455-1.0952-1.045-1.4271-1.722-.9271-1.712-1.75-3.485-2.6667-5.207-.8111-1.671-1.7333-3.286-2.7604-4.836-2.0223-2.996-3.7656-6.168-5.2083-9.476-.6354-1.3-1.3334-2.558-1.9896-3.847-1.8229-3.547-3.8542-7.001-4.7708-10.961-.4084-1.256-.9423-2.468-1.5938-3.619-.4927-1.007-.9308-2.04-1.3125-3.093-.7292-2.228-1.0417-4.599-2.6042-6.517-.3187-.528-.5409-1.108-.6562-1.712l-3.4271-10.188c-.3854-1.175-.6979-2.371-1.0416-3.567-1.375-5.053-3.0521-10.033-3.7813-15.251-.1146-.804-.2187-1.619-.2708-2.444-.0533-1.646-.3229-3.279-.8021-4.856-.2597-.888-.4204-1.8-.4792-2.723l-.7083-8.249c-.0041-.206-.0356-.41-.0938-.608-.9267-2.519-1.2823-5.208-1.0416-7.878 0-.072-.1146-.165-.2813-.412-1.9479-.454-4.0416-1.032-6.1458-1.423l-17.96876-3.671c-1.42708-.289-1.7812465-.64-1.8333298-2.062-.0584762-.82.0046954-1.643.1874998-2.444.82402-2.67 1.04451-5.486.645833-8.249-.128323-.832-.064211-1.682.187497-2.485.88542-2.908.85417-5.909 1.04167-8.879.36238-3.784.98888-7.54 1.875-11.239.64583-3.31.83333-6.723 2.20833-9.868.39486-4.199 1.64576-8.275 3.67708-11.982.56888-1.092.87878-2.298.90628-3.526.0758-2.166.7221-4.273 1.875-6.115 1.1746-1.921 2.1218-3.969 2.8229-6.104.8854-2.599 1.9375-5.156 3.0625-7.703 1.7371-3.61 3.6705-7.125 5.7917-10.528.747-1.111 1.5719-2.169 2.4687-3.166.2862-.314.5344-.66.7396-1.031 1.5833-3.609 4.0104-6.692 6.1979-9.919.616-.942 1.2909-1.844 2.0208-2.702 1.5-1.701 3.125-3.341 4.6146-5.011.3089-.277.5663-.605.7604-.969.8959-2.217 2.6875-3.63 4.4896-5.022 1.0027-.867 1.876-1.87 2.5938-2.98 1.4198-1.748 2.9842-3.376 4.677-4.867.8855-.866 2.0105-1.495 2.8334-2.413 1.5942-1.631 3.3378-3.112 5.2083-4.424 2.0833-1.649 4.3125-3.227 6.25-5.052 2.6776-2.427 5.7078-4.443 8.9896-5.981.2812-.134.6458-.247.7708-.484.9375-1.681 2.6042-2.269 4.25-2.919.5914-.208 1.1388-.522 1.6146-.928 1.9583-1.845 4.5104-2.4537 6.9375-3.3405 1.9027-.5325 3.6752-1.4448 5.2083-2.6809.4763-.4021 1.0237-.7133 1.6146-.9177 2.808-1.0152 5.5311-2.246 8.1461-3.6812 2.029-1.0478 4.223-1.7453 6.489-2.0623.931-.0639 1.816-.4258 2.521-1.0311.854-.7816 1.963-1.2351 3.125-1.2786 2.388-.1364 4.716-.7874 6.823-1.9076.804-.4217 1.695-.6546 2.604-.6806 3.113-.1782 6.192-.7358 9.167-1.6601.29-.1114.596-.1809.906-.2063 2.958.1753 5.677-1.1445 8.583-1.3301 1.343-.1571 2.675-.3912 3.99-.7012.182-.5287.325-1.0697.427-1.6189.261-2.4541 1.333-4.6917 1.958-7.053.208-.575.385-1.1601.532-1.7529.885-5.6404 3.01-10.8373 5.208-16.0961s4.844-10.2186 7.177-15.3537c.154-.3758.368-.7242.636-1.0312 1.937-1.9488 2.937-4.4545 4.26-6.7745.428-.8206.976-1.5745 1.625-2.2376 1.699-1.5123 3.111-3.3145 4.167-5.3207.682-1.3824 1.547-2.6688 2.573-3.8255 2.979-3.2928 6.013-6.5272 9.104-9.70306 1.146-1.18582 2.468-2.19633 3.718-3.28934 1.042-.87647 2.084-1.71169 3.011-2.62941C194.927 2.41287 196.521.783667 198.959 0c1.325.4 2.467 1.24627 3.229 2.39225 2.177 3.17591 5.021 5.75376 7.698 8.48625l7.073 7.4036c.453.5568.864 1.1462 1.229 1.7633-.096.6146-.314 1.2044-.641 1.7353s-.757.9925-1.266 1.3581l-4.041 3.3718c-.349.3844-.779.6873-1.261.8868-1.656.3403-2.583 1.5983-3.698 2.6707-2.01 1.9282-3.666 4.1967-6.041 5.764-.654.5135-1.215 1.1343-1.656 1.8355-1.008 1.4374-2.194 2.7435-3.532 3.8874-.692.6253-1.255 1.3784-1.656 2.2169-1.881 3.4278-3.935 6.7592-6.156 9.9814-1.649 2.4975-3.015 5.1671-4.073 7.9604-.146.3816-.156.9384-.427 1.1343-2.011 1.4333-1.854 3.7843-2.552 5.7538-.553 2.0769-1.347 4.0838-2.365 5.9806-1.042 1.7426-.864 3.9389-1.177 6.1868 2.083-.2474 3.885.3506 5.708-.3403.336-.0759.685-.0759 1.021 0 3.198.165 6.417.196 9.604.5569 4.011.464 7.99 1.1858 11.98 1.8251.603.1488 1.195.3418 1.77.5774.945.4219 1.939.7267 2.959.9074 2.803.1268 5.548.8291 8.062 2.0623.397.1267.814.1791 1.229.1547.308-.0365.62-.0365.927 0 1.588.7267 3.246 1.2933 4.948 1.691 1.635.2471 3.212.7814 4.657 1.5777l7.75 3.9493c.677.2902 1.373.5348 2.083.7321 2.405.6687 4.672 1.7507 6.698 3.1965.604.3981 1.242.7432 1.906 1.0311.979.5569 2 1.0312 2.927 1.7216.636.524 1.396.879 2.209 1.032 1.118.239 2.145.79 2.958 1.588 3.042 2.464 6.167 4.846 9.26 7.218.323.257.625.649 1.042.721 2.49.485 4.104 2.289 5.969 3.743.479.382 1.041.598 1.562.97 1.05.662 2.019 1.445 2.886 2.33 1.715 1.93 3.574 3.729 5.562 5.383 1.229 1.093 2.354 2.299 3.479 3.495 1.02 1.161 2.174 2.199 3.438 3.094.269.157.506.363.698.608 2.541 3.516 5.677 6.527 8.562 9.744.39.472.738.976 1.042 1.506l3.906 6.31c.131.279.319.528.552.732 3.125 1.877 4.167 5.218 5.979 8.074.271.433.375.969.667 1.382 2.056 2.97 3.732 6.18 4.99 9.559.153.493.408.95.75 1.34 2.802 2.836 3.802 6.558 5.093 10.126.385 1.26.88 2.485 1.48 3.66.861 1.634 1.519 3.365 1.958 5.156.646 2.279 1.156 4.589 1.635 6.909.258 1.199.664 2.363 1.209 3.464.875 1.836 2 3.651 1.77 5.837-.013.312.037.624.146.917 1.031 3.233 1.554 6.603 1.552 9.992 0 .712.282 1.413.344 2.135.136 1.423.208 2.856.302 4.289-.02.206-.02.413 0 .619.594 2.31.323 4.681.563 7.012.274 1.722.309 3.474.104 5.207-.145 1.435-.211 2.878-.198 4.32l-.625 7.889c-2.469 1.515-5.104 3.093-8.333 3.093-.313.007-.622.063-.917.165-6.125 2.186-12.594 2.547-18.938 3.526-1.83.307-3.694.366-5.541.176-2.274-.094-4.551-.018-6.813.227-2.068.195-4.154.081-6.187-.341-1.528-.306-3.092-.396-4.646-.268-2.292.062-4.552.279-6.75-.608-.403-.098-.815-.153-1.229-.165-2.823-.382-5.823 0-8.334-1.763-.135-.104-.406 0-.614 0-2.27-.093-4.518-.478-6.688-1.145-5.413-1.451-10.734-3.218-15.937-5.29-2.151-1-4.364-1.864-6.625-2.588-.205-.04-.4-.121-.573-.237-3.625-2.846-8.198-3.877-12.094-6.187-2.469-1.505-4.76-3.269-7.291-4.702-3.886-2.227-7.011-5.444-10.688-7.95-3.232-2.234-6.311-4.676-9.219-7.311-2.531-2.258-5.208-4.423-7.114-7.3-.553-.618-1.152-1.193-1.792-1.722-1.521-1.671-3.229-3.186-4.167-5.311-.336-.519-.751-.985-1.229-1.381-1.969-2.228-4.041-4.372-5.281-7.146-.229-.505-.917-.804-1.271-1.289-1.606-2.015-3.101-4.115-4.479-6.29-2.385-4.125-4.76-8.187-6.729-12.467-1.5-3.248-3.354-6.341-4.375-9.847-.844-2.939-2.406-5.671-3.646-8.497-.319-.528-.531-1.113-.625-1.722 0-2.536-1.094-4.712-1.917-7.022-1.509-3.947-2.497-8.072-2.937-12.27 0-.505-.209-1.031-.302-1.506l-1.292-7.218c-.058-.198-.058-.409 0-.608.896-1.774 0-3.403-.354-5.084-.399-1.688-.57-3.422-.511-5.155.207-2.987-.067-5.987-.812-8.889l.021-.154zm28.666.557c-.545 1.636-.733 3.369-.552 5.083.198 2.671.146 5.372.594 8.002.74 4.454.594 9.043 2.083 13.405.563 1.68.417 3.464.844 5.155 1.264 5.097 2.99 10.07 5.156 14.859.936 2.063 1.753 4.177 2.448 6.331.177.675.458 1.318.834 1.908.948 1.34 1.708 2.815 2.541 4.227-.26 1.846 1.146 2.98 1.927 4.372.407.722.969 1.351 1.303 2.063 1.236 2.434 2.723 4.735 4.437 6.867 2.406 3.331 5.083 6.486 7.635 9.724.305.299.556.647.74 1.031.667 1.969 2.292 3.145 3.719 4.475 1.969 1.815 4.062 3.516 5.437 5.888.226.334.512.624.844.856l8.99 7.115c5 3.838 10.27 7.318 15.77 10.414 3.219 1.856 6.771 3.094 9.771 5.362.549.293 1.139.505 1.75.629 1.504.392 2.974.903 4.396 1.526 1.248.729 2.611 1.245 4.031 1.526.588.18 1.153.422 1.688.722.633.329 1.291.609 1.969.835 1.812.444 3.645.866 5.479 1.186 3.073.526 6.146 1.114 9.239 1.392 2.365.206 4.615 1.031 7.042.949 3.125-.093 6.146.794 9.292.34 1.725-.402 3.517-.444 5.26-.124.517.022 1.035-.041 1.531-.185.704-.155 1.428-.203 2.146-.145.72.142 1.462.134 2.179-.022s1.394-.458 1.988-.885c.036-.515.036-1.032 0-1.547-.443-2.56-.569-5.164-.375-7.754.031-.515-.011-1.033-.125-1.536l-2.011-10.9c-.489-2.423-1.104-4.815-1.718-7.218-.334-1.299-.761-2.567-1.167-3.846-1.008-3.67-2.325-7.25-3.937-10.703-.283-.43-.468-.915-.542-1.423-.088-1.023-.447-2.005-1.042-2.846l-6.25-11.342c-.9-1.842-2.015-3.572-3.323-5.156-.707-.752-1.338-1.57-1.885-2.444-2.083-3.599-4.802-6.702-7.146-10.095-.873-1.391-2.017-2.597-3.365-3.547-1.04-.691-1.941-1.569-2.656-2.588-2.427-3.403-5.833-5.826-8.771-8.723-1.823-1.784-4.02-3.176-5.948-4.898-2.145-1.898-4.489-3.63-6.76-5.404-1.491-1.118-3.046-2.151-4.656-3.093-4.479-2.763-8.761-5.867-13.709-7.837-1.514-.41-2.9-1.19-4.031-2.268-.212-.232-.493-.391-.802-.454-3.036-.663-5.963-1.743-8.698-3.207-.271-.134-.604-.134-.896-.247-.501-.124-.977-.333-1.406-.619-1.021-.713-2.206-1.16-3.448-1.299-3.047-.573-6.057-1.33-9.01-2.269-2.188-.773-4.709-.546-6.886-1.608-3.843 0-7.635-.846-11.458-.536-1.548.165-3.109.165-4.656 0-1.921-.226-3.868-.093-5.74.391"/></svg>