<svg width="20" height="21" viewBox="0 0 20 21" fill="none" xmlns="http://www.w3.org/2000/svg">
<path fill-rule="evenodd" clip-rule="evenodd" d="M6.35996 3.30664C7.06689 3.30664 7.63997 2.73357 7.63997 2.02664C7.63997 1.31972 7.06689 0.746643 6.35996 0.746643C5.65304 0.746643 5.07997 1.31972 5.07997 2.02664C5.07997 2.73357 5.65304 3.30664 6.35996 3.30664ZM10.2 20.3733C11.7612 20.3733 13.2001 19.7509 14.3502 18.7037C15.0555 18.0615 16.1228 17.8507 16.8991 18.4052L18.2373 19.361C18.6208 19.635 19.1538 19.5461 19.4277 19.1626C19.7016 18.7791 19.6128 18.2462 19.2293 17.9723L17.2543 16.5615C16.702 16.1671 16.5026 15.4624 16.6843 14.8086C16.879 14.1077 17.4852 13.5466 18.2126 13.5466H18.7333C19.2046 13.5466 19.5866 13.1646 19.5866 12.6933C19.5866 12.222 19.2046 11.84 18.7333 11.84H18.4703C17.6578 11.84 17.0005 11.175 16.8405 10.3784C16.7097 9.72748 16.9295 9.05705 17.4698 8.67113L19.2293 7.41436C19.6128 7.14043 19.7016 6.60748 19.4277 6.22399C19.1538 5.84049 18.6208 5.75166 18.2373 6.02559L17.5953 6.48418C17.5884 6.48906 17.5991 6.49963 17.5928 6.50514L17.5924 6.50547L17.5914 6.50636L17.5883 6.50908L17.578 6.51816L17.5411 6.55033C17.5093 6.5778 17.4635 6.61706 17.4048 6.66642C17.2875 6.7651 17.1183 6.90444 16.9065 7.0709C16.4838 7.40309 15.887 7.84692 15.1909 8.29218C13.8429 9.15442 11.9551 10.1333 10.2 10.1333C8.44485 10.1333 6.55713 9.15442 5.20911 8.29218C4.513 7.84692 3.91618 7.40309 3.49353 7.0709C3.28174 6.90444 3.11254 6.7651 2.99519 6.66642C2.93649 6.61706 2.89069 6.5778 2.85894 6.55033L2.82197 6.51816L2.81165 6.50908L2.80857 6.50636L2.80756 6.50547L2.80719 6.50514C2.80091 6.49959 2.81154 6.4891 2.80472 6.48423L2.16262 6.02559C1.77912 5.75166 1.24617 5.84049 0.972246 6.22399C0.698318 6.60748 0.787143 7.14043 1.17064 7.41436L2.93011 8.67113C3.47041 9.05705 3.69023 9.72748 3.55946 10.3784C3.39943 11.175 2.74215 11.84 1.92968 11.84H1.66663C1.19535 11.84 0.813299 12.222 0.813299 12.6933C0.813299 13.1646 1.19535 13.5466 1.66663 13.5466H2.18735C2.91475 13.5466 3.52091 14.1077 3.71563 14.8086C3.8973 15.4624 3.6979 16.1671 3.14565 16.5615L1.17064 17.9723C0.787143 18.2462 0.698318 18.7791 0.972246 19.1626C1.24617 19.5461 1.77912 19.635 2.16262 19.361L3.50084 18.4052C4.27708 17.8507 5.34442 18.0615 6.04975 18.7037C7.19985 19.7509 8.6387 20.3733 10.2 20.3733ZM6.12873 6.85447C5.7747 6.62802 5.71498 6.13725 6.02435 5.85282C7.17863 4.79157 8.62719 4.15998 10.2 4.15998C11.7728 4.15998 13.2214 4.79159 14.3756 5.85288C14.685 6.1373 14.6253 6.62803 14.2713 6.85447C12.9511 7.69889 11.4255 8.42666 10.2 8.42666C8.97449 8.42666 7.44888 7.69889 6.12873 6.85447ZM15.32 2.02664C15.32 2.73357 14.7469 3.30664 14.04 3.30664C13.333 3.30664 12.76 2.73357 12.76 2.02664C12.76 1.31972 13.333 0.746643 14.04 0.746643C14.7469 0.746643 15.32 1.31972 15.32 2.02664Z" fill="#D1251A"/>
</svg>
