<svg width="19" height="21" viewBox="0 0 19 21" fill="none" xmlns="http://www.w3.org/2000/svg">
<path fill-rule="evenodd" clip-rule="evenodd" d="M17.8021 7.12682C19.1661 11.8836 16.4157 16.8454 11.6589 18.2094L12.3646 20.6703C12.3646 20.6703 3.04605 20.6791 0.576335 12.0662C-0.787649 7.30946 1.96275 2.34761 6.71953 0.983623C11.4763 -0.380361 16.4382 2.37004 17.8021 7.12682ZM7.09081 14.2078C7.73738 14.4337 8.47483 14.5467 9.30317 14.5467C9.6719 14.5467 10.0302 14.5207 10.3782 14.4688C10.7288 14.4194 11.0429 14.3532 11.3208 14.2701C11.6012 14.1896 11.8232 14.1026 11.9868 14.0092L11.6012 12.8796C11.461 12.9367 11.2754 12.9952 11.0442 13.0549C10.8131 13.1172 10.5548 13.1691 10.2691 13.2107C9.9835 13.2548 9.69138 13.2769 9.39276 13.2769C8.75917 13.2769 8.19829 13.1938 7.71011 13.0276C7.22194 12.8614 6.81166 12.6173 6.47929 12.2953C6.14691 11.9734 5.89504 11.5761 5.72365 11.1035C5.55487 10.6283 5.46918 10.083 5.46658 9.46756C5.46918 8.90928 5.54968 8.39384 5.70807 7.92124C5.86907 7.44605 6.11056 7.03188 6.43255 6.67873C6.75454 6.32558 7.15702 6.05163 7.64 5.85688C8.12298 5.65954 8.68776 5.56086 9.33433 5.56086C9.70826 5.56086 10.0718 5.59851 10.4249 5.67382C10.7807 5.74912 11.1105 5.86857 11.4143 6.03216C11.7181 6.19575 11.9842 6.40868 12.2128 6.67094C12.4439 6.93061 12.623 7.24611 12.7503 7.61743C12.8801 7.98616 12.945 8.41461 12.945 8.90279C12.945 9.40914 12.9139 9.82591 12.8515 10.1531C12.7918 10.4803 12.7009 10.7231 12.5789 10.8815C12.4594 11.0399 12.3101 11.1191 12.131 11.1191C11.9985 11.1191 11.8934 11.0697 11.8155 10.971C11.7376 10.8724 11.6973 10.7334 11.6947 10.5543V6.75274H10.4756V7.18898H10.421C10.3769 7.07473 10.2639 6.96826 10.0822 6.86959C9.90301 6.77091 9.68229 6.69951 9.42002 6.65536C9.15776 6.61122 8.87992 6.61122 8.58649 6.65536C8.32682 6.69172 8.06845 6.77481 7.81138 6.90464C7.55431 7.03448 7.32061 7.21365 7.11028 7.44216C6.90255 7.67066 6.73506 7.9524 6.60782 8.28737C6.48318 8.62235 6.41956 9.01574 6.41697 9.46756C6.41956 9.92458 6.48059 10.3271 6.60003 10.675C6.72208 11.023 6.88826 11.3151 7.0986 11.5514C7.31152 11.7877 7.55431 11.9682 7.82696 12.0928C8.10221 12.2174 8.39304 12.2889 8.69945 12.307C8.99287 12.3252 9.26942 12.3005 9.52909 12.233C9.79135 12.1629 10.0134 12.0655 10.1951 11.9409C10.3769 11.8137 10.4989 11.6721 10.5613 11.5163H10.608C10.6366 11.6955 10.6989 11.8526 10.795 11.9876C10.8936 12.1201 11.0365 12.22 11.2234 12.2876C11.4104 12.3551 11.6545 12.3771 11.9557 12.3538C12.3763 12.3304 12.7347 12.233 13.0307 12.0616C13.3267 11.8877 13.5656 11.6527 13.7474 11.3566C13.9318 11.058 14.0668 10.7088 14.1525 10.3089C14.2382 9.909 14.2797 9.47016 14.2771 8.99237C14.2797 8.29906 14.1693 7.66677 13.946 7.0955C13.7253 6.52163 13.402 6.02697 12.9762 5.6115C12.5529 5.19343 12.0362 4.87144 11.426 4.64553C10.8183 4.41962 10.1276 4.30667 9.35381 4.30667C8.51768 4.30667 7.77243 4.43001 7.11807 4.67669C6.4663 4.92338 5.91451 5.27653 5.46269 5.73614C5.01087 6.19315 4.66681 6.74105 4.43051 7.37984C4.19681 8.01862 4.07996 8.73011 4.07996 9.51431C4.07996 10.3089 4.19681 11.0178 4.43051 11.641C4.66421 12.2642 5.00437 12.7913 5.451 13.2224C5.89763 13.656 6.44423 13.9845 7.09081 14.2078ZM9.87964 10.8425C9.69268 10.9645 9.4408 11.0256 9.124 11.0256C8.78384 11.0256 8.51508 10.9503 8.31773 10.7997C8.12039 10.6465 7.97887 10.4478 7.89318 10.2037C7.80749 9.95704 7.76335 9.69607 7.76075 9.42082C7.76335 9.1248 7.81658 8.86773 7.92044 8.64961C8.02691 8.42889 8.18011 8.25751 8.38006 8.13547C8.5826 8.01342 8.82798 7.9524 9.11621 7.9524C9.44599 7.9524 9.70306 8.00953 9.88743 8.12378C10.0744 8.23544 10.2055 8.40033 10.2808 8.61845C10.3587 8.83397 10.399 9.09754 10.4016 9.40914C10.4068 9.76229 10.3678 10.0596 10.2847 10.3011C10.2042 10.54 10.0692 10.7205 9.87964 10.8425Z" fill="#9D50FF"/>
</svg>
