<svg width="112" height="200" viewBox="0 0 112 200" fill="none" xmlns="http://www.w3.org/2000/svg">
<path d="M7.85483 68.6534C-7.54496 102.747 0.4353 139.488 25.3559 153.555C53.039 161.509 86.4003 142.068 101.8 107.974L7.85483 68.6534Z" fill="white"/>
<path d="M85.0364 43.398C92.2553 27.8539 86.4294 9.88381 72.1806 0.833447C69.4596 -0.893678 65.7705 0.168728 64.4719 3.04916L61.5088 9.61111C60.5526 11.7359 61.1783 14.2528 63.1143 15.6276C69.6484 20.2579 72.2456 28.7913 68.8752 36.2452C68.828 36.3531 68.7867 36.4554 68.7454 36.5634C41.5286 29.7742 12.3227 43.4889 1.86927 69.8332C0.777295 72.583 2.15849 75.668 4.96221 76.8383L97.8391 115.71C100.643 116.88 103.931 115.75 105.276 113.108C118.15 87.8147 108.688 57.9479 85.0364 43.398Z" fill="#371E2D"/>
<path d="M56.1495 199.845C84.6541 199.845 107.762 196.604 107.762 192.607C107.762 188.609 84.6541 185.369 56.1495 185.369C27.645 185.369 4.53748 188.609 4.53748 192.607C4.53748 196.604 27.645 199.845 56.1495 199.845Z" fill="#371E2D"/>
</svg>
