<svg width="48" height="48" viewBox="0 0 48 48" fill="none" xmlns="http://www.w3.org/2000/svg">
<path d="M23.6516 31.2874C23.3617 31.2874 23.0679 31.2375 22.7819 31.1338C21.4609 30.6538 20.7793 29.1927 21.2593 27.8698L22.8241 23.569C23.3041 22.2481 24.7671 21.5665 26.0881 22.0465C28.3268 22.8605 30.8094 21.7028 31.6235 19.4641C32.4375 17.2253 31.2798 14.7428 29.0411 13.9287C26.8043 13.1146 24.3198 14.2724 23.5057 16.5111C23.0257 17.8321 21.5646 18.5137 20.2417 18.0337C18.9208 17.5537 18.2392 16.0925 18.7192 14.7697C19.5793 12.4081 21.3073 10.5207 23.5863 9.45894C25.8654 8.39718 28.4209 8.28582 30.7825 9.14406C33.1441 10.0042 35.0315 11.7322 36.0932 14.0113C37.155 16.2903 37.2663 18.8458 36.4081 21.2074C35.5479 23.569 33.8199 25.4564 31.5409 26.5181C30.0529 27.2113 28.4478 27.4993 26.8561 27.3783L26.042 29.6132C25.6676 30.6461 24.6903 31.2874 23.6516 31.2874Z" fill="white"/>
<path d="M21.2073 39.7756C23.011 39.7756 24.4732 38.3134 24.4732 36.5097C24.4732 34.706 23.011 33.2438 21.2073 33.2438C19.4036 33.2438 17.9414 34.706 17.9414 36.5097C17.9414 38.3134 19.4036 39.7756 21.2073 39.7756Z" fill="white"/>
</svg>
